<?xml version="1.0" encoding="utf-8"?>
<!-- Generator: Adobe Illustrator 17.1.0, SVG Export Plug-In . SVG Version: 6.00 Build 0)  -->
<!DOCTYPE svg PUBLIC "-//W3C//DTD SVG 1.1//EN" "http://www.w3.org/Graphics/SVG/1.1/DTD/svg11.dtd">
<svg version="1.1" xmlns="http://www.w3.org/2000/svg" xmlns:xlink="http://www.w3.org/1999/xlink" x="0px" y="0px"
	 viewBox="0 0 194.6 298" enable-background="new 0 0 194.6 298" xml:space="preserve">
<g id="Layer_16">
</g>
<g id="Layer_17">
</g>
<g id="Layer_12">
</g>
<g id="Layer_18">
</g>
<g id="Layer_10">
</g>
<g id="Layer_11">
</g>
<g id="_x2D_----">
</g>
<g id="Layer_13">
</g>
<g id="Layer_23">
</g>
<g id="Layer_15">
</g>
<g id="Layer_14">
</g>
<g id="Layer_21">
</g>
<g id="Layer_19">
</g>
<g id="Layer_22">
</g>
<g id="Layer_25">
</g>
<g id="Layer_20">
</g>
<g id="Layer_24">
</g>
<g id="_x2D_----_1_">
</g>
<g id="Layer_26">
</g>
<g id="Layer_29">
</g>
<g id="Layer_30">
</g>
<g id="Layer_27">
</g>
<g id="Layer_31">
</g>
<g id="Layer_28">
</g>
<g id="_x2D_----_2_">
</g>
<g id="Layer_32">
	<g>
		<g>
			<g>
				<path fill="#E4E4E4" d="M117.7,103l58.9,71.3l-0.5,49.9l-21.7-26.7c-19.8,20.6-40.7,30.9-62.1,30.9c-19.3,0-35.6-6.1-49.1-18.5
					c-13.2-12.4-19.8-27.7-19.8-45.9c0-21.7,10.3-39.9,31.4-54.1l14.3-9.8c0.3,0,0.5-0.3,1.1-0.8c0.5-0.3,1.1-0.8,1.8-1.6
					C57.8,82.4,50.4,67.3,50.4,52.5s4.8-26.7,14.3-35.9c9.8-9.2,22.4-13.7,38-13.7c15.1,0,27.2,4.5,37,13.5
					c9.8,9,14.8,20.3,14.8,33.8c0,9.5-2.6,18-7.9,25.6C141,83.2,131.5,92.4,117.7,103z M91.6,121.5l-1.8,1.3
					C76.3,132,67,139.7,62.3,145.2s-7.1,11.6-7.1,18c0,9,3.7,17.4,10.8,24.8c7.4,7.1,15.8,10.8,24.8,10.8c12.7,0,27.2-8.2,43.8-24.8
					L91.6,121.5z M98.7,80l2.6-2.1c4.5-3.4,8.5-6.6,11.4-9c2.9-2.6,5.3-4.8,6.6-6.6c2.9-3.4,4.2-7.7,4.2-12.9c0-5.8-1.8-10.3-5.8-14
					c-4-3.7-9-5.3-15.6-5.3c-5.8,0-10.8,1.8-15.1,5.5c-4,3.4-6.1,7.9-6.1,13.5c0,6.3,2.6,12.7,7.7,19l8.2,9.8
					C97.1,78.2,97.7,79,98.7,80z"/>
			</g>
		</g>
	</g>
	<g>
		<g>
			<path fill="#FDFDFE" d="M126.5,42c-2.6-13.5-14.5-20.1-25.2-20.2c-24.2-0.2-33.9,20.2-28.1,40c3,10.5,10.5,20.5,17.2,28.7
				c3.8,4.6,63.4,74.7,69.9,84.9c2.5,3.9,6.9-1.1,4-5.8c-6.7-10.5-46.3-56.4-57.7-70.4c-3.7-4.5-7.1-9.2-10.8-13.7
				c-7.3-9-15.5-19.6-17.5-31.4c-1.5-8.5,3.4-18.5,11.1-22.5c5.8-3,12.8-2.9,19-1.1c4.3,1.2,13.1,3.8,14,8.6
				C123.2,43.9,126.5,42,126.5,42z"/>
		</g>
	</g>
	<g>
		<g>
			<g>
				<path fill="#8E8E8E" d="M91.7,31.1C80.5,36,74.8,46.4,82,60.6c4.9,9.6,13.7,17.8,21.3,27.2c23.8,29.2,59.5,71.6,64.1,76.3
					c4.7,4.9-2.7,1.7,3.2,2.9L98.7,80c-1.1-1.1-1.6-1.8-1.8-2.1l-8.2-9.8c-5-6.3-7.7-12.7-7.7-19c0-5.5,2.1-10,6.1-13.5
					c4.2-3.7,9.2-5.5,15.1-5.5c6.4,0,11.2,1.5,15.1,4.9C114.9,31.1,100.7,27.1,91.7,31.1z"/>
			</g>
		</g>
	</g>
	<g>
		<g>
			<g>
				<path fill="#B4B4B5" d="M97.3,121.5l40.1,48.9h6.5c-1.1-1.5-65.9-78.9-72.6-89.3c-12-18.9-13.5-40,1-59.6
					C81.6,9.2,96.3,7.7,114.5,5.2c-2.6-0.3-4.6,0-7.4,0c-15.6,0-26.9,2.2-36.7,11.4c-9.5,9.2-14.3,21.1-14.3,35.9
					c0,14.8,7.4,29.8,21.7,45.2C77,98.5,97.3,121.5,97.3,121.5z"/>
			</g>
		</g>
	</g>
	<g>
		<g>
			<path fill="#E4E4E4" d="M117.7,103c13.7-10.6,23.2-19.8,28.8-27.2c1.8-2.6,3.3-5.3,4.4-8c-2.9-3.1-6.4-5.6-9.9-7.7
				c-4.3-2.6-9-5.2-13.8-6.7c-1.3-0.4-2.5-0.7-3.8-1.1c-0.4,4-1.7,7.3-4.1,10c-1.3,1.8-3.7,4-6.6,6.6c-2.9,2.4-6.9,5.5-11.4,9
				L98.7,80L72,97.7c0,0-1.3,1.3-1.8,1.6c-0.5,0.5-0.8,0.8-1.1,0.8l-14.3,9.8c-1.1,0.8-2.2,1.5-3.3,2.3c0,0.7,0,1.4,0,2.1
				c0.1,6.6,1.2,13.3,5.2,18.8c2.7,3.7,7.2,5.4,11.6,6c5.1-4.6,12.3-10.1,21.3-16.3l1.8-1.3L117.7,103z"/>
		</g>
	</g>
	<g>
		<g>
			<g>
				<path fill="#B4B4B5" d="M30.4,171.9c-2.9-14.6,4.6-32.3,14.1-43c5.9-6.6,13.1-11.8,20.5-16.7c13.5-9,48.6-32.6,53.8-38.6
					c4.9-5.5,10.2-13.4,10.2-21.3c0.1-19.2-21.3-22.1-21.3-22.1s15.6,1.7,17.8,21.1c0.6,5.2-1.3,9.5-4.2,12.9
					c-1.3,1.8-3.7,4-6.6,6.6c-2.9,2.4-6.9,5.5-11.4,9l-2.6,2.1L74.1,99.7c0,0-1.3,1.3-1.8,1.6c-0.5,0.5-0.8,0.8-1.1,0.8L57,111.9
					c-21.1,14.3-31.4,32.5-31.4,54.1c0,2.5,0.1,5,0.4,7.5C27.4,172.7,28.8,172.2,30.4,171.9z"/>
			</g>
		</g>
	</g>
	<g opacity="0.1">
		<g>
			<path d="M115.6,210.7c13.8-7.8,25.7-19.1,34.3-32.4c0.5-0.8,1.2-1.8,2.2-1.9c1-0.1,1.9,0.8,2.6,1.5c9.9,11.4,15.9,19.4,24.2,32.1
				c-4.1,2.3-2,2.1-6.7,1.8c-2.3-0.1-18.6-23.7-19.8-22.7c-6.6,6-22.3,24.5-37,21.7"/>
		</g>
	</g>
	<g>
		<g>
			<path fill="#FDFDFE" d="M122.9,10c18,9.4,16.4,34.2,11.4,53.1c-1.6,6.2-6.2,11.7-10.5,16.3c-6,6.4-12.8,11.9-19.7,17.2
				c-26.1,20-66.4,37.7-71.1,74.5c-0.6,4.8,11.1,2.7,11.6-1.4c2.5-19.8,17-34.1,32.4-45.1c14.6-10.5,29.7-20.2,43.6-31.6
				c12.3-10.1,24.2-21.7,26.7-38c2.9-18.8-6.6-38.6-23.5-47.4C120.4,5.7,122.9,10,122.9,10z"/>
		</g>
	</g>
	<g>
		<g>
			<path fill="#8E8E8E" d="M62.4,23c33.4-22.1,60.6-12.1,66.7-8.3c-1.6-4.3-7.4-8.7-9.3-9.5c-5.3-1.5-11-2.3-17.2-2.3
				C92,2.9,84.8,4,76.8,8.3C72.1,11.9,64.6,18.4,62.4,23z"/>
		</g>
	</g>
	<g>
		<g>
			<g>
				<path fill="#8E8E8E" d="M151,34.2c4.1,9.6,4.5,22.7-1.5,34.8c-4.1,8.3-8.8,13.8-15.8,19.8c-15.9,13.6-36.1,26.4-52.8,39
					c-7.8,5.9-25.4,15.4-29.2,32.6c-1.5,6.9-0.5,2.2-1.2,5.2c2.2,0.2,2.7,0.1,4.9,0c-0.1-0.8-0.1-1.7-0.1-2.5c0-6.3,2.4-12.4,7.1-18
					c4.8-5.5,14-13.2,27.5-22.4l1.8-1.3l26.1-18.5c13.7-10.6,23.2-19.8,28.8-27.2c5.3-7.7,7.9-16.1,7.9-25.6
					c0-13.5-5-24.8-14.8-33.8c-3.8-3.5-13.3-9.7-19.8-11.2c3,2.4,14.5,7.4,17.2,10.1C143.1,21.3,147.6,26.3,151,34.2z"/>
			</g>
		</g>
	</g>
	<g>
		<path fill="#E2E2E2" d="M193.8,286.2c-1.4-1.4-3.1-2.5-5.2-2.5c-1.1,0-1.8,0.7-2.6,1.3c-0.1,0.1-0.3,0.2-0.4,0.3
			c-2.3-0.2-4.6,0.3-7,1.3c-1.2,0.5-1.5,1.4-1.4,2.4c-1.9,0-3.9-0.1-5.8-0.2c-7.5-0.4-15-0.9-22.5-0.9c-15-0.1-30,0.9-45,1.3
			c-30,0.7-60.1-0.8-89.9-4c-0.2-0.1-0.3-0.1-0.5-0.1c-0.7-0.1-1.5-0.2-2.3-0.2c-0.9-0.1-1.6,0.3-2.1,0.9c-2.5,0.5-4.9,1.3-7.4,2.2
			c-2,0.8-2.4,3.8,0,4.4c30.6,8.4,62.3,5.5,93.5,3.6c16.4-1,32.7-1,49.2-0.4c16.1,0.7,32.2,1,48.1-2.4c1.5-0.3,2.4-2.3,1.8-3.7
			C194.8,288.5,194.8,287.1,193.8,286.2z"/>
	</g>
</g>
<g id="Layer_55">
	<g>
		<path fill="#D6AF5F" d="M16.6,161.6c-1.8,0.1-3.7,0.2-5.2,1.2c-2.4,1.6-3,4.7-3.1,7.4c-1,27,0.8,62.7,0.2,89.7
			c-0.1,2.5-0.5,5.2,0.9,7.3c1.9,2.9,175.7,11.7,176.9,0.9c0.4-3.2,0.4-6.9,0.4-10.4c-0.1-25.4,0.1-54.8,0-80.2
			c0-4.7,1-10.4-1.6-14.3C182.7,159.3,62.6,158.9,16.6,161.6z"/>
	</g>
	<g opacity="0.3">
		<g>
			<path fill="#AF863E" d="M186.8,177.6c0-4.7,1-10.4-1.6-14.3c-0.6-0.9-7.2-1.6-17.7-2.2c4,2.4,7.9,5.2,10.4,9.2
				c6.2,10,3.8,24.4,3.5,35.6c-0.5,16-0.2,32.1-1.5,48c-0.4,4.7-0.9,9.2-1.6,13.9c-0.1,0.9-0.4,2.3-0.7,3.8c5.3-0.8,8.5-1.9,8.7-3.3
				c0.4-3.2,0.4-6.9,0.4-10.4C186.7,232.4,186.9,203,186.8,177.6z"/>
		</g>
	</g>
	<g opacity="0.3">
		<g>
			<path fill="#AF863E" d="M35.6,232.5c0.4-14.3-0.9-30.3,3.6-44.1c3.4-10.3,9.9-19.4,16.6-28.1c-15.4,0.3-29.2,0.7-39.3,1.3
				c-1.8,0.1-3.7,0.2-5.2,1.2c-2.4,1.6-3,4.7-3.1,7.4c-1,27,0.8,62.7,0.2,89.7c-0.1,2.5-0.5,5.2,0.9,7.3c0.9,1.4,41.6,4.2,83.7,5.4
				C69,268.6,34.7,263.2,35.6,232.5z"/>
		</g>
	</g>
	<g>
		<path fill="#6B6B6B" d="M14.2,264.2c-1.8,0-3.8,0.1-5.3,0.3c-2.4,0.4-3.3,1.1-3.2,1.8c0.3,6.6,0.2,14.9,0.2,21.1
			c0,0.6,0.4,1.5,1,1.7c1.9,0.9,176.8,0.2,181.9,0.2c0.3,0,0.5-1.6,0.4-2.4c-0.1-6,0.1-12.9,0-18.9c0-1.1,0.2-3.3-1.6-3.4
			C184.8,264.5,61.5,263.5,14.2,264.2z"/>
	</g>
	<g opacity="0.4">
		<g>
			<path fill="#3F3E3B" d="M189.2,268c-0.1-1.1,0.2-3.3-1.6-3.4c-0.3,0-2.2,0-5.3-0.1c0.2,1.3,2.2,14.7-0.5,17.2
				c-3.3,3.1-58,3.8-75.1,3.1c-16.8-0.6-73.6,0-80.2-3.1c-5.3-2.6-4.8-14.9-3-17.7c-3.4,0-6.5,0.1-9.3,0.1c-1.8,0-3.8,0.1-5.3,0.3
				c-2.4,0.4-3.3,1.1-3.2,1.8c0.3,6.6,0.2,14.9,0.2,21.1c0,0.6,0.4,1.5,1,1.7c1.9,0.9,176.8,0.2,181.9,0.2c0.3,0,0.5-1.6,0.4-2.4
				C189.2,280.7,189.5,273.5,189.2,268z"/>
		</g>
	</g>
</g>
<g id="Layer_53">
	<g>
		<rect x="8.3" y="168.9" fill="#B58E47" width="178.4" height="1"/>
	</g>
	<g>
		<rect x="8.3" y="179" fill="#B58E47" width="178.4" height="1"/>
	</g>
	<g>
		<rect x="8.3" y="189.1" fill="#B58E47" width="178.4" height="1"/>
	</g>
	<g>
		<rect x="8.3" y="199.2" fill="#B58E47" width="178.4" height="1"/>
	</g>
	<g>
		<rect x="8.3" y="209.3" fill="#B58E47" width="178.4" height="1"/>
	</g>
	<g>
		<rect x="8.3" y="219.4" fill="#B58E47" width="178.4" height="1"/>
	</g>
	<g>
		<rect x="8.5" y="229.5" fill="#B58E47" width="178.3" height="1"/>
	</g>
	<g>
		<rect x="8.6" y="239.6" fill="#B58E47" width="178.1" height="1"/>
	</g>
	<g>
		<rect x="8.6" y="249.7" fill="#B58E47" width="178.1" height="1"/>
	</g>
	<g>
		<rect x="8.5" y="259.9" fill="#B58E47" width="178.3" height="1"/>
	</g>
</g>
<g id="Layer_54">
</g>
<g id="Layer_38">
</g>
<g id="Layer_36">
</g>
<g id="Layer_35">
</g>
<g id="Layer_34">
</g>
<g id="_x2D_----_3_">
</g>
<g id="Layer_43">
</g>
<g id="Layer_44">
</g>
<g id="Layer_45">
</g>
<g id="Layer_41">
</g>
<g id="Layer_49">
</g>
<g id="Layer_48">
</g>
<g id="Layer_42">
</g>
<g id="Layer_47">
</g>
<g id="Layer_50">
</g>
<g id="Layer_9">
</g>
</svg>
