<svg xmlns="http://www.w3.org/2000/svg" width="674.078" height="317.92"><g fill="#126D8F"><path d="M327.268 158.98l-.26-.358.258.358h.002zm2.375-1.08l-.064-.047-.002.006.066.041zm209.746-7c.506.606 1.264 1.224 1.824 1.832-.561-.608-1.318-1.226-1.824-1.832-.439.488-1.062.938-1.49 1.43.427-.492 1.05-.942 1.49-1.43zm-211.692 4.112c.064.239.133.469.219.685-.086-.216-.154-.447-.219-.685zm-.197-.956c.045.304.1.592.17.865-.07-.273-.125-.562-.17-.865zm-281.289.112l-.512-.153c-.104-1.195-.291-2.391-.293-3.586-.006-2.839-1.311-4.671-3.75-6.167-4.447-2.729-8.492-1.178-12.07 1.249-3.99 2.708-7.449 6.191-11.197 9.266-.592.487-1.492.601-2.248.888-.143-.746-.426-1.496-.402-2.237.215-6.938.348-13.883.775-20.81.389-6.3 1.074-12.584 1.717-18.866.291-2.849-.703-4.731-3.436-5.387-.934-.224-2.457-.104-2.936.486-.479.59-.07 1.981.096 2.997.24 1.466.986 2.942.867 4.36-.666 7.957-1.707 15.885-2.275 23.847-.758 10.588-.973 21.219-3.273 31.648-.234 1.064-.473 2.499.033 3.277.986 1.512 2.5 2.68 3.795 3.99 1.049-1.087 2.23-2.078 3.1-3.293.58-.809.73-1.932 1.043-2.923 1.295-4.122 2.619-8.257 5.562-11.55 2.332-2.608 4.74-5.176 7.346-7.503 1.922-1.718 4.057-3.363 6.381-4.422 3.238-1.477 5.389.047 5.123 3.637-.178 2.396-.926 4.876-1.969 7.053-2.107 4.398-4.066 8.79-4.527 13.713-.195 2.064.855 3.685 2.588 4.097 1.49.354 3.375-.081 4.83-.736 1.041-.47 1.682-1.863 2.467-2.873.791-1.019.904-1.995-.199-2.939-1.26-1.079-1.217-2.223-.65-3.835 1.526-4.342 2.699-8.81 4.014-13.228zm614.887-32.723c-5.182.944-10.34 2.021-15.49 3.13-5.764 1.241-11.506 2.579-17.262 3.861-2.104.468-4.203 1.009-6.334 1.266-.525.063-1.709-.902-1.674-1.317.232-2.763.494-5.56 1.162-8.242 1.107-4.448.611-5.954-3.701-8.426-.391 1.739-.732 3.404-1.152 5.049-.27 1.059-.812 2.065-.965 3.133-.42 2.968-.656 5.961-1.051 8.933-.23 1.734-1.291 2.638-3.082 2.777-5.172.402-10.348.792-15.5 1.373-.785.089-1.893 1.049-2.1 1.811-.496 1.825 1.314 3.393 3.943 3.407 3.564.019 7.133-.085 10.691-.287 4.197-.238 4.516.062 3.912 4.158-.984 6.695-1.971 13.389-2.863 20.097-.334 2.526-.672 5.102-.531 7.628.143 2.589.158 4.948-1.832 6.529.256 1.367.197 2.663.752 3.597.65 1.099 1.834 1.881 2.785 2.8.908-1.062 2.467-2.039 2.621-3.2 1.117-8.43 1.953-16.897 2.877-25.352.492-4.501.996-9.002 1.477-13.505.252-2.35 1.191-3.994 3.703-4.683 8.037-2.204 16.053-4.479 24.039-6.854 4.955-1.473 9.84-3.184 14.764-4.767 1.705-.549 3.432-1.03 5.312-1.591-1.204-2.606-3.06-1.588-4.501-1.325zm-84.664 19.895c-2.756 2.282-5.111 5.043-7.748 7.478-.744.687-1.875 1.427-2.781 1.37-2.178-.136-2.787 1.024-3.004 2.767-.088.708.051 1.454-.098 2.143-1.643 7.612-3.35 15.211-4.965 22.829-.381 1.8-.207 3.749-.762 5.477-2.027 6.319-1.865 12.866-2.068 19.35-.039 1.221 1.637 2.496 2.52 3.746.965-.824 2.059-1.545 2.846-2.514.518-.635.709-1.613.836-2.469.705-4.731 1.422-9.463 1.982-14.213.492-4.176.719-8.382 1.184-12.562.41-3.682 1.086-4.177 4.627-3.625 10.234 1.596 16.541-3.004 21.309-12.12 1.467-2.806 1.754-6.23 2.455-8.897-.303-1.878-.268-3.224-.746-4.353-2.603-6.154-10.222-8.85-15.587-4.407zm8.336 15.766c-2.793 2.894-6.037 5.369-9.197 7.889-.963.768-2.219 1.228-3.406 1.642-3.826 1.336-5.619-.109-5.219-4.162.514-5.194 2.609-9.662 6.299-13.355 1.596-1.6 2.734-3.528 5.262-4.285 4.498-1.347 8.943-.314 9.02 6.598-.89 1.919-1.371 4.235-2.759 5.673zm-451.659-6.873c-1.875 1.607-3.518 3.483-5.277 5.222-.525.519-1.098.988-2.102 1.882-.572-3.396-1.072-6.048-1.459-8.717-.691-4.776-5.035-7.26-9.277-5.015-1.836.972-3.445 2.49-4.922 3.99-1.201 1.219-2.248 1.947-3.924 1.011-1.688-.944-2.578-.103-2.906 1.526-.283 1.407-.375 2.853-.643 4.264-.717 3.765-1.506 7.516-2.219 11.281-.465 2.464.967 4.882 3.199 5.379 2.742.61 3.045-1.626 3.727-3.35.232-.587.293-1.239.453-1.857 1.475-5.695 3.891-10.959 7.434-15.657.562-.745 1.666-1.345 2.576-1.439.389-.041 1.09 1.342 1.357 2.171.314.966.607 2.106.389 3.05-1.08 4.641-2.15 9.299-3.592 13.834-.863 2.723-1 3.088 1.75 4.711 2.355 1.39 3.059 1.135 4.758-1.056 3.67-4.73 7.42-9.401 11.219-14.028.465-.567 1.438-.717 2.176-1.061.193.731.635 1.497.539 2.187-.359 2.56-.785 5.121-1.393 7.631-.523 2.16.318 4.55 2.037 5.021 2.217.608 3.703-.57 4.184-3.328.139-.787.256-1.577.379-2.367.672-4.344 1.518-8.657-.219-13.002-1.543-3.853-5.097-4.98-8.244-2.283zm55.842 23.57c-.238-.207-.766-.046-1.148-.124-2.963-.6-4.482-2.706-4.105-5.713.088-.712.229-1.428.432-2.118.74-2.513 1.568-5.003 2.266-7.529.506-1.828-.402-3.302-1.93-3.973-1.611-.708-2.893.267-3.701 1.784-.26.49-.557.979-.928 1.389-3.301 3.654-6.363 7.582-10.023 10.837-2.732 2.432-6.152 4.169-9.441 5.878-2.414 1.254-3.742.202-3.461-2.479.109-1.07.619-2.134 1.107-3.124 2.936-5.977 7.396-10.72 12.396-14.987.85-.724 2.023-1.067 3.127-1.626l1.252 2.385c.709.109 1.398.192 2.078.325 2.199.429 2.818-.052 2.834-2.238.023-3.111-2.24-5.982-5.701-7.229-2.609-.941-5.561.208-7.852 2.753-5.43 6.027-9.562 12.906-13.436 19.971-2.408 4.394-1.744 6.021 1.039 10.322 1.189 1.839 2.979 2.271 5.055 1.795 4.271-.977 8.1-2.583 11.146-6.016 2.07-2.334 4.725-4.15 7.441-6.476.383 1.014.707 1.651.865 2.328 1.143 4.871 5.229 7.744 10.289 7.067.82-.11 1.568-.763 2.35-1.166-.642-.688-1.242-1.426-1.951-2.036zm104.867-21.264c.668 1.056 1.936 2.137 1.893 3.163.043-1.027-.844-3.163-1.893-3.163zm1.893 3.163c.043-1.026-1.225-2.107-1.893-3.163-.91.579-2.303.959-2.639 1.774-.963 2.345-2.043 4.852-2.107 7.32-.238 9.424-.096 18.857-.096 27.479-.492 3.128-.988 5.396-1.186 7.691-.559 6.482-2.943 12.23-6.834 17.365-.641.846-1.824 1.281-2.758 1.908-.455-1.143-1.098-2.25-1.318-3.436-.273-1.467-.037-3.031-.34-4.488-.146-.711-.936-1.656-1.578-1.785-.553-.111-1.748.676-1.891 1.256-.434 1.773-.758 3.654-.656 5.467.25 4.381 1.912 8.115 5.447 10.984 1.203.977 2.039.811 2.871-.074 1.416-1.504 2.795-3.064 4.018-4.727 3.873-5.26 6.977-11.01 8.244-17.4 1.664-8.392 1.76-16.96 1.553-25.513-.09-3.801-.205-7.614.01-11.403.176-3.098 1.026-6.16 1.153-9.255zm-208.692-13.025c-1.76-.653-3.463-.831-4.594 1.184-1.779 3.176-3.266 6.585-5.463 9.444-3.248 4.226-6.951 8.112-10.588 12.024-1.193 1.28-3.1.733-3.223-.963-.25-3.388-.504-6.885.066-10.195.629-3.657.699-4.602-2.957-7.519-.709 2.006-1.633 3.764-1.93 5.622-.768 4.781-1.539 9.486-.58 14.482.82 4.272 5.67 7.709 9.211 5.164 2.383-1.713 4.113-4.322 6.172-6.498.842-.888 1.775-1.689 2.988-2.834.824 3.475 1.34 6.031 2.045 8.534.992 3.508 3.342 5.715 6.951 6.306.814.133 1.76-.542 2.645-.844-.496-.808-.877-1.73-1.521-2.393-.805-.826-2.496-1.324-2.641-2.164-.559-3.239-1.455-6.744-.742-9.805 1.273-5.479 3.615-10.711 5.523-16.042.568-1.58.326-2.876-1.362-3.503zm328.09 22.464c.73-1.495 1.441-3.014 1.971-4.586.549-1.625.932-3.365-1.107-4.372-2.127-1.051-3.928.228-4.697 1.701-2.967 5.678-8.311 8.505-13.373 11.604-1.803 1.102-4.195 1.343-6.363 1.67-.535.081-1.885-1.224-1.781-1.574.658-2.25 1.076-4.95 2.6-6.48 2.605-2.618 5.787-4.831 9.082-6.522 1.627-.835 4.049-.171 6.107-.102 1.057.036 2.109.256 3.162.393-.119-1.192.172-2.678-.434-3.522-2.371-3.305-8.199-4.51-11.484-2.03-5.525 4.171-11.082 8.484-13.709 15.281-.6 1.549-1.275 3.39-.971 4.905.879 4.369 5.275 6.298 10.002 5.12 4.008-1 7.223-3.243 10.387-5.672 2.688-2.062 3.094-2.017 5.158.669 2.24 2.916 6.43 3.151 9.512.208-.787-.548-1.451-1.167-2.234-1.527-2.625-1.21-3.103-2.555-1.828-5.164zm-82.425 4.726c.895-2.448 1.717-4.922 2.365-6.788-.016-2.324-.365-3.238-1.551-3.738-.293-.122-1.934-.561-2.006-.569-1.316-.15-3.061 2.781-4.418 5.225-2.246 4.04-5.65 6.918-9.973 8.56-2.496.948-4.793-.847-4.635-4.351.016-3.06 2.76-5.767 4.625-8.892.404-.677.809-1.362 1.129-2.081 1.039-2.329 3.279-3.73 5.768-3.443.471.055 1.088.42 1.301.822l.24.5.045.103.195.493.041.114.162.458.189.537.041.112.199.522.021.052.211.465.043.089c.08.159.168.315.264.469l.064.098c.908 1.367 1.611.719 1.695.358.107-.456.092-1.262-.461-2.495-.215-.664-.844-3.438-.854-3.803-.111-3.843-3.021-5.604-6.318-3.65-1.766 1.046-3.387 2.406-4.875 3.83-4.617 4.416-8.441 9.189-9.088 16.026-.514 5.452 5.365 11.669 11.162 9.187 1.457-.624 2.873-1.388 4.195-2.26 1.758-1.158 3.09-1.316 4.312.773 1.408 2.41 3.75 3.463 6.473 3.428.732-.009 2.004-.665 2.062-1.145.109-.868-.232-2.158-.871-2.688-2.594-2.156-2.932-3.085-1.752-6.318zm124.634-8.545c-3.713-3.31-8.439-2.408-12.758-3.099-2.186-.344-4.389-.614-6.549-1.076-.617-.133-1.551-.804-1.568-1.257-.025-.638.512-1.625 1.084-1.906 3.643-1.795 7.303-3.59 11.094-5.021.895-.338 2.605.415 3.42 1.204.98.95 1.877 1.541 2.773.545.572-.636.896-2.12.541-2.828-.576-1.149-1.777-2-2.758-2.93-2.414-2.285-7.328-2.628-9.92-.639-3.479 2.671-6.861 5.468-10.375 8.089-1.643 1.225-2.545 2.693-2.205 4.686.383 2.247 1.475 4.265 3.881 4.657 3.836.625 7.758.729 11.588 1.377 1.572.266 3.004 1.372 4.5 2.096-1.318.849-2.598 2.345-3.957 2.422-4.004.229-5.873 2.9-7.578 5.808-.416.708-.426 2.249.059 2.749.689.713 2.201 1.378 3.025 1.094 6.598-2.278 12.281-5.949 16.477-11.671 1.261-1.722.738-2.954-.774-4.3zm-227.84-6.319c-.568-.886-1.412-2.079-2.273-2.214-4.48-.705-9.107-2.113-13.104 1.644-.961.904-2.238 1.574-3.484 2.039-.848.315-2.115.452-2.816.034-2.469-1.475-3.512-1.018-4.094 1.826-.797 3.898-1.795 7.755-2.707 11.63-.217.93-.52 1.851-.623 2.794-.215 1.947 1.799 4.325 3.727 4.509 1.979.191 3.191-1.119 3.693-3.553.414-2.011 1.066-3.979 1.727-5.929 1.475-4.351 5.152-6.807 8.619-9.24 1.357-.954 3.877-1.329 5.326-.706.998.428 1.656 3.12 1.416 4.634-.453 2.869-1.557 5.659-2.592 8.405-.871 2.306-.326 6.145 1.648 7.501 1.98 1.361 4.072.954 6.355-.784-2.367-3.218-1.131-6.312-.256-9.628 1.128-4.276 2.114-8.784-.562-12.962zm150.918-6.121c-1.125-.293-2.801-.036-3.697.672-2.115 1.665-3.912 3.737-5.834 5.647-2.875 2.855-5.748 5.712-8.623 8.568l-.818-.288c-.127-.894-.336-1.786-.367-2.684-.121-3.421-.031-6.861-.385-10.255-.084-.794-1.629-2.031-2.447-1.99-.889.045-2.342 1.258-2.457 2.11-.471 3.47-.654 6.995-.689 10.503-.029 2.94.205 5.893.494 8.824.184 1.876.514 3.775 1.076 5.569.709 2.257 3.973 2.622 5.301.459 2.541-4.137 5.311-8.145 8.18-12.064 2.689-3.675 5.568-7.167 9.883-9.225 1.131-.54 2.098-2.113 2.41-3.39.159-.659-1.144-2.226-2.027-2.456zm143.846-9.584c-3.486 2.333-6.664 5.149-9.852 7.902-1.496 1.292-2.764 2.537-4.613.652-.807-.823-1.732-2.068-2.898-1.062-.895.771-1.621 2.104-1.799 3.282-.869 5.738-1.689 11.495-2.139 17.276-.107 1.372 1.084 3.026 2.078 4.218.428.513 2.354.606 2.76.147 1.141-1.287 2.438-2.898 2.604-4.493.48-4.608 2.293-8.791 4.688-12.423 3.768-5.716 8.471-10.782 14.49-14.397.721-.432 1.119-1.402 1.701-2.17-3-1.695-5.213-.139-7.02 1.068zm-32.043 23.663c-4.424.924-8.816 2.152-13.287 2.646-3.098.343-5.252-2.865-4.367-5.917.492-1.698 1.531-3.232 2.127-4.909 1.479-4.161 6.01-6.541 10.287-5.395.721.193 1.568-.082 2.355-.14l-.361-.7c-.416-.877-.697-1.862-1.289-2.599-.572-.714-1.467-1.646-2.213-1.641-1.385.01-2.812.511-4.143 1.021-5.275 2.029-8.896 5.859-11.182 10.915-.893 1.971-1.934 4.227-1.76 6.254.357 4.202 4.936 7.632 9.199 7.997 7.205.617 12.924-2.785 18.557-6.501.477-.315.701-1.012 1.045-1.531-1.917-.166-3.44.181-4.968.5zm49.012-10.229c-.561-.608-1.318-1.226-1.824-1.832-.439.488-1.062.938-1.49 1.43l-.17.213c-.139.192-.24.393-.285.604-1.125 5.354-2.049 10.751-3.039 16.134l-.486 2.631c.096.281.217.803.445 1.271.701 1.445 2.082 2.553 3.416 1.839 1.188-.636 2.385-2.262 2.564-3.588.779-5.741 1.332-11.523 1.598-17.309.012-.259-.086-.522-.252-.789-.128-.199-.292-.401-.477-.604zm-250.348-22.566c-1.451-.995-3.664-2-5.162.033 1.498-2.033 3.295-.506 5.162-.033zm-1.929 6.165c2.326-1.403 1.754-3.811 1.93-6.165-1.867-.473-3.664-2-5.162.033-1.676 2.272.719 3.587 1.623 5.19.275.49 1.339 1.104 1.609.942zm258.755-1.897l-2.781 1.432c.404.695.756 1.429 1.227 2.076.461.636 1.004 1.228 1.58 1.764 1.207 1.124 2.746.978 3.635-.03.49-.556.289-2.362-.275-3.052-.817-.999-2.245-1.495-3.386-2.19zm-222.115 20.78l.195.493"/><path d="M326.404 157.45l.021.052"/><path d="M325.291 154.611l.24.5"/><path d="M326.943 158.524l.064.098"/><path d="M326.68 158.055l-.043-.089"/><path d="M325.812 155.821l.162.458"/><path d="M326.164 156.815l.041.112"/><path d="M327.352 159.089l-.012-.014.004.007.008.007z"/></g><path d="M356.079 291.819c-.256 3.764-.383 6.928-.719 10.068-.227 2.123-1.189 4.096-3.645 3.928-2.113-.143-2.922-1.951-3.055-3.955-.045-.664-.021-1.332-.037-1.998-.072-2.957-.271-4.49-3.826-2.006-4.971 3.477-10.174 6.311-16.869 6.439-5.801.113-8.705-3.086-10.027-7.096-1.818-5.516-3.145-3.467-5.336-.676-2.812 3.582-6.662 5.502-11.033 6.256-6.121 1.059-10.172-3.262-8.486-9.25 2.588-9.199 9.109-15.582 16.182-21.48 1.598-1.332 3.512-.658 5.299-.799 1.711-.135 3.109.457 3.277 2.227.164 1.73-1.213 2.318-2.707 3.021-7.641 3.598-11.561 10.504-15.096 17.666-.238.48-.164 1.453.174 1.809.836.875 1.918.244 2.766-.115 5.213-2.209 8.855-6.291 12.262-10.6 1.02-1.287 1.785-2.773 2.719-4.133 1.008-1.467 1.809-3.566 4.119-2.791 2.49.836 2.791 3.047 2.588 5.357-.234 2.643-1.166 5.174-.924 7.906.541 6.131 3.736 8.486 8.939 5.443 6.344-3.711 14.234-6.221 15.414-15.422.182-1.412 1.264-3.709 3.752-3.176 1.943.416 1.873 1.908 2.314 3.643.871 3.431 3.092 6.529 1.955 9.734zm46.399-8.182c-.98-.33-2.029-.605-2.865.133-4.223 3.729-8.682 7.232-11.604 12.215-.551.938-.951 1.891-.475 2.799.766 1.463 2.244.646 3.096.303 4.176-1.682 8.07-3.867 10.705-7.727.941-1.377 1.736-2.918 3.857-2.438 2.152.488 2.814 2.203 3.238 4.014.82 3.51.76 7.186 3.361 10.254 1.449 1.711-.424 2.793-1.994 2.787-2.539-.01-4.98-.635-6.355-3.176-1.537-2.838-3.621-2.883-6.211-1.398-2.314 1.326-4.816 2.373-7.49 2.646-5.977.613-12.072-3.041-7.961-10.096 4.574-7.85 10.748-14.211 20.068-16.398 3.002-.705 3.742 1.465 3.846 3.836.1 2.289-1.152 2.93-3.216 2.246zm-33.43-3.41c-.875-10.246-.49-20.482-.043-30.719.035-.828.012-1.711.293-2.465.689-1.852 1.432-4.16 3.861-3.795 2.041.307 1.781 2.562 1.828 4.145.342 11.598.277 23.184-.402 34.781-.348 5.936.188 11.928.422 17.893.105 2.725-.504 5.646-3.303 5.789-2.98.15-2.83-2.662-2.738-5.219.242-6.795.082-13.605.082-20.41zm147.646-26.135c-1.305-6.93 2.809-9.451 6.121-11.805 8.018-5.697 20.879.705 21.373 10.41.086 1.668-.703 3.234-1.988 4.434-7.689 7.18-16.768 12.211-26.197 17.518-.654-4.438 1.082-6.904 4.295-8.617 4.863-2.592 9.168-5.998 13.463-9.395 1.844-1.459 3.531-3.314 2.742-5.924-.701-2.316-2.92-2.9-5.008-3.635-6.555-2.31-10.633 1.442-14.801 7.014zm-254.261 21.147c2.805.75 3.986 2.449 4.555 4.982.525 2.342.141 5.979 2.609 6.514 2.609.566 3.295-3.184 4.877-4.973 3.527-3.984 6.826-8.168 10.312-12.191.85-.98 1.988-1.768 3.123-2.424 1.088-.633 2.396-.438 3.236.443.768.805.389 1.932-.199 2.777-1.889 2.725-4.004 5.305-5.73 8.125-3.291 5.373-6.402 10.855-9.535 16.324-3.412 5.959-6.557 6.105-10.105.428-2.869-4.584-3.939-9.855-5.648-14.875-.831-2.435.618-3.997 2.505-5.13zm198.828 10.496c-.254-12.398 3.076-25.375 7.707-38.102.455-1.252.666-2.928 2.504-2.287 1.438.5 1.594 2.049 1.369 3.41-1.182 7.207-2.096 14.479-3.719 21.588-1.861 8.156-2.082 16.432-2.799 24.68-.115 1.322.09 2.73-.307 3.951-.443 1.369-1.146 3.014-2.969 2.945-2.312-.086-1.73-2.057-1.758-3.416-.081-3.826-.028-7.658-.028-12.769zm-299.127-15.231c-2.768 1.904-5.053 3.195-7.006 4.875-3.908 3.361-3.672 6.045.455 9.176 1.311.994 2.533 2.119 3.713 3.271 2.811 2.744 4.887 6.057 2.129 9.635-2.543 3.301-6.51 4.301-10.721 3.67-.82-.123-1.805-.295-1.967-1.219-.195-1.111.713-1.729 1.547-2.326 5.773-4.148 5.791-4.668.4-9.07-5.414-4.422-6.715-8.496-4.189-13.121 2.887-5.285 8.094-7.109 15.639-4.891zm-23.846 2.172c-1.178 7.576-2.336 15.764-3.793 23.898-.391 2.178-2.127 4.211-4.594 3.518-2.449-.689-1.191-3.135-.973-4.756.861-6.396 1.91-12.768 2.92-19.143.26-1.635.502-3.293.986-4.869.49-1.588 1.217-3.33 3.369-2.873 1.837.391 1.845 2.094 2.085 4.225zm380.313 29.641c-.102-4.828 2.66-7.385 7.711-7.59 2.375-.098 3.402.598 3.324 2.992-.152 4.74-3.721 9.359-7.252 9.289-2.399-.047-3.721-1.685-3.783-4.691zm-165.748-46.775c-2.727-.158-5.654-.965-5.42-4.168.17-2.348 1.398-5.287 4.566-5.674 2.863-.35 7.771 3.34 7.443 5.443-.576 3.695-3.183 4.647-6.589 4.399zm-219.014 8.701c-1.619-.154-3.848-1.143-3.893-3.434-.033-1.73 1.379-4.201 3.602-3.965 2.074.223 4.967.979 4.932 3.824-.024 1.948-1.506 3.645-4.641 3.575zm313.424 18.332c-4.992-1.893-9.502.17-13.67 2.475-2.594 1.436-3.586.949-3.066-1.627 2.301-11.432.672-23.65 6.727-34.32 1.447-2.553-.391-3.779-1.898-4.846-2.004-1.42-3.006.383-3.74 1.869-.877 1.773-1.926 3.598-2.219 5.502-2.236 14.576-4.307 29.178-6.252 42.553-.229 4.982.723 8.189 4.146 10.166 3.707 2.143 5.922-.723 8.17-2.795 4.154-3.83 8.555-7.328 13.066-10.721 4.249-3.196 3.732-6.362-1.264-8.256zm-11.168 10.095c-.65.584-1.617.816-2.391 1.184-.713-1.025-.65-1.807-.141-2.525 1.424-2.012 2.898-4.002 5.605-4.318.625-.074 1.574.119 1.467.881-.364 2.595-2.902 3.304-4.54 4.778zm-184.68 7.342c-4.137-2.5-4.293-6.391-3.916-11.695 1.367-3.799-2.061-7.932-2.707-12.588-.566-4.09-5.084-5.217-8.619-2.857-7.057 4.711-11.004 11.848-14.291 19.285-1.033 2.34-1.348 5.424 1.324 7.785 2.918 2.576 5.754 2.084 8.678.41 2.592-1.484 5.178-3.016 7.576-4.787 2.18-1.611 3.324-1.191 3.596 1.381.334 3.164 2.729 4.832 4.648 6.848 1.273 1.338 2.705 1.162 3.973-.004 1.418-1.309 1.248-2.866-.262-3.778zm-11.184-17.109c-2.25 5.871-6.57 9.768-13.066 13.363 2.484-6.732 5.078-11.814 9.609-15.682.926-.789 1.971-2.24 3.387-.957.979.889.496 2.161.07 3.276zm265.53 14.293c-1.617-2.299-2.99-.406-4.043.51-1.375 1.199-2.76 1.74-4.314 1.506-5.67-.027-7.959-3.732-5.451-8.549 1.861-3.578 4.785-6.352 7.291-9.438 1.031-1.27 2.916-2.57 1.912-4.146-.969-1.52-2.602-2.932-4.893-2.953-6.361-.064-12.34 5.281-12.551 11.758-.096 2.896-.795 5.197-3.096 6.961-1.242.951-1.822 2.24-2.238 3.752-.297 1.07-.471 2.041.338 2.73.93.795 2.039.109 2.639-.539 2.154-2.334 3.193-1.242 4.924.773 4.873 5.672 12.682 6.225 17.818 1.557 1.078-.981 3.181-1.77 1.664-3.922zm-11.276-18.131c-.672 3.789-3.93 4.768-6.289 6.605.826-3.211 1.725-6.443 6.289-6.605z" fill-rule="evenodd" clip-rule="evenodd" fill="#126D8F"/><path d="M406.814 43.049c-4.805-2.163-8.189-1.226-11.855 3.017-2.057 2.38-3.146 5.627-6.006 7.235-1.943 1.095-4.074 3.736-6.066 2.38-1.471-1-.377-3.912.27-6.059.828-2.745-.021-5.354-2.701-6.858-2.439-1.369-4.391-.026-6.309 1.447-2.344 1.799-3.83 4.577-7.25 6.136-.66-2.132-.32-4.083-1.848-5.477-1.951-1.779-3.322-1.722-3.756.987-.836 5.236-1.547 10.5-2.074 15.776-.205 2.04-.631 4.562 2.262 5.396 2.883.83 4.314-1.353 5.596-3.199 1.865-2.688 3.26-5.701 5.104-8.406 1.043-1.529 1.467-4.465 3.865-3.922 2.645.6 1.15 3.345 1.246 5.073.441 7.96 1.414 8.501 8.363 4.236.988-.606 2.08-1.044 3.074-1.643 1.611-.97 2.953-.935 3.365 1.138.963 4.834 4.578 5.133 8.41 5.091 5.371-.06 14.287-6.06 14.836-9.941.607-4.292-3.373-10.086-8.526-12.407zm-7.037 17.648c-3.268-.848-3.75-4-3.857-6.717-.119-3.008 4.58-7.018 7.859-6.69 2.449.929 5.627 1.883 5.486 5.91-.091 2.688-6.884 8.172-9.488 7.497zm-68.371-19.203c5.203-4.775 10.48-9.474 15.57-14.366 1.893-1.819 3.516-2.456 5.473-.409 2.439 2.549-.576 3.372-1.656 4.593-3.613 4.082-8.574 6.75-11.631 11.497-2.908 4.518-2.889 6.053 2.035 8.947 4.025 2.366 8.057 4.587 11.189 8.191 1.078 1.24 2.275 2.198.787 3.688-1.422 1.425-2.52-.08-3.363-.888-4.039-3.869-9.33-5.724-13.855-8.805-4.035-2.746-6.176-2.193-8.387 2.107-.975 1.893-1.564 3.997-2.191 6.046-.363 1.184-.721 2.369-2.148 2.297-1.367-.068-1.783-1.427-2.219-2.439-1.352-3.138-.262-6.324.436-9.317 2.793-11.981 4.662-24.125 6.885-36.208.502-2.731.438-7.554 3.828-6.999 3.914.641 2.174 5.16 1.762 8.111-1.086 7.814-2.35 15.604-3.545 23.402l1.03.552zm224.235.241c2.602-2.042 4.564-3.785 6.723-5.238 4.244-2.855 9.225-1.109 10.834 3.728 1.338 4.024 1.49 8.179.736 12.312-.547 2.993-.352 5.97-.361 8.959-.006 1.366 2.078 3.567-1.025 3.735-1.979.106-3.732-.902-4.307-3.354-.943-4.023-.379-7.971.34-11.879.594-3.234 1.225-7.425-1.449-8.716-2.92-1.409-5.494 2.321-7.314 4.692-2.51 3.269-4.271 7.099-6.604 10.516-1.361 1.992-3.07 4.813-5.879 3.425-2.459-1.216-2.348-4.352-1.611-6.736 3.865-12.516 5.016-25.711 9.609-38.034.289-.772.432-1.606.777-2.35.695-1.501 1.27-3.217 3.586-2.464 2.254.732 1.955 2.381 1.525 4.058-1.809 7.043-3.584 14.095-5.508 21.105-.502 1.831-.598 3.567-.072 6.241zm-503.809 16.394c5.037-5.965 6.182-12.582 8.484-18.657.768-2.023.754-5.635 3.607-4.662 2.238.764 2.873 3.857 1.75 6.939-2.377 6.521-4.264 13.223-6.219 19.89-.438 1.492-1.137 2.736-2.025 3.945-3.77 5.127-6.99 5.047-9.27-.831-1.715-4.418-3.223-3.491-5.648-.942-1.482 1.56-3.049 3.079-4.764 4.369-2.859 2.151-6.025 1.241-6.227-2.217-.467-8.09-2.281-16.257.115-24.314.547-1.843.74-4.981 3.775-4.071 2.543.764 2.379 3.421 1.639 5.566-1.613 4.668.994 9.214-.393 14.377 4.002-1.082 4.914-5.381 8.406-5.723 3.963-.387 6.186 1.629 6.77 6.331zm489.432-17.942c-1.004 7.74-5.127 13.811-10.344 19.283-1.332 1.399-2.336.509-3.266-.613-1.916-2.316-3.625-4.722-4.297-7.753-.682-3.067-2.244-3.55-4.346-1.12-3.07 3.552-6.809 6.345-10.492 9.165-3.701 2.834-6.086 2.328-7.459-1.915-3.002-9.273-.127-18.258 2.152-27.194.268-1.048 1.352-2.116 2.719-1.474 1.809.851 2.789 2.313 2.336 4.442-.822 3.875-1.588 7.764-2.484 11.622-.641 2.765-1.672 6.558.451 7.866 2.336 1.439 4.053-2.388 6.029-3.913.906-.697 1.578-1.7 2.34-2.579 5.859-6.757 8.521-6.68 12.908.866 1.689 2.905 2.484 2.191 3.938.012 1.865-2.797 2.953-5.879 3.748-9.076.48-1.937.65-4.56 3.123-4.236 2.359.31 2.932 2.828 2.943 5.121l.001 1.496zm-316.944-14.628c.311 3.37-1.672 8.286 1.189 9.744 2.787 1.421 6.379-2.321 9.264-4.273 2.115-1.434 4.188-2.173 6.463-1.7 1.736.359 4.299.778 3.455 3.686-.654 2.256-1.508 4.271-4.748 3.813-8.246-1.161-16.203 5.735-16.691 14.049-.234 3.966-1.148 7.886-.836 11.895.234 3.012-1.203 4.479-4.16 3.979-3.26-.552-3.289-3.301-2.531-5.449 1.242-3.52 1.752-6.983 1.74-10.702-.012-3.87-1.477-3.855-4.123-2.191-.141.088-.279.183-.428.256-2.072 1.018-4.777 3.915-6.299 1.312-1.385-2.371 2.273-4.088 4.277-5.148 6.332-3.348 8.061-8.759 7.932-15.355-.068-3.484.24-6.975.326-10.464.061-2.465 1.016-4.565 3.635-4.345 2.303.194 2.242 2.575 2.154 4.409-.103 2.153-.402 4.3-.619 6.484zm204.088 29.587c2.498-1.543 3.578-3.601 5.014-5.334 3.486-4.206 6.557-3.731 8.893 1.375.742 1.62.965 4.002 3.176 3.835 1.871-.142 2.729-2.206 3.508-3.866 2.111-4.506 3.865-9.137 4.832-14.039.26-1.319.494-2.865 2.256-2.75 1.627.107 1.869 1.717 2.199 2.935 2 7.354-2.254 19.098-8.611 23.12-2.355 1.49-4.645-.135-6.762-1.371-6.639-3.878-6.643-3.87-12.357 1.58-.604.574-1.23 1.122-1.818 1.71-1.453 1.457-3.059 2.948-5.215 1.881-1.994-.986-2.361-3.093-2.23-5.16.334-5.294.617-10.597 1.18-15.868.203-1.911.799-4.685 3.029-4.55 1.816.11 2.621 2.816 2.779 4.704.234 2.801-.092 5.646-.127 8.474-.013.934.135 1.871.254 3.324zm-292.73-12.559c-1.443-.421-3.537.86-4.209-1.468-.416-1.444.346-2.898 1.723-3.216 9.451-2.175 7.996-10.15 9.01-16.765.453-2.951.484-5.964.842-8.932.236-1.969.652-4.663 3.133-4.132 2.355.504 3.404 2.862 2.588 5.576-1.555 5.166-1.162 10.521-1.549 15.809-.264 3.592 1.137 3.991 3.93 3.278 2.414-.617 4.807-1.321 7.225-1.923 1.664-.413 3.637-.707 4.373 1.183.922 2.366-1.535 2.529-2.867 3.2-3.549 1.786-7.672 1.821-11.217 3.918-2.543 1.504-3.445 3.22-3.396 6.009.082 4.659-.01 9.328-.221 13.983-.072 1.569-.156 3.742-2.293 3.889-1.906.131-2.729-1.766-3.312-3.285-.99-2.581-.748-5.34.086-7.858.654-1.979.529-3.911.73-5.876.391-3.815-1.576-4.242-4.576-3.39zm-11.198 9.598c-.107 2.642-.607 5.26 2.867 6.579 1.602.608 1.26 2.443.283 3.849-1.1 1.586-2.361 2.264-4.18 1.063-3.15-2.081-3.85-5.16-3.629-8.647.082-1.283.449-3.095-.705-3.589-1.686-.72-2.508 1.122-3.336 2.3-2.471 3.513-4.811 7.12-7.359 10.574-.908 1.23-2.121 3.142-3.98 1.483-1.441-1.285-4.133-2.264-2.715-5.112 2.092-4.206 2.861-8.746 3.789-13.291.896-4.386 2.963-4.964 6.295-1.721 1.338 1.305 1.826 1.467 3.541.582 6.346-3.277 9.157-1.346 9.129 5.93zm516.651 10.635c-1.717-3.437-2.793-7.057-4.006-10.67-.729-2.173-1.477-4.561-3.777-6.197-4.586-3.263-7.258.198-10.578 2.185-.896.536-2.107 3.525-3.264 1.069-1.881-4-3.449-1.474-4.398.043-5.322 8.52-14.344 10.124-22.898 12.644-2.668.785-4.775-.181-6.795-2-2.213-1.99-2.129-3.51.303-5.099 3.053-1.993 6.014-4.135 9.125-6.029 4.699-2.86 4.996-4.669-.361-8.889-1.723-1.357-3.705-1.178-5.678-.434-5.35 2.016-11.277 10.776-11.197 16.583.082 5.909 7.656 11.294 14.615 10.381 4.834-.635 9.225-2.714 13.75-4.336 1.256-.451 2.172-1.414 3.326.312 2.785 4.163 5.674 2.678 8.568-.035 3.039-2.849 4.982-6.695 8.439-9.155 2.402-1.709 4.123-2.293 5.369 1.465 1.191 3.594 3.16 6.947 4.939 10.325.949 1.805 2.754 2.792 4.609 1.799 1.907-1.023.481-2.82-.091-3.962zm-53.313-18.453c.682-1.051 1.883-1.618 2.936-.825 1.273.959.945 2.433.035 3.464-1.318 1.493-3.211 2.014-6.123 2.916 1.408-2.507 2.199-4.085 3.152-5.555zm-487.783 18.762c-.684-1.462-2.023-.444-3.096-.308-4.992.299-7.318-2.334-5.961-7.527 1.391-5.318 3.988-10.589-2.881-14.118-.25-.128-.334-.561-.516-.838-2.844-4.378-5.318-4.512-8.988-.547-3.52 3.804-5.9 8.317-7.928 12.999-1.33 3.075-2.172 6.253.529 9.298 2.871 3.236 7.121 3.559 10.01 2.225 3.877-1.789 5.996-.585 8.682 1.529 2.627 2.067 5.609 3.17 8.496.519.827-.758 2.345-1.75 1.653-3.232zm-21.191-3.34c-2.076 1.021-3.58 1.122-3.473-1.844.133-3.598 4.021-10.33 7.373-12.816 2.526 7.447 1.266 12.12-3.9 14.66zm176.767-19.878c-3.74.575-7.467 1.368-11.113 2.38-4.348 1.207-8.301 6.674-7.705 10.212.707 4.219 4.43 7.064 9.371 7.167 5.105.595 17.059-6.54 19.168-9.88.33-.521.783-1.169.719-1.702-.451-3.705-6.737-8.746-10.44-8.177zm2.573 8.766c-3.592 4.095-8.385 5.358-13.781 5.688 1.588-5.554 7.207-9.36 12.359-9.058 3.207.188 2.894 1.691 1.422 3.37z" fill-rule="evenodd" clip-rule="evenodd" fill="#126D8F"/></svg>