<svg xmlns="http://www.w3.org/2000/svg" width="787.925" height="216.392"><path d="M464.374 54.166c-.062 4.373-1.367 8.139.38 11.903.683 1.472-.587 2.654-1.802 3.378-1.504.895-3.177.735-4.527-.333-1.968-1.553-3.193-3.528-2.828-6.159.268-1.943.475-3.895.758-5.836.642-4.41-.332-8.356-3.257-11.854-.963-1.153-1.811-1.565-3.333-.975-4.193 1.623-7.569 4.339-10.914 7.186-5.43 4.624-9.479 10.36-13.765 15.907-1.602 2.074-3.624 2.997-6.017 1.89-2.516-1.165-3.029-3.978-1.791-6.914 1.616-3.83 1.749-8.031 3.153-11.956 1.116-3.121 1.837-6.399 2.946-9.55.354-1.007.777-2.056.512-3.164-.307-1.271-.581-2.157-2.4-1.219-2.01 1.037-4.293 1.629-6.516 2.197-1.521.388-2.85.937-3.885 2.087-.883.981-1.932 1.273-3.255 1.027-1.075-.199-2.192-.198-3.292-.257-5.186-.274-7.311 1.355-8.13 6.465-.606 3.793-1.404 7.477-3.112 11.001-.772 1.597-.918 3.744.281 5.329 1.51 1.996.897 3.694-.317 5.345-.955 1.297-2.217 2.453-4.073 1.898-2.26-.675-3.873-2.084-4.258-4.483-.627-3.926.445-7.654 1.807-11.245 1.142-3.008 1.43-6.098 1.79-9.21.256-2.21-.284-3.353-2.988-2.783-2.838.599-5.759.886-8.659 1.107-1.747.134-3.946.411-4.213-2.128-.225-2.15 1.492-2.539 3.267-3.056 4.217-1.232 8.395-2.522 12.785-3.098 1.907-.25 2.712-1.881 3.222-3.532.64-2.066 1.481-4.12 1.749-6.238.697-5.486 3.136-10.538 3.932-15.988.276-1.895 1.479-3.094 3.49-2.977 1.862.109 3.533.733 4.104 2.831.54 1.985.372 3.898-.367 5.782-1.978 5.044-3.144 10.316-4.515 15.527-.767 2.917-.033 3.52 3.006 3.079 7.148-1.037 14.26-2.186 21.152-4.417 1.138-.369 2.047-.669 2.44-1.852 1.272-3.816 3.225-7.393 4.135-11.342.857-3.707 3.233-6.74 4.935-10.067.899-1.763 2.764-1.938 4.48-1.093 2.001.986 2.563 2.807 1.84 4.748-2.199 5.886-4.425 11.771-6.905 17.549-.941 2.194-1.719 4.46-2.185 6.703-.764 3.675-2.899 6.886-3.351 10.622-.11.906-1.15 1.885.046 2.644 1.179.749 1.77-.57 2.553-1.027 5.158-3.013 9.6-7.04 14.982-9.784 5.572-2.842 10.658-.648 13.593 4.687 2.212 4.021 3.038 7.955 3.317 11.645zm-182.549 122.099c1.045-3.8 2.221-8.145 3.438-12.477 1.056-3.755.842-4.103-3.204-3.773-2.721.221-5.346.484-7.829-1.074-1.175-.737-2.324-1.329-1.886-2.92.444-1.612 1.643-2.641 3.305-2.47 3.836.397 7.297-.895 10.884-1.797 2.263-.568 3.47-1.843 4.075-3.863 1.893-6.311 3.882-12.597 5.59-18.956 1.033-3.848 2.758-7.352 4.717-10.773.576-1.006 1.701-2.26 2.867-1.282 1.302 1.092 4.007 1.625 3.173 4.091-1.1 3.254-1.741 6.623-3.142 9.816-2.451 5.584-3.801 11.53-4.998 17.485-.253 1.259.389 1.947 1.697 1.684 1.57-.316 3.244-.537 4.629-1.25 4.207-2.162 8.407-3.629 13.299-2.414 1.699.422 2.597-1.113 3.135-2.617 1.121-3.135 2.386-6.224 3.417-9.386 1.554-4.758 4.441-8.8 7.052-12.996 1.156-1.862 2.281-1.477 3.502-.002 2.035 2.458 2.236 4.781.659 7.739-2.779 5.211-4.799 10.779-6.882 16.303-.771 2.044-.4 2.853 1.86 2.212 4.037-1.146 8.214-.48 12.313-.923 2.235-.241 3.997 1.661 5.943 2.65.968.491.32 1.19.055 1.767-.416.91-.872 1.795-2.15 1.738-6.029-.269-11.736 1.366-17.528 2.67-4.562 1.028-6.878 3.691-8.364 7.87-1.38 3.874-3.46 7.5-4.256 11.606-.174.907-.832 1.807-1.479 2.528-1.119 1.245-1.814 3.352-4.227 2.505-1.885-.661-3.398-3.902-3.164-6.065.349-3.225 1.485-5.985 3.586-8.564 1.266-1.55 3.124-3.708-.678-5.196-1.473-.577-1.68-2.5-1.215-4.199.492-1.797.093-2.324-1.951-1.515-3.346 1.32-6.823 2.333-10.283 3.357-1.565.463-2.758 1.117-3.159 2.781-1.033 4.296-2.983 8.366-3.494 12.779-.335 2.893-2.084 5.257-2.761 8.015-.289 1.18-1.435 2.1-2.791 1.725-1.941-.536-3.291-1.874-3.729-3.861-.165-.75-.026-1.564-.026-2.948zm-242.304-118.419c.472-5.979.899-11.415 1.33-16.852.085-1.076.378-2.312-1.067-2.709-1.341-.368-2.797-.125-3.531 1.068-2.833 4.607-7.322 7.641-11.055 11.39-3.566 3.584-7.107 7.192-10.688 10.764-.698.697-1.451 1.398-2.311 1.872-1.713.944-3.691.952-5.146-.192-1.541-1.212-2.08-3.293-1.464-5.107 1.506-4.439 1.771-9.293 4.626-13.293 1.848-2.592.658-5.929 2.314-8.684 3.738-6.225 4.179-13.933 9.155-19.669.606-.699.438-2.065.568-3.13.124-1.023.381-1.891 1.468-2.375 1.709-.763 3.533-1.444 5.06-.018 1.53 1.43 1.089 3.63.198 4.947-2.729 4.031-3.432 8.739-5.141 13.094-1.828 4.653-3.293 9.441-4.96 14.156-.25.707-.485 1.383.238 1.832.69.431 1.345.001 1.922-.433 6.442-4.843 13.095-9.441 18.644-15.32 1.769-1.874 3.568-3.721 5.275-5.646 1.854-2.089 4.019-2.018 6.277-.925 2.149 1.041 1.93 2.902 1.654 4.857-.488 3.49-1.529 6.845-2.58 10.176-.953 3.029-.287 6.054-.551 9.066-.027.306.256.827.525.932.923.36 1.168-.525 1.574-1.018 4.592-5.573 9.203-11.132 13.726-16.76 1.4-1.744 3.007-2.828 5.329-2.829 2.075-.001 3.865.404 4.387 2.708.539 2.379-.597 4.254-2.683 5.029-2.952 1.095-4.866 3.094-6.304 5.594-2.418 4.206-5.415 8.06-8.28 11.924-2.886 3.895-6.957 6.973-10.623 10.289-1.427 1.292-3.227.962-4.821.109-2.148-1.151-2.974-3.087-3.065-4.847zm422.218 121.754c0-6.889-.108-12.634.057-18.374.061-2.211.4-4.538 1.223-6.576 1.271-3.15 1.648-6.469 2.471-9.694.438-1.72.845-3.206 2.862-3.048 2.123.165 4.222 1.012 5.08 3.039.426 1.004.634 2.28.114 3.67-2.174 5.811-3.348 11.837-3.201 18.065.012.504-.119 1.049.548 1.154.724.112 1.38-.159 1.944-.626 2.838-2.354 5.858-4.528 8.471-7.098 4.602-4.526 8.988-9.262 13.401-13.969 2.819-3.01 5.39-3.235 8.319-.733 1.266 1.082 1.681 2.542 1.082 3.701-2.502 4.853-2.063 10.112-2.607 15.239-.07.66-.437 1.458.386 1.825.759.339 1.294-.319 1.821-.766 3.879-3.281 7.704-6.622 11.646-9.827 3.698-3.01 7.173-6.288 11.172-8.945 1.539-1.022 3.191-1.696 5.039-1.781 1.874-.087 2.741.907 3.394 2.641.764 2.034-.746 2.113-1.802 2.663-7.271 3.789-11.91 10.465-17.99 15.551-6.477 5.417-10.762 12.706-16.988 18.299-1.121 1.008-2.1 2.759-4.033 1.645-1.901-1.093-3.941-2.29-3.667-4.917.254-2.438.505-4.903 1.101-7.272.947-3.758.834-7.614 1.418-11.399.092-.601-.051-1.23-.709-1.479-.537-.202-.896.224-1.289.542-4.952 4.002-9.977 7.956-13.643 13.197-2.352 3.361-5.536 5.958-8.195 9.03-1.035 1.195-2.796 1.213-3.897.485-1.832-1.214-4.09-2.503-3.528-4.242zm203.039-114.471c1.646-3.812-1.205-7.281-.767-11.004.051-.432-.124-.818-.56-.918-.227-.052-.614.074-.762.251-2.6 3.113-6.41 4.793-9.308 7.62-2.167 2.113-4.795 3.863-7.081 5.923-1.61 1.453-3.746 1.887-5.242.927-1.791-1.146-3.791-2.961-3.043-5.572 1.612-5.635 1.054-11.58 2.651-17.181 1.554-5.448 1.692-11.283 4.604-16.353 1.075-1.873 2.094-3.947 4.891-3.655 4.561.477 5.498 1.738 4.186 5.971-1.593 5.138-3.078 10.306-5.656 15.117-1.029 1.922-.676 4.252-.559 6.385.095 1.699 1.22.66 1.938.36 5.232-2.186 8.783-6.402 12.743-10.117 2.383-2.233 4.346-4.865 7.198-6.661 1.567-.985 2.728-.782 4.122.131 1.355.884 2.395 1.74 1.73 3.575-1.275 3.527-1.7 7.258-2.611 10.867-.85 3.365 2.371 3.436 3.762 4.863 1.204 1.239 2.387-.381 3.25-1.193 1.736-1.634 2.981-3.667 4.389-5.578 4.171-5.664 8.608-11.14 12.928-16.701 1.271-1.637 2.812-1.694 4.541-.842 1.693.833 2.251 1.919 2.113 3.992-.224 3.363-1.806 5.146-4.664 6.784-3.21 1.841-5.471 4.889-7.424 7.986-4.203 6.662-8.02 13.587-14.251 18.772-1.986 1.653-3.91 3.392-6.008 4.897-2.167 1.555-5.207-.133-6.245-3.432-.531-1.683-.982-3.415-.865-5.214zm-123.47-34.358c-3.701-4.586-10.224-4.386-13.891.602-5.32 7.234-11.446 13.924-15.533 21.998-.66 1.307-1.839 2.291-3.137 3.13-5.658 3.658-12.188 3.578-18.551 4.206-.943.093-1.902-.228-2.148-1.237-.237-.971.709-1.204 1.366-1.662 3.681-2.562 7.461-5.021 10.929-7.839 5.727-4.653 5.955-8.38 1.24-13.714-1.896-2.146-5.227-3.038-7.89-2.021-8.951 3.424-14.823 9.804-18.293 18.41-.733 1.819-1.082 3.691-.623 5.756 1.399 6.295 4.807 8.324 13.281 8.243 6.181-.06 12.307-1.426 17.784-4.636.542-.318 1.161-.992 1.874-.283.593.591.338 1.305.073 1.94-.614 1.477-.955 2.996-.935 4.59.031.688-.007 1.388.112 2.061.537 2.968 3.294 4.887 5.269 3.562 1.737-1.165 3.324-2.606 4.023-4.665 1.263-3.727 2.499-7.462 3.696-11.209 1.977-6.176 4.125-12.336 8.085-17.563 2.563-3.384 5.384-7.19 10.879-5.359 1.188.396 2.237.018 2.852-1.058.657-1.151.393-2.192-.462-3.252zm-48.446 14.094c-1.129 3.322-3.829 4.749-6.829 6.168.543-2.768 3.826-5.693 6.829-6.168zm-266.838 114.418c-7.582.448-13.26 3.407-17.152 9.69-1.191 1.923-3.245 3.429-5.144 4.812-1.271.927-2.489-.235-3.435-1.09-1.378-1.249-2.256-2.656-1.511-4.683 2.177-5.916 5.027-11.542 7.624-17.279 3.232-7.145 4.854-14.704 5.862-22.401.538-4.121 1.951-8.014 3.075-11.98.441-1.561 1.595-2.046 2.897-.686.832.868 1.654 1.712 2.745 2.268 1.1.562 1.109 1.373.853 2.482-2.034 8.783-3.958 17.589-5.996 26.371-.329 1.419-1.166 2.72-1.562 4.132-.468 1.667-.32 2.915 2.127 2.573 3.766-.525 7.511-1.143 11.324-1.441 3.729-.292 6.667 1.171 9.465 2.985 1.865 1.211 1.73 3.306 1.141 5.371-1.331 4.654-4.771 7.945-7.816 11.401-5.232 5.94-11.828 10.297-18.805 14.092-2.157 1.173-4.843.411-6.065-1.641-1.349-2.269-.406-4.417.542-6.47.824-1.782 2.379-1.366 3.897-.901.832.253 1.587-.146 2.231-.656 5.069-4.014 10.132-8.037 15.196-12.059l.214-.208c.929-1.072 1.961-2.301 1.484-3.683-.54-1.569-2.277-.689-3.191-.999zm519.314-95.255c-.306-1.924-1.827-2.104-3.362-2.275-2.072-.23-2.675-1.227-2.076-3.224.955-3.18 2.331-6.228 2.949-9.521.428-2.268.451-4.243-1.561-5.871-1.225-.99-1.852-2.194-1.141-3.895 1.375-3.292-.951-6.24-4.769-6.195-6.652.804-12.062 4.162-16.746 8.479-3.857 3.553-7.952 6.848-11.667 10.571-3.724 3.732-7.42 7.365-9.85 12.106-1.248 2.433-1.325 4.486.734 6.361 2.771 2.523 6.312 2.979 9.82 1.321 6.66-3.149 13.382-6.172 19.434-10.43 2.959-2.081 3.087-1.819 3.576 1.673.379 2.719 1.372 4.969 4.505 6.301 3.373 1.435 5.332-.455 7.688-1.771 1.414-.786 2.777-1.678 2.466-3.63zm-13.884-15.31c-5.514 6.788-12.761 11.204-20.893 14.357-.772.299-1.925.628-2.533-.197-.704-.952.019-1.868.654-2.653 5.084-6.277 11.35-11.297 17.992-15.882 2.586-1.785 4.584-1.288 5.421 1.031.16.448.146.954.218 1.461-.284.643-.44 1.366-.859 1.883zm-119.056 108.879c-.312 1.411-.095 2.979-1.351 4.104-4.438 3.972-7.038 9.282-10.601 13.889-1.741 2.251-3.478 4.552-5.529 6.518-4.002 3.833-6.464 8.702-9.732 13.017-1.842 2.431-3.048 5.248-5.219 7.476-2.293 2.355-2.16 5.739-3.302 8.596-1.136 2.835-3.303 4.115-5.899 4.941-.985.314-2.36.604-3.167-.855-1.158-2.096-2.494-4.077-1.111-6.583 2.766-5.017 6.02-9.734 9.43-14.33 3.032-4.087 4.997-8.715 7.495-13.068.544-.95.249-1.957-.745-2.86-5.12-4.655-6.254-16.227-2.18-21.663 1.184-1.581 2.695-2.986 4.822-1.836 2.072 1.121 3.696 2.585 2.761 5.47-.714 2.209-1.895 4.306-1.974 6.718-.038 1.172-.522 2.44.774 3.199 1.475.865 2.947.444 4.216-.49 2.693-1.979 4.151-5.008 6.402-7.364 2.636-2.76 3.867-6.718 7.735-8.439 2.477-1.1 7.17 1.15 7.175 3.56zm-475.999 13.43c-1.64-1.388-1.695-2.687-.79-4.472 1.274-2.508 2.44-4.972-.508-7.601-1.854-1.653-3.421-1.909-5.331-.977-8.037 3.924-14.9 9.43-21.366 15.442-.584.543-1.263 1.297-.741 2.053.709 1.03 1.605.261 2.375-.146 5.204-2.754 10.473-5.397 14.646-9.669.979-1 2.221-2.347 3.873-.909 1.727 1.503 5.183 1.209 4.077 5.473-1.789 6.89.373 11.19 9.033 11.315 1.913.028 3.823.112 5.735.175.703.022 1.407.056 2.11.087.854.04 1.637.263 1.875 1.17.255.969-.468 1.355-1.204 1.776-6.056 3.461-19.299 2.485-24.217-3.604-.25-.309-.545-.586-.768-.912-2.295-3.376-2.284-3.362-6.174-1.599-5.142 2.333-9.783 5.707-15.404 7.041-1.266.3-2.519.641-3.777.961-2.102.534-3.941.419-5.273-1.617-1.326-2.031-1.443-4.113-.253-6.123 2.12-3.589 4.651-6.927 7.882-9.633 6.647-5.567 13.897-10.361 21.098-15.207 2.339-1.575 5.12-2.364 7.847-2.939 2.035-.429 4.503-.275 5.763 1.665.98 1.51 2.291 2.758 1.966 5.316-.338 2.649-1.331 5.429-.622 8.318.381 1.554-.717 3.163-1.852 4.616zm-19.948-118.941c-.17 3.271-2.628 8.284-6.458 12.734-1.155 1.343-2.784 1.989-4.257.84-1.531-1.196-3.71-2.359-2.537-5.004 1.307-2.946 3.468-5.417 4.561-8.523 1.446-4.104 1.042-4.968-3.27-4.878-4.571.096-8.507 2.035-12.333 4.205-1.981 1.124-3.945 2.309-5.773 3.653-3.375 2.479-5.23 6.303-8.268 9.15-1.487 1.393-2.775 2.62-4.535 1.648-1.871-1.033-3.711-2.659-2.796-5.25.654-1.846 1.415-3.7 2.446-5.363 4.672-7.535 9.459-15.005 14.203-22.499.212-.334.498-.657.592-1.023 1.505-5.812 6.553-9.505 9.201-14.659 1.045-2.034 3.58-1.599 5.393-1.061 1.993.592 1.173 2.464.819 3.791-.666 2.496-1.993 4.803-3.626 6.731-3.633 4.292-5.002 9.834-8.575 14.133-.646.776-1.208 2-.385 2.999.938 1.14 2.134.331 3.019-.134 3.878-2.034 7.963-3.169 12.373-3.313 7.038-.228 10.01 2.418 10.206 11.823zm442.503 123.822c-1.929-1.686-1.664-3.664-.969-5.37.996-2.44 1.099-4.972 1.564-7.459.311-1.666.142-3.466-1.639-4.394-1.697-.884-1.478-1.724-.444-2.968.686-.826 2.209-1.979.86-2.941-2.003-1.431-3.559-4.056-5.711-3.441-4.314.18-7.506 1.18-10.119 2.78-7.316 4.481-14.432 9.308-20.702 15.182-1.755 1.645-3.325 3.437-4.145 5.726-1.021 2.854.142 5.294 2.03 7.245 1.499 1.548 3.879 1.527 5.661.601 7.089-3.682 14.677-6.467 21.249-11.086.899-.632 1.864-1.725 2.875-1.219 1.316.659.696 2.273.338 3.186-1.774 4.531.647 6.876 4.201 9.113 2.15 1.354 3.443.27 4.813-.79 1.593-1.23 1.371-3.087.138-4.165zm-25.818-7.651c4.65-3.794 9.483-7.31 15.096-9.644-3.566 5.44-9.838 6.771-15.096 9.644zm-343.369-139.074c4.817-.314 9.635-.637 14.451-.931.661-.039 1.529-.512 1.947.224.477.836-.338 1.467-.83 2.039-.658.766-1.524 1.411-2.588 1.345-4.675-.29-8.698 2.019-13.043 3.033-1.645.384-3.226.939-4.951 1.11-4.514.444-5.79 4.426-6.725 7.507-1.57 5.173-3.693 10.125-5.45 15.214-.877 2.54.238 5.167-1.148 7.755-1.097 2.047-2.15 2.479-4.204 2.063-2.307-.466-3.252-1.834-3.063-3.992.411-4.729 1.581-9.309 3.639-13.592 1.253-2.607 1.866-5.376 2.819-8.054.529-1.487.266-2.738-1.699-3.012-1.36-.188-2.357-1.047-3.355-1.882-.914-.765-1.331-1.678-1.047-2.874.286-1.207 1.238-1.348 2.26-1.572 2.235-.493 4.417-1.259 6.67-1.605 1.932-.296 3.147-1.38 3.929-2.865 2.69-5.118 5.483-10.169 7.659-15.561 1.646-4.081 3.796-7.986 5.474-12.093 1.011-2.473 3.112-1.58 5.146-1.043 2.165.57 2.462 1.956 2.014 3.55-1.361 4.843-3.642 9.316-6.088 13.72-1.532 2.76-3.057 5.549-4.239 8.458-.99 2.426-.095 3.38 2.422 3.058zm467.946 87.008c5.269-.167 11.633 1.147 17.673 3.725 3.494 1.491 6.628 3.675 9.09 6.582 2.68 3.162 2.758 5.095.507 8.531-1.608 2.455-3.797 4.27-6.516 5.521-4.628 2.13-9.239 4.286-14.068 5.972-3.441 1.201-6.349 3.334-9.355 5.309-1.706 1.121-3.771 2.428-5.613.218-1.602-1.918-1.235-3.946.243-5.866 2.529-3.281 6.209-4.94 9.877-6.513 3.86-1.655 7.867-2.977 11.781-4.521 2.354-.931 5.15-2.184 5.389-4.631.245-2.525-2.982-3.253-4.825-4.62-.47-.348-1.062-.691-1.625-.742-6.544-.595-12.938-2.75-19.603-1.988-3.037.347-6.115.551-8.588 2.924-2.071 1.988-4.133-.253-6.136-.759-1.063-.269-1.588-1.424-1.411-2.66.312-2.173 1.553-3.678 3.664-4.247 5.929-1.597 11.963-2.52 19.516-2.235zm-339.298-110.139c1.332.161 2.461.181 3.523.45 2.735.692 5.284 1.95 5.833 4.864.534 2.836-1.394 5.016-3.283 6.922-.854.863-2.335.796-3.358.27-.738-.38-.387-1.44-.01-2.158.609-1.162 1.239-2.207.009-3.458-1.319-1.341-2.864-1.145-4.187-.534-4.42 2.042-8.498 4.667-10.817 9.027-1.298 2.443-2.62 4.866-4.278 7.058-3.01 3.977-3.293 8.783-4.526 13.288-.608 2.226.604 2.9 2.726 1.987 3.482-1.5 7.002-2.927 10.435-4.528 1.789-.835 4.177-1.78 5.171-.301 1.029 1.528-1.681 2.493-2.814 3.146-3.962 2.283-8.154 4.199-12.329 6.109-4.169 1.906-4.099 3.056-4.093 7.475.006 3.796-1.287 7.722-2.132 11.553-.289 1.316-2.319 2.493-4.028 1.738-1.801-.795-3.314-2.129-3.621-4.324-.314-2.248.648-4.447-.009-6.742-.614-2.148-.567-4.477-2.824-5.901-1.127-.713-.376-1.299.428-1.688 3.421-1.654 4.435-4.643 5.337-8.037 1.155-4.35 2.823-8.616 5.22-12.51 2.338-3.799 3.372-8.213 5.966-11.871 3.352-4.728 7.131-8.958 12.867-11.123 1.685-.639 3.416-.063 4.794-.712zm-68.013 170.705c6.962-1.139 14.037-1.769 20.708-4.324 1.307-.5 2.843-.646 3.498.678.661 1.332-.973 1.676-1.824 2.239-5.585 3.707-11.855 6.003-18.314 7.543-4.165.993-8.617 1.03-12.832-.52-5.118-1.884-7.496-9.046-4.254-14.401 4.16-6.869 9.817-12.096 17.445-15.175 1.112-.448 2.121-1.137 3.223-1.61 3.514-1.508 5.527-1.174 7.524 1.168 2.909 3.413 2.944 4.734.671 8.272-3.612 5.623-9.936 7.807-15.112 11.426-1.242.869-3.142.173-4.704-.221-1.381-.348-2.341.081-2.967 1.331-.75 1.502.355 2.151 1.342 2.841 1.73 1.212 3.68.65 5.596.753zm-105.69-140.264c4.289-.065 7.381 1.835 8.845 5.077.948 2.098.38 4.065-1.571 4.712-2.438.809-2.747 2.474-3.281 4.387-.669 2.398-.877 4.815-.909 7.278-.026 2.041.824 3.241 3.019 3.102 1.713-.11 3.038.232 3.35 2.107.325 1.963-1.293 2.468-2.627 3.052-5.837 2.558-10.607-.141-11.049-6.153-.094-1.3.441-3.222-1.156-3.63-1.52-.388-3.24.197-4.754 1.152-2.933 1.853-6.027 3.397-9.558 3.978-2.444.402-4.381-.045-5.579-2.341-1.152-2.206-1.209-4.417.474-6.326 3.085-3.496 6.865-6.301 10.239-9.509 3.337-3.167 7.27-5.143 11.677-6.34 1.061-.288 2.167-.414 2.88-.546zm194.123 131.032c-.559-2.196.627-3.762 2.023-5.46 4.714-5.73 10.221-10.409 17.11-13.507 4.153-1.869 8.459-1.448 11.599 1.674 1.4 1.395 1.913 3.108.327 4.981-3.239 3.822-7.359 6.303-12.041 8.024-.942.347-1.733.177-2.535-.396-3.05-2.18-8.034 1.106-8.601 4.681-.186 1.183.153 1.92 1.661 1.57 5.761-1.339 11.679-1.654 17.517-2.498 1.179-.171 2.412-.183 3.596-.054.855.092 1.902.335 1.917 1.504.013 1.169-.493 2.351-1.716 2.47-6.859.666-12.915 3.956-19.49 5.562-6.18 1.512-12.094-2.015-11.367-8.551zm421.246-94.041c-2.635-.481-5.229-.28-7.83.128-.784.124-1.656.195-2.402-.008-2.123-.577-4.797-1.12-4.815-3.686-.016-2.303 2.563-2.475 4.421-3.212 2.994-1.185 5.951.311 8.935-.356 5.224-1.168 6.969-3.166 6.596-8.456-.159-2.25-.608-4.479-.861-6.725-.954-8.459 5.335-18.962 14.896-21.321.77-.191 1.74-.571 2.342-.293 3.607 1.669 7.148 3.481 10.679 5.305.61.315 1.131.921.679 1.717-.416.733-1.162.7-1.868.58-.387-.065-.79-.211-1.113-.426-4.771-3.162-8.563-.293-12.413 1.954-3.285 1.919-4.701 4.935-5 8.571-.211 2.539.336 5.045.384 7.513.093 4.866.415 9.954-2.894 14.281-2.472 3.231-5.916 4.18-9.736 4.434zm-378.278 105.65c-3.739.082-6.087-2.985-4.779-6.332 1.073-2.749 2.034-5.564 3.762-8.014 1.702-2.415 2.319-5.164 2.829-7.974.229-1.266.584-2.536 1.971-3.116 1.294-.541 2.422-.843 3.096.972 1.301 3.501 2.185 3.819 5.445 1.967 4.425-2.516 8.716-5.254 13.391-7.342 3.783-1.689 7.848-2.034 11.89-2.454.769-.08 2.099-.323 2.192.933.088 1.169-.313 2.626-1.602 2.906-6.298 1.365-10.79 5.847-16.229 8.647-8.271 4.259-13.057 11.716-18.984 18.154-1.377 1.496-1.566 1.623-2.982 1.653zm-121.407-136.219c-.479 3.62-2.316 7.636-4.613 11.423-1.216 2.002-2.834 3.806-4.48 5.507-.747.773-1.293 2.822-2.936 1.624-1.546-1.125-3.296-2.499-2.429-4.89.195-.539.495-1.087.887-1.506 3.665-3.922 5.793-8.406 5.552-13.829-.1-2.221.637-3.934 3.305-3.955 2.188-.017 4.772 2.654 4.714 5.626zm384.072 133.135c.039-.192.062-.391.122-.576.957-2.915 3.355-4.313 6.064-5.209 3.233-1.069 6.667-2.212 9.636.42 1.895 1.679 1.293 3.825-.197 5.507-2.408 2.719-5.668 4.324-9.013 5.61-2.418.929-6.675-2.93-6.612-5.752zm-377.722-154.09c1.87.735 3.979 1.377 5.878 2.389 1.018.541.332 1.847-.268 2.271-1.91 1.347-.627 5.138-4.056 5.092-.963-.013-1.525-1.189-2.036-2.024-.766-1.254-1.477-2.542-2.197-3.824-1.173-2.093-.006-3.908 2.679-3.904zm279.753 39.55c2.266.288 3.778-.883 5.417-2.084 3.046-2.231 6.187-4.341 9.303-6.48 4.087-2.805 7.429-6.189 9.168-10.887.395-1.063.778-2.124-.126-3.036-2.245-2.268-4.467-4.636-8.159-4.444-2.231.069-4.377.651-6.313 1.697-11.021 5.954-17.211 15.163-19.4 27.203-.559 3.075.49 5.136 2.661 6.985 3.4 2.897 7.23 2.913 10.958.98 5.227-2.709 10.507-5.232 16.041-7.306 1.573-.589 4.53-1.364 3.646-3.405-.599-1.383-3.646-1.159-5.549-.34-3.889 1.673-8.13 2.134-12.097 3.541-1.679.595-3.511.841-5.298 1.068-1.068.136-2.088-.311-2.07-1.584.015-1.064.586-2.064 1.818-1.908zm5.171-13.739c1.431-2.146 3.61-3.589 5.697-5.031.796-.549 1.976-.124 2.069 1.113-.081 1.472-5.408 5.88-6.883 5.78-1.37-.093-1.429-1.042-.883-1.862z" fill-rule="evenodd" clip-rule="evenodd" fill="#126D8F"/></svg>