<svg xmlns="http://www.w3.org/2000/svg" width="1433.206" height="101.52"><path d="M459.033 61.908c-.063 4.373-1.367 8.139.379 11.903.684 1.471-.585 2.653-1.803 3.378-1.503.895-3.175.734-4.526-.333-1.966-1.553-3.191-3.527-2.827-6.159.268-1.943.475-3.895.757-5.836.643-4.41-.332-8.357-3.256-11.855-.963-1.153-1.811-1.564-3.333-.975-4.193 1.623-7.569 4.339-10.913 7.187-5.43 4.623-9.48 10.36-13.766 15.907-1.604 2.073-3.625 2.996-6.017 1.89-2.516-1.165-3.03-3.979-1.79-6.914 1.616-3.83 1.747-8.032 3.152-11.956 1.116-3.121 1.837-6.399 2.946-9.551.353-1.007.777-2.056.512-3.164-.308-1.271-.581-2.157-2.4-1.219-2.01 1.038-4.293 1.63-6.517 2.197-1.52.388-2.849.937-3.884 2.088-.884.98-1.932 1.273-3.255 1.027-1.076-.2-2.192-.199-3.292-.257-5.187-.274-7.311 1.355-8.129 6.465-.606 3.793-1.405 7.477-3.114 11.002-.772 1.596-.916 3.744.281 5.328 1.512 1.995.897 3.695-.318 5.345-.953 1.297-2.216 2.454-4.072 1.898-2.26-.676-3.873-2.084-4.256-4.483-.627-3.926.444-7.654 1.806-11.245 1.141-3.009 1.429-6.099 1.79-9.211.256-2.21-.285-3.353-2.988-2.783-2.838.6-5.759.886-8.66 1.107-1.746.134-3.945.411-4.211-2.128-.227-2.15 1.491-2.539 3.265-3.056 4.218-1.231 8.396-2.522 12.787-3.099 1.905-.249 2.711-1.881 3.221-3.532.638-2.065 1.481-4.12 1.75-6.238.695-5.485 3.136-10.538 3.93-15.987.276-1.895 1.48-3.094 3.491-2.976 1.862.108 3.533.733 4.104 2.831.542 1.984.373 3.897-.365 5.781-1.979 5.045-3.145 10.316-4.516 15.527-.768 2.917-.034 3.52 3.006 3.079 7.148-1.036 14.26-2.185 21.152-4.417 1.138-.369 2.046-.669 2.44-1.853 1.272-3.816 3.225-7.393 4.135-11.342.857-3.707 3.233-6.74 4.934-10.067.9-1.763 2.766-1.938 4.481-1.092 2.001.985 2.564 2.807 1.84 4.747-2.2 5.887-4.425 11.771-6.905 17.549-.94 2.194-1.719 4.459-2.185 6.703-.764 3.675-2.898 6.886-3.351 10.621-.11.906-1.151 1.885.046 2.644 1.18.749 1.77-.57 2.552-1.027 5.159-3.013 9.601-7.039 14.983-9.784 5.572-2.842 10.658-.648 13.592 4.687 2.211 4.024 3.037 7.959 3.317 11.648zm569.413-.515c1.045-3.8 2.221-8.145 3.438-12.478 1.057-3.754.842-4.102-3.205-3.773-2.72.221-5.344.484-7.827-1.074-1.176-.738-2.324-1.33-1.887-2.919.445-1.612 1.644-2.642 3.305-2.47 3.837.397 7.297-.895 10.885-1.797 2.263-.568 3.469-1.842 4.074-3.863 1.893-6.311 3.883-12.597 5.591-18.956 1.034-3.849 2.757-7.353 4.716-10.773.576-1.005 1.702-2.261 2.868-1.282 1.302 1.093 4.006 1.625 3.173 4.091-1.1 3.254-1.742 6.623-3.143 9.816-2.451 5.586-3.8 11.529-4.998 17.486-.253 1.259.389 1.947 1.697 1.684 1.57-.316 3.244-.537 4.63-1.25 4.206-2.162 8.407-3.63 13.299-2.415 1.699.422 2.595-1.113 3.133-2.617 1.122-3.135 2.388-6.225 3.419-9.386 1.553-4.759 4.439-8.8 7.05-12.997 1.157-1.861 2.283-1.476 3.504-.002 2.034 2.458 2.235 4.782.657 7.739-2.777 5.211-4.797 10.779-6.88 16.303-.771 2.044-.4 2.854 1.86 2.212 4.037-1.146 8.213-.48 12.312-.923 2.235-.242 3.998 1.66 5.944 2.649.968.491.318 1.19.054 1.768-.416.909-.871 1.794-2.149 1.738-6.03-.269-11.737 1.365-17.528 2.671-4.562 1.028-6.879 3.69-8.365 7.87-1.379 3.874-3.46 7.499-4.255 11.605-.176.907-.832 1.808-1.48 2.528-1.117 1.246-1.813 3.352-4.226 2.505-1.884-.662-3.398-3.903-3.164-6.065.349-3.224 1.486-5.985 3.588-8.564 1.263-1.551 3.122-3.708-.68-5.197-1.473-.576-1.68-2.5-1.214-4.198.491-1.797.093-2.323-1.951-1.516-3.346 1.321-6.825 2.334-10.284 3.358-1.565.463-2.757 1.117-3.158 2.782-1.034 4.295-2.984 8.366-3.495 12.778-.335 2.893-2.083 5.256-2.76 8.016-.29 1.179-1.436 2.099-2.791 1.724-1.941-.536-3.293-1.875-3.73-3.86-.165-.75-.027-1.564-.027-2.948zm-994.265 4.195c.471-5.979.899-11.415 1.33-16.851.085-1.076.378-2.313-1.068-2.71-1.34-.368-2.798-.125-3.53 1.068-2.832 4.606-7.323 7.64-11.054 11.39-3.569 3.584-7.109 7.193-10.689 10.764-.698.697-1.452 1.398-2.311 1.872-1.714.945-3.691.952-5.147-.192-1.541-1.212-2.078-3.294-1.463-5.107 1.505-4.439 1.772-9.294 4.625-13.293 1.85-2.592.66-5.93 2.314-8.684 3.74-6.225 4.18-13.935 9.156-19.669.606-.7.438-2.065.567-3.13.125-1.023.382-1.89 1.468-2.375 1.71-.763 3.533-1.444 5.06-.018 1.531 1.43 1.091 3.631.198 4.948-2.727 4.031-3.43 8.738-5.139 13.093-1.828 4.654-3.294 9.442-4.961 14.156-.25.706-.484 1.384.237 1.832.69.43 1.347.001 1.923-.432 6.441-4.844 13.095-9.442 18.643-15.321 1.77-1.874 3.568-3.721 5.276-5.646 1.854-2.088 4.02-2.018 6.278-.924 2.149 1.04 1.929 2.901 1.654 4.857-.488 3.489-1.53 6.845-2.581 10.175-.955 3.03-.288 6.054-.552 9.066-.027.306.257.826.525.931.922.36 1.168-.525 1.575-1.018 4.591-5.573 9.203-11.132 13.725-16.76 1.401-1.744 3.007-2.827 5.33-2.829 2.075-.002 3.864.404 4.387 2.708.538 2.379-.597 4.254-2.683 5.029-2.953 1.095-4.866 3.094-6.303 5.594-2.42 4.206-5.416 8.06-8.281 11.924-2.887 3.896-6.956 6.973-10.622 10.29-1.428 1.292-3.228.961-4.821.109-2.15-1.151-2.976-3.086-3.066-4.847zm1174.18-.86c0-6.889-.108-12.635.055-18.374.063-2.211.401-4.538 1.224-6.576 1.271-3.15 1.648-6.47 2.471-9.694.439-1.719.846-3.205 2.863-3.047 2.122.165 4.222 1.012 5.08 3.039.426 1.004.633 2.28.114 3.669-2.175 5.811-3.349 11.836-3.202 18.066.013.503-.119 1.049.549 1.153.723.113 1.381-.158 1.944-.625 2.836-2.354 5.857-4.528 8.47-7.097 4.603-4.527 8.988-9.264 13.4-13.97 2.822-3.01 5.391-3.235 8.319-.733 1.266 1.082 1.682 2.542 1.085 3.701-2.504 4.853-2.065 10.112-2.608 15.238-.07.661-.437 1.459.386 1.826.757.339 1.294-.319 1.821-.766 3.878-3.281 7.704-6.622 11.645-9.827 3.7-3.009 7.175-6.288 11.173-8.945 1.541-1.022 3.191-1.696 5.04-1.781 1.874-.088 2.741.906 3.394 2.641.764 2.034-.746 2.113-1.803 2.664-7.271 3.789-11.91 10.465-17.989 15.55-6.478 5.417-10.763 12.706-16.988 18.299-1.122 1.008-2.101 2.759-4.034 1.646-1.901-1.093-3.94-2.29-3.667-4.918.255-2.438.506-4.902 1.102-7.273.946-3.758.833-7.613 1.417-11.398.092-.601-.05-1.23-.709-1.479-.537-.203-.895.224-1.288.542-4.953 4.002-9.978 7.957-13.645 13.197-2.351 3.361-5.535 5.958-8.194 9.03-1.034 1.194-2.795 1.212-3.896.484-1.834-1.213-4.092-2.503-3.529-4.242zm-548.924 8.143c1.646-3.812-1.205-7.281-.766-11.003.051-.432-.125-.817-.561-.918-.227-.052-.613.074-.761.251-2.599 3.113-6.41 4.792-9.308 7.619-2.166 2.113-4.794 3.863-7.081 5.923-1.61 1.453-3.746 1.887-5.243.928-1.789-1.146-3.789-2.961-3.043-5.572 1.613-5.635 1.055-11.58 2.652-17.181 1.553-5.448 1.691-11.282 4.604-16.353 1.075-1.872 2.093-3.947 4.89-3.654 4.561.477 5.5 1.737 4.186 5.971-1.592 5.137-3.079 10.305-5.656 15.116-1.028 1.922-.676 4.252-.557 6.385.094 1.699 1.219.661 1.938.36 5.232-2.185 8.783-6.402 12.744-10.116 2.382-2.234 4.345-4.866 7.196-6.661 1.567-.986 2.728-.783 4.124.13 1.354.885 2.393 1.742 1.729 3.576-1.273 3.527-1.7 7.258-2.61 10.867-.849 3.365 2.37 3.436 3.761 4.864 1.206 1.239 2.389-.382 3.251-1.194 1.736-1.634 2.981-3.666 4.388-5.577 4.172-5.664 8.609-11.14 12.928-16.7 1.271-1.638 2.813-1.695 4.542-.843 1.692.833 2.251 1.92 2.112 3.993-.223 3.363-1.806 5.146-4.663 6.785-3.21 1.841-5.47 4.889-7.424 7.985-4.203 6.662-8.021 13.587-14.251 18.773-1.985 1.653-3.91 3.392-6.008 4.897-2.167 1.555-5.206-.133-6.246-3.432-.532-1.687-.985-3.419-.867-5.219zm-123.471-34.357c-3.701-4.586-10.223-4.386-13.889.602-5.32 7.234-11.447 13.924-15.534 21.998-.661 1.306-1.838 2.291-3.137 3.13-5.658 3.657-12.188 3.578-18.551 4.205-.943.093-1.903-.227-2.148-1.237-.237-.971.709-1.205 1.366-1.662 3.682-2.562 7.461-5.021 10.929-7.839 5.726-4.652 5.956-8.38 1.24-13.714-1.896-2.146-5.227-3.039-7.89-2.02-8.951 3.424-14.824 9.804-18.293 18.409-.734 1.82-1.081 3.691-.624 5.757 1.4 6.295 4.808 8.323 13.281 8.243 6.182-.06 12.308-1.425 17.784-4.637.544-.318 1.162-.992 1.875-.282.594.592.337 1.304.071 1.94-.612 1.477-.952 2.995-.933 4.59.031.688-.008 1.388.112 2.061.537 2.968 3.294 4.887 5.268 3.563 1.737-1.166 3.325-2.607 4.024-4.666 1.263-3.726 2.498-7.462 3.697-11.209 1.975-6.176 4.124-12.336 8.084-17.563 2.563-3.384 5.383-7.19 10.879-5.359 1.188.396 2.236.017 2.851-1.058.658-1.151.393-2.192-.462-3.252zm-48.445 14.094c-1.129 3.322-3.83 4.749-6.829 6.168.543-2.768 3.827-5.693 6.829-6.168zm485.126-8.197c-7.583.448-13.262 3.407-17.154 9.689-1.191 1.924-3.246 3.429-5.143 4.813-1.271.927-2.49-.235-3.435-1.091-1.378-1.248-2.257-2.655-1.51-4.682 2.176-5.916 5.027-11.542 7.621-17.278 3.233-7.145 4.855-14.705 5.863-22.401.538-4.122 1.953-8.014 3.075-11.98.441-1.561 1.597-2.046 2.899-.687.832.868 1.653 1.713 2.743 2.269 1.101.562 1.109 1.372.853 2.482-2.032 8.783-3.957 17.59-5.995 26.371-.33 1.42-1.167 2.721-1.562 4.133-.469 1.667-.32 2.914 2.127 2.573 3.766-.525 7.512-1.142 11.324-1.44 3.73-.293 6.668 1.17 9.465 2.984 1.865 1.211 1.73 3.306 1.14 5.371-1.33 4.655-4.77 7.945-7.813 11.401-5.234 5.939-11.83 10.297-18.807 14.091-2.156 1.174-4.844.412-6.064-1.64-1.35-2.268-.406-4.417.543-6.47.822-1.782 2.379-1.366 3.896-.901.831.253 1.587-.146 2.23-.655 5.07-4.015 10.133-8.039 15.196-12.061l.214-.207c.93-1.071 1.963-2.301 1.484-3.683-.541-1.572-2.276-.692-3.19-1.001zm-232.65 27.359c-.306-1.923-1.828-2.104-3.363-2.275-2.072-.229-2.674-1.226-2.074-3.223.954-3.181 2.33-6.228 2.948-9.521.427-2.268.45-4.244-1.562-5.872-1.224-.99-1.851-2.195-1.141-3.894 1.376-3.292-.951-6.241-4.77-6.195-6.651.804-12.059 4.163-16.744 8.479-3.857 3.553-7.953 6.848-11.667 10.571-3.723 3.731-7.42 7.364-9.851 12.104-1.248 2.434-1.323 4.487.735 6.363 2.771 2.522 6.312 2.979 9.82 1.321 6.66-3.149 13.383-6.172 19.435-10.43 2.958-2.081 3.086-1.82 3.574 1.673.379 2.72 1.374 4.969 4.506 6.301 3.373 1.436 5.332-.455 7.687-1.77 1.415-.787 2.779-1.68 2.467-3.632zm-13.885-15.309c-5.512 6.788-12.76 11.204-20.891 14.357-.773.3-1.926.628-2.535-.197-.703-.952.02-1.867.654-2.652 5.085-6.277 11.351-11.297 17.993-15.882 2.586-1.785 4.585-1.288 5.42 1.032.161.446.147.953.218 1.461-.283.641-.438 1.363-.859 1.881zm632.908-13.736c-.312 1.411-.095 2.98-1.349 4.104-4.439 3.973-7.039 9.282-10.603 13.89-1.742 2.25-3.478 4.551-5.529 6.517-4.001 3.833-6.462 8.701-9.732 13.017-1.841 2.432-3.048 5.248-5.218 7.477-2.293 2.354-2.16 5.737-3.303 8.595-1.134 2.836-3.303 4.116-5.899 4.941-.985.314-2.358.605-3.166-.855-1.159-2.096-2.494-4.076-1.112-6.583 2.766-5.016 6.021-9.733 9.431-14.33 3.031-4.085 4.997-8.713 7.493-13.066.546-.95.25-1.957-.744-2.86-5.119-4.655-6.253-16.228-2.18-21.664 1.184-1.58 2.695-2.985 4.822-1.835 2.072 1.122 3.695 2.585 2.763 5.471-.717 2.209-1.896 4.305-1.976 6.718-.037 1.172-.522 2.44.774 3.199 1.476.865 2.947.444 4.217-.49 2.693-1.98 4.151-5.008 6.401-7.364 2.636-2.759 3.867-6.718 7.735-8.438 2.476-1.105 7.17 1.145 7.175 3.556zm-475.998 13.429c-1.643-1.387-1.697-2.688-.791-4.471 1.273-2.508 2.439-4.972-.509-7.601-1.853-1.653-3.421-1.909-5.329-.978-8.038 3.924-14.902 9.43-21.367 15.442-.584.543-1.265 1.296-.742 2.053.709 1.029 1.605.262 2.374-.146 5.205-2.753 10.475-5.397 14.648-9.669.978-1 2.22-2.347 3.871-.909 1.728 1.503 5.185 1.209 4.077 5.473-1.787 6.89.375 11.189 9.035 11.315 1.912.027 3.822.111 5.734.174.704.023 1.406.057 2.111.088.854.039 1.635.262 1.873 1.17.256.97-.468 1.356-1.201 1.776-6.057 3.462-19.301 2.485-24.219-3.605-.25-.309-.546-.585-.768-.912-2.296-3.375-2.284-3.362-6.173-1.598-5.143 2.333-9.784 5.707-15.405 7.041-1.265.299-2.519.641-3.777.961-2.101.534-3.942.42-5.271-1.616-1.328-2.031-1.444-4.113-.255-6.123 2.121-3.59 4.651-6.927 7.882-9.633 6.648-5.567 13.897-10.361 21.097-15.207 2.34-1.574 5.122-2.364 7.848-2.939 2.036-.429 4.504-.275 5.763 1.664.98 1.512 2.292 2.759 1.966 5.317-.337 2.648-1.331 5.429-.623 8.319.382 1.553-.714 3.161-1.849 4.614zm-771.914 3.674c-.169 3.271-2.627 8.284-6.456 12.735-1.155 1.342-2.783 1.989-4.256.84-1.532-1.196-3.711-2.359-2.538-5.005 1.307-2.945 3.467-5.417 4.56-8.522 1.446-4.105 1.043-4.968-3.268-4.878-4.571.096-8.509 2.034-12.333 4.204-1.981 1.124-3.947 2.309-5.774 3.654-3.375 2.479-5.229 6.303-8.269 9.15-1.485 1.392-2.775 2.619-4.534 1.648-1.872-1.034-3.712-2.66-2.796-5.25.653-1.845 1.414-3.7 2.446-5.363 4.673-7.536 9.46-15.005 14.202-22.498.212-.335.499-.658.594-1.024 1.504-5.812 6.553-9.505 9.199-14.658 1.045-2.034 3.58-1.599 5.393-1.061 1.994.592 1.174 2.464.82 3.791-.665 2.495-1.993 4.803-3.626 6.731-3.633 4.291-5.002 9.833-8.574 14.132-.646.776-1.209 2-.386 2.999.938 1.14 2.134.331 3.02-.134 3.878-2.035 7.962-3.169 12.371-3.312 7.039-.229 10.011 2.416 10.205 11.821zm1194.467 1.208c-1.928-1.686-1.664-3.664-.967-5.37.994-2.44 1.097-4.972 1.562-7.459.311-1.666.142-3.466-1.639-4.394-1.696-.885-1.477-1.724-.443-2.968.686-.826 2.209-1.978.859-2.941-2.003-1.431-3.558-4.056-5.711-3.441-4.314.181-7.506 1.18-10.119 2.78-7.317 4.481-14.43 9.307-20.702 15.182-1.754 1.644-3.325 3.437-4.145 5.726-1.021 2.853.143 5.294 2.029 7.244 1.499 1.548 3.88 1.527 5.662.602 7.09-3.684 14.677-6.467 21.249-11.086.901-.632 1.863-1.725 2.876-1.219 1.315.659.696 2.273.337 3.186-1.774 4.531.649 6.876 4.201 9.113 2.151 1.354 3.444.27 4.814-.79 1.591-1.23 1.37-3.088.137-4.165zm-25.818-7.651c4.65-3.794 9.484-7.309 15.097-9.644-3.566 5.44-9.839 6.771-15.097 9.644zm-1095.33-16.459c4.817-.314 9.634-.638 14.45-.931.662-.04 1.529-.513 1.947.222.476.837-.338 1.468-.83 2.04-.657.766-1.523 1.41-2.588 1.344-4.675-.289-8.697 2.02-13.043 3.034-1.646.384-3.226.939-4.951 1.109-4.514.444-5.79 4.426-6.726 7.507-1.57 5.173-3.693 10.126-5.448 15.213-.878 2.54.237 5.168-1.149 7.755-1.097 2.047-2.15 2.48-4.203 2.064-2.307-.466-3.252-1.834-3.065-3.992.413-4.729 1.583-9.308 3.64-13.591 1.253-2.607 1.864-5.376 2.818-8.054.53-1.487.268-2.738-1.699-3.011-1.359-.189-2.357-1.047-3.354-1.883-.914-.765-1.331-1.678-1.048-2.874.287-1.207 1.238-1.348 2.261-1.573 2.234-.492 4.417-1.258 6.669-1.604 1.932-.296 3.148-1.381 3.93-2.864 2.691-5.118 5.483-10.17 7.658-15.562 1.647-4.081 3.796-7.986 5.475-12.093 1.01-2.473 3.111-1.58 5.146-1.043 2.163.57 2.461 1.956 2.014 3.551-1.361 4.843-3.643 9.316-6.088 13.72-1.532 2.759-3.057 5.549-4.24 8.458-.987 2.426-.094 3.38 2.424 3.058zm1219.908-35.607c5.269-.167 11.632 1.146 17.673 3.725 3.493 1.491 6.626 3.674 9.089 6.581 2.681 3.162 2.758 5.096.507 8.532-1.608 2.455-3.798 4.27-6.515 5.521-4.628 2.13-9.239 4.286-14.069 5.972-3.44 1.202-6.348 3.334-9.354 5.309-1.706 1.119-3.771 2.428-5.615.217-1.6-1.918-1.235-3.946.245-5.865 2.528-3.282 6.207-4.94 9.876-6.514 3.859-1.655 7.869-2.977 11.781-4.521 2.354-.93 5.152-2.184 5.389-4.631.245-2.525-2.982-3.253-4.825-4.619-.47-.349-1.062-.691-1.624-.743-6.546-.596-12.939-2.751-19.604-1.988-3.037.347-6.114.551-8.587 2.924-2.071 1.988-4.134-.253-6.136-.759-1.064-.269-1.588-1.424-1.412-2.66.311-2.173 1.553-3.678 3.664-4.246 5.929-1.597 11.964-2.521 19.517-2.235zm-1091.26 12.474c1.331.162 2.46.183 3.522.451 2.735.692 5.284 1.951 5.833 4.865.535 2.836-1.394 5.015-3.283 6.92-.855.863-2.336.797-3.359.271-.737-.38-.387-1.441-.01-2.159.61-1.162 1.24-2.206.009-3.458-1.318-1.341-2.863-1.145-4.185-.535-4.421 2.042-8.5 4.668-10.818 9.028-1.299 2.443-2.621 4.866-4.279 7.058-3.01 3.977-3.291 8.783-4.526 13.288-.607 2.226.605 2.901 2.726 1.987 3.483-1.5 7.002-2.927 10.435-4.528 1.79-.835 4.176-1.781 5.171-.301 1.029 1.528-1.681 2.493-2.814 3.145-3.961 2.283-8.154 4.2-12.33 6.109-4.168 1.906-4.098 3.057-4.09 7.476.005 3.795-1.289 7.721-2.133 11.553-.289 1.315-2.32 2.493-4.028 1.738-1.803-.796-3.313-2.13-3.622-4.325-.314-2.247.648-4.447-.008-6.741-.615-2.148-.568-4.477-2.825-5.901-1.126-.712-.376-1.299.429-1.688 3.42-1.654 4.436-4.643 5.336-8.037 1.155-4.35 2.824-8.615 5.221-12.51 2.338-3.799 3.372-8.212 5.965-11.871 3.353-4.728 7.133-8.959 12.867-11.124 1.686-.637 3.417-.061 4.796-.711zm683.949 48.092c6.962-1.139 14.036-1.769 20.706-4.324 1.309-.5 2.844-.646 3.5.678.661 1.332-.974 1.676-1.824 2.24-5.587 3.707-11.856 6.003-18.315 7.543-4.165.992-8.617 1.031-12.831-.52-5.119-1.884-7.496-9.045-4.255-14.399 4.16-6.87 9.817-12.097 17.447-15.176 1.11-.449 2.119-1.137 3.222-1.61 3.513-1.507 5.525-1.174 7.524 1.168 2.909 3.413 2.944 4.733.67 8.272-3.611 5.623-9.936 7.807-15.112 11.427-1.242.869-3.142.173-4.704-.221-1.381-.348-2.34.081-2.966 1.331-.751 1.501.354 2.152 1.342 2.842 1.729 1.208 3.678.646 5.596.749zm-857.653-17.649c4.289-.065 7.38 1.835 8.845 5.077.947 2.098.38 4.065-1.571 4.712-2.438.809-2.747 2.474-3.28 4.386-.67 2.399-.878 4.816-.909 7.279-.028 2.041.824 3.241 3.018 3.102 1.713-.11 3.038.232 3.349 2.107.326 1.964-1.293 2.468-2.626 3.053-5.837 2.558-10.607-.141-11.049-6.153-.094-1.3.441-3.222-1.157-3.63-1.52-.389-3.24.196-4.752 1.151-2.934 1.853-6.029 3.397-9.559 3.978-2.445.402-4.38-.045-5.58-2.341-1.152-2.206-1.209-4.417.475-6.326 3.084-3.496 6.864-6.302 10.239-9.509 3.336-3.168 7.271-5.144 11.677-6.341 1.061-.287 2.166-.413 2.88-.545zm946.087 8.417c-.561-2.196.625-3.762 2.022-5.46 4.713-5.731 10.22-10.408 17.109-13.507 4.153-1.869 8.46-1.448 11.599 1.674 1.401 1.395 1.914 3.108.328 4.981-3.24 3.822-7.36 6.303-12.041 8.024-.943.346-1.734.178-2.536-.396-3.05-2.18-8.034 1.106-8.6 4.682-.188 1.183.153 1.92 1.661 1.57 5.76-1.339 11.679-1.654 17.516-2.499 1.179-.17 2.411-.182 3.597-.054.854.093 1.902.336 1.915 1.504.014 1.17-.491 2.352-1.715 2.471-6.859.666-12.913 3.955-19.489 5.562-6.178 1.511-12.095-2.017-11.366-8.552zm-330.718 28.574c-2.636-.48-5.229-.28-7.829.129-.785.124-1.657.195-2.403-.009-2.123-.577-4.799-1.12-4.815-3.686-.016-2.302 2.562-2.475 4.42-3.211 2.994-1.185 5.951.311 8.936-.357 5.225-1.167 6.969-3.166 6.596-8.456-.159-2.25-.608-4.479-.861-6.725-.954-8.459 5.334-18.962 14.895-21.321.771-.191 1.741-.571 2.343-.293 3.608 1.669 7.148 3.481 10.679 5.305.609.315 1.131.921.679 1.717-.415.734-1.162.7-1.868.58-.387-.065-.791-.211-1.113-.426-4.771-3.162-8.562-.293-12.412 1.955-3.287 1.918-4.702 4.935-5.003 8.571-.21 2.538.338 5.045.384 7.512.095 4.866.418 9.954-2.891 14.282-2.474 3.23-5.917 4.179-9.737 4.433zm373.685-16.964c-3.739.081-6.088-2.985-4.779-6.333 1.074-2.748 2.033-5.563 3.761-8.014 1.702-2.415 2.319-5.164 2.829-7.973.229-1.266.586-2.537 1.971-3.116 1.293-.541 2.423-.843 3.096.972 1.301 3.501 2.184 3.819 5.444 1.966 4.427-2.515 8.718-5.253 13.392-7.341 3.783-1.689 7.847-2.035 11.891-2.454.768-.08 2.098-.323 2.192.933.087 1.168-.313 2.626-1.603 2.905-6.298 1.365-10.79 5.849-16.229 8.647-8.27 4.258-13.056 11.716-18.983 18.154-1.377 1.495-1.566 1.623-2.982 1.654zm-873.369-13.606c-.48 3.621-2.316 7.637-4.613 11.423-1.217 2.002-2.834 3.807-4.481 5.507-.747.774-1.293 2.822-2.937 1.624-1.545-1.126-3.295-2.498-2.428-4.89.195-.539.495-1.087.887-1.506 3.664-3.921 5.793-8.405 5.552-13.829-.1-2.22.636-3.933 3.305-3.954 2.187-.018 4.772 2.653 4.715 5.625zm1136.033 10.52c.04-.192.062-.39.123-.576.957-2.914 3.355-4.313 6.064-5.209 3.234-1.069 6.666-2.211 9.635.421 1.895 1.678 1.293 3.825-.196 5.506-2.409 2.719-5.669 4.324-9.013 5.611-2.418.929-6.676-2.93-6.613-5.753zm-1129.684-31.473c1.871.735 3.979 1.377 5.879 2.389 1.017.541.331 1.847-.27 2.271-1.908 1.347-.627 5.138-4.055 5.093-.963-.013-1.525-1.189-2.036-2.025-.767-1.254-1.478-2.542-2.196-3.824-1.175-2.093-.007-3.909 2.678-3.904zm279.752 39.549c2.267.288 3.779-.883 5.417-2.084 3.046-2.232 6.187-4.341 9.304-6.479 4.086-2.806 7.43-6.19 9.169-10.888.394-1.063.776-2.124-.127-3.036-2.245-2.268-4.467-4.636-8.159-4.443-2.232.069-4.377.651-6.314 1.697-11.02 5.953-17.211 15.163-19.4 27.202-.559 3.075.491 5.136 2.661 6.985 3.4 2.898 7.231 2.914 10.959.981 5.227-2.709 10.507-5.233 16.04-7.306 1.573-.59 4.53-1.365 3.647-3.405-.599-1.383-3.647-1.159-5.549-.34-3.889 1.673-8.13 2.133-12.097 3.54-1.68.596-3.51.841-5.297 1.068-1.069.136-2.09-.311-2.071-1.584.015-1.065.587-2.065 1.817-1.908zm5.172-13.739c1.431-2.147 3.609-3.59 5.698-5.031.794-.548 1.976-.125 2.068 1.113-.081 1.471-5.408 5.88-6.883 5.779-1.37-.092-1.428-1.042-.883-1.861z" fill-rule="evenodd" clip-rule="evenodd" fill="#126D8F"/></svg>