<svg xmlns="http://www.w3.org/2000/svg" width="598.099" height="105.782"><path fill-rule="evenodd" clip-rule="evenodd" fill="#fff" d="M68.145 44.983c-2.646-.047-4.829 1.412-7.259 2.063-2.458.658-4.239.096-3.679-2.865 1.685-8.905 2.386-18.08 6.728-26.301.724-1.37 2.928-2.656.654-4.152-1.863-1.227-3.946-.48-5.549.986-1.318 1.201-1.471 3.002-1.955 4.61-3.023 10.021-4.526 20.364-6.427 30.621-.956 5.163-6.393 9.484-11.452 8.89-2.281-.27-3.152-1.856-3.025-3.944.096-1.507.544-2.989.794-4.489.419-2.525-5.269-12.288-7.651-12.87-1.088-.267-2.468-.312-3.454.13-10.986 4.925-17.606 13.55-19.688 25.23-1.34 7.501 2.959 10.167 10.126 7.136 4.133-1.745 7.384-4.705 10.726-7.48 2.302-1.91 4.072-1.927 6.173-.058 3.433 3.056 6.982 2.535 9.865-.485 3.235-3.394 4.907-1.756 6.336 1.376 1.222 2.686 2.68 4.753 5.076 4.239 10.188-.886 15.529-6.415 18.981-14.377 1.929-4.452-.467-8.177-5.32-8.26zm-53.231 20.292c-2.415.238-3.308-1.271-3.279-3.428.03-2.244.393-4.679 2.048-6.104 4.504-3.879 5.938-11.141 13.97-11.377 3.204-.095 3.276.587 3.334 2.191-.157 6.741-10.225 18.143-16.073 18.718zm51.528-9.755c-2.401 3.578-6.479 4.059-9.918 5.712-1.949-.304-3.057-1.223-1.696-3.035 2.253-3.001 5.1-5.432 8.539-6.992 1.184-.536 2.695-.787 3.659.653.916 1.371.234 2.445-.584 3.662z"/><path fill-rule="evenodd" clip-rule="evenodd" fill="#fff" d="M594.6 40.054c-7.401-1.712-21.053 8.238-21.812 15.885-.389 3.917 2.257 6.967 5.855 6.452 1.626-.232 3.338-.854 4.703-1.762 4.308-2.859 4.737.066 4.459 3.095-.322 3.517-.603 7.296-2.09 10.388-2.506 5.203-2.436 11.654-7.832 15.535-5.813 4.183-11.875 7.885-18.621 10.199-5.595 1.918-11.455 3.777-16.679-1.213-.647-.618-1.565-.923-2.312-.373-1.144.841-.304 1.887.107 2.707 2.071 4.136 5.918 4.617 10.405 4.677 3.161.521 6.663-.591 10.029-1.427 10.992-2.726 20.261-8.083 25.806-18.587 3.87-7.33 4.826-15.386 6.358-23.329 1.113-5.77.997-11.982 3.885-17.144 2.051-3.664.736-4.409-2.261-5.103zm-12.087 16.511c-.476-.027-.977-.222-1.397-.459-.937-.528-1.705-1.342-1.048-2.414 1.852-3.019 4.165-5.626 7.478-7.12 1.079-.486 1.954.007 2.51.979.237.414.305.925.379 1.163-.001 2.474-5.703 7.979-7.922 7.851z"/><path fill-rule="evenodd" clip-rule="evenodd" fill="#fff" d="M162.106 36.631c-1.764 3.358-4.757 4.192-7.266 4.981-3.77 1.187-4.85 3.397-5.122 7.039-.352 4.704-1.2 9.388-2.133 14.02-.366 1.821-.953 4.514-3.82 3.429-2.271-.858-1.753-3.036-.929-4.786.521-1.104.967-2.12.746-3.361-.359-2.028-.9-3.505-3.145-1.435-1.116 1.029-2.235 2.09-3.495 2.922-4.694 3.103-7.3 2.893-10.933-1.447-2.11-2.524-3.855-2.871-6.234-.641-2.131 1.997-4.727 3.323-7.458 4.181-4.257 1.334-7.14-1.3-6.938-5.733.159-3.479 2.568-6.721.958-10.396-.353-.805.469-1.534 1.302-1.91.943-.423 1.602.092 2.238.681 1.899 1.762 1.419 3.938 1.229 6.154-.15 1.741-.962 3.838 1.217 5.01 2.08 1.117 3.499-.499 5.018-1.456 2.728-1.72 5.08-3.844 7.128-6.367 1.112-1.368 2.411-3.153 4.607-2.084 1.879.913 1.592 2.712 1.396 4.454-.26 2.341-.748 4.917 1.901 6.301 2.741 1.431 4.347-1.057 6.235-2.242 1.114-.698 1.88-1.928 2.88-2.833 2.84-2.567 2.168-4.281-1.302-5.139-1.679-.413-3.018-1.161-2.817-2.939.187-1.647 1.916-1.788 3.215-1.924 4.469-.465 6.309-2.525 7.127-7.304 1.131-6.589 3.774-12.915 4.729-19.646.194-1.373-.22-4.502 2.673-3.763 2.283.585 3.337 2.8 2.714 5.303-1.181 4.734-1.913 9.566-3.627 14.192-.672 1.809-2.697 3.949-.473 6.047 1.866 1.76 4.019 1.307 6.174.473.4-.156.948.077 2.205.219z"/><path fill-rule="evenodd" clip-rule="evenodd" fill="#fff" d="M228.284 17.994c-.588 3.944-1.161 8.999-2.139 13.974-.748 3.807.508 5.463 4.338 5.397 1.218-.021 3.079-.76 3.205 1.306.104 1.679-1.53 2.03-2.898 2.222-6.28.877-8.384 5.142-9.125 10.795-.613 4.672-1.684 9.282-2.417 13.941-.379 2.413-1.882 3.891-3.678 5.224-1.579 1.174-3.196 1.375-4.378-.438-1.031-1.582-.855-2.98.766-4.411 5.419-4.787 3.905-11.826 5.277-17.88.5-2.206-1.902-2.521-4.072-1.989-12.234 2.991-13.171 4.044-14.161 16.882-.132 1.738-.227 3.801-2.51 3.606-2.111-.181-2.325-2.08-2.045-3.919.772-5.076 3.223-10.153-.02-15.236-.141-.221-.086-.771.096-.96 7.671-8.004 6.545-19.354 10.896-28.615.646-1.37.178-3.956 2.814-3.166 1.944.583 2.08 2.522 1.602 4.289-1.589 5.859-3.387 11.667-4.824 17.562-1.394 5.719.158 6.959 6.024 5.745 5.667-1.172 9.342-3.644 10.04-10.075.58-5.326 1.15-10.774 3.096-15.877.534-1.408.292-3.934 2.764-3.378 1.812.408 1.48 2.387 1.349 5.001z"/><path fill-rule="evenodd" clip-rule="evenodd" fill="#fff" d="M425.297 34.053c-.43 6.028-.571 11.626-1.278 17.151-1.402 10.99-7.462 15.091-17.781 18.031-4.858 1.384-14.133-5.617-15.081-10.605-.433-2.274.818-3.786 2.451-4.527 2.003-.909 2.294 1.101 2.921 2.486 1.793 3.964 4.565 6.781 9.281 6.446 4.943-.351 9.407-1.937 11.348-7.007 4.227-11.037 3.862-22.547 2.735-34.011-.329-3.364-1.877-5.74-6.604-4.002-5.324 1.96-9.77 5.332-14.827 7.646-2.021.923-4.026 1.728-5.342-.508-1.639-2.79 1.013-3.438 2.779-4.2 8.064-3.48 16.173-6.856 24.247-10.317 3.333-1.429 3.978.691 3.941 3.125-.103 6.948.693 13.837 1.21 20.292z"/><path fill-rule="evenodd" clip-rule="evenodd" fill="#fff" d="M490.313 32.988c-1.306-1.712-2.356-.076-3.398.548-4.899 2.937-8.52 7.18-11.523 11.907-2.329 3.667-4.377 4.033-7.946 1.217-6.314-4.981-20.085-4.722-26.792-.155-1.458.993-1.892 2.269-1.875 3.867-.114 5.545 2.479 8.217 8.004 9.096 5.029.799 8.256-2.29 11.764-4.778 5.993-4.254 7.256-3.866 8.918 3.193.49 2.08.392 4.878 3.303 4.871 2.494-.008 3.379-2.258 4.117-4.491 1.802-5.455 4.268-10.613 7.376-15.479 1.824-2.858 5.104-3.839 7.278-6.172.92-.988 1.797-2.284.774-3.624zm-33.966 18.275c-1.622 2.481-4.294 2.999-6.791 3.525-1.84.038-3.312-.677-3.703-2.242-.509-2.033 1.366-2.331 2.773-2.793.314-.104.685-.048.991-.164 2.124-.803 4.182-2.562 6.521-.658.694.566.689 1.597.209 2.332z"/><path fill-rule="evenodd" clip-rule="evenodd" fill="#fff" d="M353.814 60.184c4.42-.382 8.158-.537 11.307-2.936.831-.633 1.802-1.18 2.573.026.809 1.26.125 2.215-.857 3.048-6.309 5.355-18.253 6.382-24.919 1.804-3.041-2.088-4.583-.269-6.472 1.477-1.173 1.087-2.187 3.056-4.167 1.968-2.261-1.241-1.066-3.291-.528-4.966 3.475-10.802 4.641-22.109 7.339-33.078.684-2.778 1.101-5.662 2.864-8.028.677-.907 1.5-2.019 2.921-1.359 1.415.657 1.079 1.82.785 3.044-2.093 8.689-4.131 17.394-6.187 26.093-.41 1.736-1.626 3.674.487 5.019 1.836 1.171 3.562.326 5.073-.969 3.392-2.902 7.328-4.806 11.542-6.138 1.177-.372 2.793-1.345 3.557.426.821 1.908-.328 3.369-2.078 3.953-2.434.813-4.868 1.636-6.701 3.433-1.207 1.182-3.737 1.859-2.819 4.236.803 2.076 2.847 2.753 4.971 2.94.67.057 1.349.007 1.309.007z"/><path fill-rule="evenodd" clip-rule="evenodd" fill="#fff" d="M89.529 41.769c-5.049-.146-13.426 10.037-13.525 16.443-.08 5.021 2.905 8.328 7.503 8.312 7.814-.027 16.609-6.95 16.534-13.017-.051-4.103-6.791-11.631-10.512-11.738zm-3.955 19.729c-2.005-.495-4.082-1.711-3.648-4.259.448-2.651 1.112-7.036 3.918-6.635 2.846.408 7.642-.445 8.738 4.164.486 2.044-5.89 6.746-9.008 6.73z"/><path fill-rule="evenodd" clip-rule="evenodd" fill="#fff" d="M545.353 38.353c-3.937.663-6.59 2.571-8.586 5.118-1.301 1.659-2.322 3.591-3.238 5.625-1.028 2.283-1.923 4.696-2.929 7.002-.446 1.025-1.432 1.911-2.359 2.606-1.195.898-2.707 1.966-4.078.542-1.927-1.995.592-2.341 1.464-3.295 1.59-1.742 1.394-5.395.656-8.161-.771-2.888-3.039-2.633-5.277-2.676-1.434-.029-2.79-.663-2.822-2.32-.036-1.817 1.584-1.484 2.642-1.463 7.179.145 10.408-3.798 11.584-10.462.849-4.801 2.161-9.541 3.588-14.21.526-1.72 1.021-4.765 3.599-3.995 2.937.877.952 3.223.459 5.068-1.175 4.397-2.327 8.809-3.242 13.265-1.132 5.521-.068 6.521 5.724 5.911.633-.066 1.279-.009 1.918-.009l.897 1.454z"/><path fill-rule="evenodd" clip-rule="evenodd" fill="#fff" d="M310.209 39.399c1.312.375 3.132-.006 3.462 1.647.314 1.571-1.349 1.722-2.421 2.016-3.733 1.024-5.954 3.789-7.773 6.869-2.831 4.795-5.441 9.721-8.177 14.572-1.204 2.133-2.874 4.474-5.454 3.292-2.156-.988-1.021-3.629-.565-5.53 2.222-9.281 9.499-14.787 15.904-20.89 1.278-1.214 3.096-2.073 5.024-1.976z"/><path fill-rule="evenodd" clip-rule="evenodd" fill="#fff" d="M318.775 52.196c-.605 4.196-1.085 7.834-1.686 11.45-.16.972-.663 1.964-1.76 2.258-1.22.327-1.763-.576-2.287-1.461-1.672-2.816-.359-14.729 1.881-16.884 1.015-.978 1.874-.459 2.446.457.896 1.434 1.423 3.027 1.406 4.18z"/><path fill-rule="evenodd" clip-rule="evenodd" fill="#fff" d="M285.731 52.734c-.146-3.833-.423-8.238-4.954-9.687-3.912-1.251-7.186.758-9.945 3.556-1.018 1.03-1.999 2.811-3.739 1.55-3.396-2.464-4.218-.038-5.4 2.406-2.925 6.052-8.448 9.036-14.38 11.059-2.916.992-6.046-.12-8.491-2.269-1.268-1.114-1.461-2.678-1.146-4.198.332-1.604 1.767-1.166 2.906-1.257 3.977-.318 6.834-2.585 9.398-5.404 1.878-2.065 3.729-3.991 1.62-7.042-1.922-2.778-4.441-3.652-7.453-2.461-7.02 2.775-9.569 8.846-11.147 15.597-1.972 8.438 5.443 13.776 14.066 10.86 3.279-1.109 6.223-3.292 9.2-5.174.93-.587 1.447-2.162 2.832-1.387.973.546.734 1.81.581 2.793-.346 2.234-.845 4.999 2.005 5.406 2.812.402 4.178-2.229 5.121-4.64 1.167-2.978 2.055-6.094 3.506-8.923 1.389-2.701 3.502-5.906 6.806-5.002 2.781.763 2.603 4.373 2.697 7.088.042 1.182.007 2.365.007 4.53-.029.538-.1 2.059-.193 3.576-.117 1.904.363 3.422 2.578 3.57 2.034.137 2.573-1.354 2.719-2.949.357-3.86.956-7.746.806-11.598zm-46.243-3.552c1.165-2.772 6.596-6.849 6.596-6.849s1.597.271 0 3.424-7.761 6.196-6.596 3.425z"/><path fill-rule="evenodd" clip-rule="evenodd" fill="#fff" d="M320.076 24.614c-.604-.354-1.314-.221-1.817.234.124-.111-.038-.002-.136.065l-.275.099-.194.075c-.201.021-.401.082-.591.192l-.108.08-.225.087c-.742.345-.922 1.397-.538 2.053.212.361.522.575.869.666l.082.113c.41.434.928.592 1.511.63.531.035 1.023-.314 1.295-.743.364-.574.604-1.215.817-1.857.211-.634-.133-1.368-.69-1.694z"/><path fill-rule="evenodd" clip-rule="evenodd" fill="#fff" d="M499.964 53.107c-.629-2.194 1.479-3.201 3.109-4.039 2.096-1.08 4.408-1.762 6.426-2.959 2.082-1.235 5.173-2.432 3.931-5.594-1.353-3.451-5.875-5.964-8.945-5.278-3.77.84-18.833 9.173-10.027 20.847 3.249 5.684 14.28 7.324 18.295.377-2.692.165-5.35.4-8.011.475-2.604.072-4.175-1.722-4.778-3.829zm5.354-13.248c4.166-.783 3.499 2.384 3.666 2.884l-10.166 4.749s2.334-6.849 6.5-7.633z"/><path fill-rule="evenodd" clip-rule="evenodd" fill="#fff" d="M564.18 39.91c-1.892-2.124-3.884-2.369-6.27-.867-3.747 2.359-6.995 5.36-9.571 8.846-3.694 4.995-3.44 10.803-.013 13.885 3.033 2.728 8.056 2.085 12.17-1.687-1.198-1.019-2.549-.631-3.838-.62-2.276.02-4.104-1.062-4.644-3.173-.601-2.346 1.918-2.49 3.247-3.147 3.517-1.738 6.839-3.604 9.218-6.875 1.657-2.279 1.563-4.27-.299-6.362zm-11.696 10.853s7.334-8.944 8.834-7.148l-8.834 7.148z"/></svg>