<svg width="588" height="105" xmlns="http://www.w3.org/2000/svg" xmlns:sketch="http://www.bohemiancoding.com/sketch/ns"><title>humanjs</title><g sketch:type="MSLayerGroup" fill="#3DA0CD"><path d="M285.947 45.781l-.233-.319.231.32.002-.001" sketch:type="MSShapeGroup"/><path d="M288.064 44.818l-.058-.042-.001.006.059.036" sketch:type="MSShapeGroup"/><path d="M475.013 38.568c.449.541 1.126 1.093 1.625 1.636-.499-.543-1.176-1.095-1.625-1.636-.393.436-.949.838-1.329 1.277.38-.439.936-.841 1.329-1.277" sketch:type="MSShapeGroup"/><path d="M286.33 42.239c.056.213.118.419.194.611-.076-.192-.138-.398-.194-.611" sketch:type="MSShapeGroup"/><path d="M286.155 41.386c.038.271.088.528.149.772-.061-.244-.111-.501-.149-.772" sketch:type="MSShapeGroup"/><path d="M35.438 41.486l-.457-.136c-.091-1.067-.258-2.134-.261-3.201-.005-2.535-1.168-4.171-3.341-5.506-3.965-2.437-7.571-1.052-10.759 1.115-3.557 2.418-6.64 5.527-9.981 8.271-.529.435-1.33.537-2.005.793-.125-.666-.378-1.336-.357-1.997.191-6.194.309-12.394.691-18.577.347-5.624.957-11.234 1.529-16.842.26-2.544-.625-4.224-3.061-4.809-.832-.2-2.19-.093-2.617.434-.427.528-.063 1.768.086 2.675.214 1.309.878 2.627.772 3.893-.593 7.103-1.52 14.18-2.028 21.288-.675 9.452-.866 18.942-2.916 28.252-.21.951-.423 2.231.029 2.926.878 1.349 2.228 2.392 3.382 3.562.935-.97 1.988-1.855 2.763-2.94.516-.723.652-1.724.929-2.61 1.155-3.679 2.334-7.371 4.958-10.31 2.079-2.328 4.225-4.62 6.547-6.698 1.713-1.534 3.617-3.003 5.688-3.948 2.886-1.318 4.802.043 4.565 3.247-.158 2.139-.823 4.353-1.753 6.297-1.879 3.926-3.625 7.846-4.037 12.241-.173 1.843.763 3.29 2.307 3.657 1.329.316 3.009-.072 4.305-.656.93-.42 1.5-1.664 2.199-2.565.706-.91.807-1.781-.176-2.624-1.124-.963-1.086-1.984-.58-3.423 1.361-3.877 2.407-7.865 3.579-11.809" sketch:type="MSShapeGroup"/><path d="M583.493 12.274c-4.619.843-9.217 1.804-13.807 2.794-5.137 1.109-10.256 2.302-15.386 3.447-1.874.418-3.745.901-5.646 1.13-.469.056-1.523-.805-1.492-1.176.207-2.466.442-4.963 1.037-7.357.987-3.972.544-5.315-3.298-7.523-.35 1.552-.653 3.039-1.028 4.507-.241.946-.724 1.844-.859 2.798-.375 2.649-.586 5.321-.937 7.974-.205 1.548-1.15 2.355-2.748 2.48-4.609.359-9.222.706-13.815 1.225-.7.079-1.687.936-1.871 1.616-.442 1.629 1.172 3.029 3.515 3.042 3.176.016 6.357-.077 9.528-.257 3.742-.212 4.026.055 3.489 3.712-.879 5.977-1.758 11.953-2.553 17.941-.299 2.255-.599 4.554-.474 6.81.127 2.311.142 4.417-1.633 5.828.228 1.22.176 2.378.67 3.211.581.98 1.635 1.679 2.484 2.5.809-.948 2.198-1.82 2.335-2.857.996-7.525 1.74-15.084 2.565-22.632.439-4.019.887-8.036 1.316-12.056.224-2.097 1.062-3.565 3.3-4.18 7.163-1.967 14.308-3.999 21.427-6.119 4.417-1.314 8.771-2.842 13.159-4.254 1.52-.49 3.058-.92 4.734-1.421-1.073-2.327-2.727-1.418-4.012-1.183" sketch:type="MSShapeGroup"/><path d="M508.031 30.034c-2.457 2.037-4.556 4.502-6.906 6.676-.663.613-1.672 1.273-2.479 1.223-1.941-.121-2.484.914-2.678 2.47-.079.632.046 1.297-.086 1.912-1.464 6.796-2.986 13.579-4.426 20.38-.34 1.607-.184 3.345-.678 4.888-1.808 5.642-1.662 11.486-1.843 17.274-.035 1.09 1.457 2.228 2.244 3.344.86-.736 1.836-1.379 2.538-2.243.46-.567.631-1.44.744-2.204.628-4.224 1.267-8.448 1.767-12.688.438-3.728.641-7.484 1.054-11.215.365-3.287.969-3.729 4.125-3.236 9.121 1.424 14.744-2.682 18.993-10.82 1.308-2.505 1.562-5.562 2.187-7.943-.27-1.676-.238-2.878-.664-3.886-2.319-5.491-9.111-7.897-13.892-3.932zm7.43 14.075c-2.49 2.583-5.381 4.792-8.197 7.042-.858.685-1.979 1.096-3.037 1.466-3.411 1.192-5.008-.097-4.651-3.716.457-4.636 2.325-8.625 5.613-11.922 1.423-1.427 2.439-3.15 4.691-3.825 4.009-1.203 7.972-.281 8.039 5.89-.793 1.713-1.221 3.781-2.458 5.065z" sketch:type="MSShapeGroup"/><path d="M112.893 37.974c-1.671 1.434-3.134 3.108-4.704 4.661-.468.463-.979.882-1.873 1.681-.511-3.032-.956-5.399-1.301-7.782-.617-4.264-4.486-6.482-8.269-4.477-1.636.868-3.07 2.223-4.387 3.562-1.071 1.088-2.004 1.738-3.496.903-1.506-.844-2.298-.093-2.591 1.362-.253 1.256-.334 2.547-.573 3.807-.638 3.361-1.342 6.709-1.977 10.07-.416 2.199.861 4.359 2.85 4.802 2.445.545 2.715-1.451 3.322-2.99.207-.524.262-1.107.404-1.658 1.315-5.084 3.469-9.784 6.626-13.978.501-.664 1.484-1.2 2.297-1.284.346-.036.971 1.198 1.21 1.938.279.863.541 1.88.345 2.723-.962 4.142-1.917 8.3-3.201 12.35-.771 2.43-.892 2.756 1.559 4.205 2.1 1.241 2.727 1.014 4.242-.942 3.271-4.224 6.613-8.393 9.999-12.524.415-.506 1.282-.64 1.939-.947.173.653.566 1.336.48 1.953-.319 2.285-.699 4.571-1.241 6.812-.466 1.928.285 4.061 1.817 4.482 1.975.543 3.299-.509 3.728-2.97.123-.703.229-1.408.338-2.113.599-3.878 1.353-7.728-.196-11.608-1.374-3.441-4.543-4.447-7.347-2.038" sketch:type="MSShapeGroup"/><path d="M162.666 59.014c-.214-.184-.684-.042-1.024-.111-2.641-.535-3.995-2.415-3.66-5.1.079-.636.204-1.275.385-1.89.66-2.244 1.397-4.467 2.02-6.721.45-1.632-.36-2.948-1.72-3.547-1.436-.632-2.579.238-3.299 1.593-.233.437-.498.874-.827 1.239-2.942 3.262-5.672 6.769-8.933 9.674-2.437 2.171-5.485 3.722-8.417 5.248-2.151 1.119-3.335.181-3.085-2.214.099-.955.553-1.905.986-2.788 2.618-5.336 6.595-9.569 11.051-13.379.756-.647 1.804-.952 2.788-1.451l1.114 2.129c.632.097 1.247.171 1.853.289 1.96.384 2.512-.047 2.526-1.997.02-2.778-1.997-5.341-5.081-6.454-2.327-.84-4.957.186-7 2.457-4.838 5.381-8.522 11.522-11.974 17.829-2.147 3.922-1.554 5.374.926 9.213 1.061 1.643 2.654 2.028 4.506 1.603 3.807-.872 7.219-2.306 9.934-5.371 1.845-2.083 4.211-3.705 6.633-5.781.341.905.631 1.475.772 2.079 1.017 4.348 4.659 6.912 9.171 6.308.731-.097 1.397-.681 2.092-1.04-.571-.614-1.105-1.273-1.737-1.817" sketch:type="MSShapeGroup"/><path d="M256.133 40.031c.597.943 1.727 1.908 1.689 2.824.038-.916-.754-2.824-1.689-2.824" sketch:type="MSShapeGroup"/><path d="M257.822 42.855c.038-.916-1.092-1.881-1.689-2.824-.81.517-2.052.857-2.35 1.584-.859 2.094-1.822 4.331-1.878 6.535-.213 8.412-.086 16.833-.086 24.531-.439 2.792-.88 4.817-1.057 6.866-.498 5.786-2.623 10.918-6.09 15.501-.572.755-1.626 1.144-2.458 1.703-.406-1.02-.979-2.008-1.176-3.066-.244-1.31-.034-2.707-.303-4.008-.131-.634-.835-1.478-1.407-1.593-.492-.099-1.558.605-1.685 1.121-.387 1.584-.676 3.262-.584 4.88.223 3.911 1.704 7.245 4.855 9.806 1.072.871 1.817.724 2.558-.066 1.262-1.343 2.491-2.736 3.582-4.22 3.451-4.695 6.218-9.827 7.347-15.532 1.484-7.491 1.569-15.141 1.385-22.776-.081-3.393-.183-6.797.008-10.179.157-2.766.913-5.5 1.028-8.263" sketch:type="MSShapeGroup"/><path d="M71.812 31.228c-1.567-.582-3.087-.741-4.093 1.057-1.587 2.835-2.911 5.879-4.869 8.431-2.896 3.773-6.197 7.241-9.44 10.734-1.061 1.143-2.76.655-2.871-.859-.223-3.025-.448-6.147.059-9.102.562-3.265.623-4.109-2.635-6.712-.633 1.791-1.455 3.36-1.721 5.018-.683 4.269-1.371 8.469-.517 12.929.731 3.814 5.054 6.882 8.21 4.61 2.124-1.529 3.667-3.859 5.501-5.8.75-.793 1.583-1.508 2.665-2.53.734 3.102 1.193 5.384 1.823 7.618.883 3.132 2.978 5.102 6.194 5.629.726.12 1.569-.483 2.358-.753-.444-.721-.782-1.544-1.357-2.136-.717-.738-2.224-1.182-2.353-1.932-.497-2.891-1.297-6.021-.662-8.753 1.136-4.892 3.223-9.562 4.924-14.321.505-1.412.289-2.568-1.216-3.128" sketch:type="MSShapeGroup"/><path d="M364.243 51.281c.651-1.334 1.284-2.691 1.757-4.095.488-1.45.829-3.003-.988-3.902-1.896-.938-3.5.204-4.186 1.519-2.645 5.068-7.408 7.592-11.921 10.358-1.606.984-3.738 1.199-5.671 1.491-.477.072-1.68-1.092-1.589-1.405.588-2.009.96-4.419 2.318-5.785 2.322-2.337 5.158-4.313 8.095-5.823 1.451-.745 3.609-.152 5.444-.09.942.032 1.879.229 2.819.351-.107-1.064.152-2.391-.387-3.144-2.113-2.95-7.308-4.026-10.236-1.813-4.925 3.724-9.877 7.574-12.22 13.642-.534 1.383-1.137 3.026-.865 4.379.785 3.9 4.704 5.622 8.915 4.57 3.572-.892 6.437-2.895 9.258-5.064 2.395-1.84 2.757-1.8 4.597.597 1.998 2.604 5.733 2.813 8.48.186-.703-.489-1.294-1.041-1.992-1.363-2.339-1.079-2.766-2.28-1.628-4.609" sketch:type="MSShapeGroup"/><path d="M290.776 55.5c.796-2.185 1.53-4.393 2.107-6.059-.013-2.074-.325-2.89-1.382-3.337-.26-.109-1.724-.501-1.788-.508-1.173-.134-2.728 2.482-3.938 4.664-2 3.607-5.036 6.176-8.887 7.641-2.225.847-4.273-.756-4.131-3.883.013-2.732 2.459-5.148 4.122-7.939.36-.604.719-1.216 1.005-1.857.926-2.079 2.923-3.33 5.142-3.074.419.049.969.376 1.159.733l.213.447.04.092.174.439.037.102.146.409.168.479.036.101.178.465.02.047.186.414.039.08.235.418.057.088c.81 1.22 1.438.641 1.513.32.095-.408.08-1.127-.412-2.227-.192-.594-.752-3.07-.761-3.396-.099-3.431-2.692-5.003-5.632-3.259-1.573.934-3.018 2.148-4.345 3.419-4.116 3.942-7.524 8.203-8.099 14.307-.458 4.866 4.781 10.417 9.949 8.201 1.298-.557 2.561-1.24 3.739-2.017 1.566-1.034 2.753-1.176 3.843.69 1.256 2.15 3.343 3.091 5.77 3.06.653-.008 1.785-.594 1.838-1.022.097-.775-.207-1.927-.776-2.399-2.316-1.923-2.616-2.753-1.565-5.639" sketch:type="MSShapeGroup"/><path d="M401.863 47.872c-3.308-2.955-7.522-2.149-11.37-2.767-1.949-.306-3.911-.548-5.837-.96-.552-.119-1.383-.718-1.398-1.123-.022-.569.457-1.45.965-1.701 3.247-1.603 6.509-3.205 9.888-4.482.799-.302 2.324.37 3.049 1.075.873.847 1.673 1.376 2.472.487.51-.569.799-1.893.482-2.525-.514-1.026-1.584-1.785-2.459-2.615-2.151-2.04-6.531-2.346-8.84-.57-3.101 2.384-6.116 4.881-9.249 7.221-1.463 1.093-2.269 2.404-1.965 4.183.342 2.006 1.315 3.808 3.46 4.158 3.419.557 6.915.651 10.329 1.229 1.401.237 2.676 1.225 4.009 1.871-1.173.757-2.313 2.094-3.525 2.163-3.57.204-5.235 2.588-6.755 5.184-.371.633-.379 2.008.052 2.455.614.636 1.961 1.23 2.696.976 5.881-2.033 10.947-5.311 14.685-10.419 1.126-1.538.658-2.638-.689-3.84" sketch:type="MSShapeGroup"/><path d="M198.787 42.231c-.506-.791-1.258-1.855-2.025-1.977-3.994-.629-8.118-1.886-11.681 1.468-.857.807-1.993 1.405-3.106 1.82-.754.282-1.884.404-2.509.03-2.2-1.317-3.13-.908-3.648 1.631-.711 3.48-1.601 6.923-2.413 10.382-.195.83-.464 1.653-.557 2.494-.191 1.739 1.604 3.861 3.322 4.026 1.764.17 2.845-.999 3.292-3.172.369-1.795.951-3.552 1.54-5.293 1.314-3.884 4.591-6.076 7.681-8.249 1.211-.851 3.456-1.186 4.748-.63.889.382 1.477 2.786 1.262 4.137-.405 2.561-1.387 5.051-2.31 7.503-.776 2.059-.29 5.485 1.469 6.696 1.765 1.215 3.63.852 5.665-.7-2.11-2.872-1.008-5.635-.229-8.595 1.005-3.817 1.885-7.841-.501-11.571" sketch:type="MSShapeGroup"/><path d="M333.302 36.767c-1.003-.261-2.496-.032-3.296.6-1.885 1.487-3.485 3.336-5.199 5.041l-7.685 7.649-.731-.256c-.113-.798-.298-1.595-.327-2.396-.108-3.054-.028-6.124-.343-9.155-.074-.708-1.452-1.813-2.181-1.776-.792.04-2.087 1.123-2.19 1.884-.419 3.097-.583 6.244-.614 9.375-.026 2.625.183 5.261.44 7.877.165 1.676.457 3.37.96 4.972.632 2.015 3.54 2.341 4.724.41 2.264-3.693 4.734-7.271 7.291-10.771 2.397-3.28 4.963-6.397 8.809-8.234 1.007-.482 1.869-1.886 2.148-3.026.143-.59-1.019-1.988-1.806-2.194" sketch:type="MSShapeGroup"/><path d="M461.515 28.212c-3.109 2.082-5.941 4.596-8.783 7.054-1.332 1.152-2.462 2.265-4.111.581-.719-.734-1.543-1.845-2.583-.948-.798.689-1.446 1.879-1.605 2.93-.773 5.122-1.505 10.262-1.905 15.422-.095 1.225.967 2.701 1.852 3.765.381.458 2.098.541 2.461.131 1.015-1.148 2.171-2.587 2.319-4.01.429-4.115 2.044-7.848 4.178-11.091 3.359-5.103 7.551-9.624 12.917-12.852.642-.386.996-1.252 1.516-1.938-2.674-1.511-4.647-.122-6.256.956" sketch:type="MSShapeGroup"/><path d="M432.953 49.336c-3.943.825-7.857 1.921-11.843 2.362-2.761.306-4.68-2.558-3.891-5.282.438-1.516 1.363-2.885 1.894-4.382 1.318-3.715 5.358-5.839 9.17-4.816.643.172 1.397-.073 2.099-.125l-.322-.625c-.371-.782-.621-1.662-1.148-2.32-.51-.637-1.307-1.469-1.973-1.464-1.235.009-2.508.456-3.692.912-4.702 1.811-7.93 5.23-9.967 9.744-.795 1.759-1.724 3.773-1.569 5.583.32 3.751 4.399 6.813 8.2 7.139 6.422.551 11.519-2.486 16.539-5.804.426-.281.627-.903.931-1.367-1.709-.15-3.066.16-4.428.445" sketch:type="MSShapeGroup"/><path d="M476.638 40.204c-.499-.543-1.176-1.095-1.625-1.636-.393.436-.949.838-1.329 1.277l-.152.19c-.123.172-.214.35-.254.54-1.003 4.779-1.825 9.597-2.708 14.402l-.433 2.349c.085.25.192.716.395 1.135.626 1.29 1.858 2.279 3.046 1.641 1.057-.567 2.125-2.019 2.285-3.202.696-5.125 1.189-10.288 1.425-15.452.01-.231-.077-.466-.226-.704-.112-.179-.258-.359-.424-.54" sketch:type="MSShapeGroup"/><path d="M253.5 20.059c-1.293-.889-3.265-1.785-4.601.03 1.336-1.815 2.938-.452 4.601-.03" sketch:type="MSShapeGroup"/><path d="M251.781 25.562c2.073-1.252 1.564-3.402 1.719-5.503-1.663-.422-3.265-1.785-4.601.03-1.493 2.028.641 3.202 1.447 4.633.246.438 1.195.985 1.435.84" sketch:type="MSShapeGroup"/><path d="M482.412 23.87l-2.478 1.277c.359.621.673 1.276 1.092 1.854.412.568.895 1.096 1.409 1.575 1.076 1.003 2.448.872 3.24-.027.437-.496.257-2.109-.246-2.725-.727-.891-2-1.335-3.017-1.954" sketch:type="MSShapeGroup"/><path d="M284.438 42.42l.174.439" sketch:type="MSShapeGroup"/><path d="M285.177 44.415l.02.047" sketch:type="MSShapeGroup"/><path d="M284.185 41.881l.213.447" sketch:type="MSShapeGroup"/><path d="M285.657 45.374l.057.088" sketch:type="MSShapeGroup"/><path d="M285.422 44.956l-.039-.08" sketch:type="MSShapeGroup"/><path d="M284.649 42.961l.146.409" sketch:type="MSShapeGroup"/><path d="M284.963 43.849l.036.101" sketch:type="MSShapeGroup"/><path d="M286.02 45.879l-.01-.013.004.007.006.006" sketch:type="MSShapeGroup"/></g></svg>