<svg xmlns="http://www.w3.org/2000/svg" width="1500.112" height="294"><g fill="#21BCEE"><path d="M729.535 137.302c-.211-.267-.413-.537-.595-.816.182.278.378.551.589.817l.006-.001zm5.409-2.458l-.148-.106-.003.014.151.092zm477.715-15.945c1.147 1.38 2.877 2.787 4.152 4.172-1.275-1.385-3.004-2.792-4.152-4.172-1.005 1.111-2.424 2.136-3.397 3.256.973-1.119 2.392-2.144 3.397-3.256zm-482.147 9.365c.145.543.303 1.069.496 1.56-.193-.49-.351-1.016-.496-1.56zm-.447-2.177c.099.692.226 1.348.382 1.97-.156-.622-.283-1.278-.382-1.97zm-640.662.257l-1.167-.348c-.234-2.723-.66-5.445-.667-8.168-.014-6.467-2.986-10.64-8.539-14.047-10.132-6.216-19.345-2.683-27.493 2.846-9.087 6.167-16.967 14.1-25.504 21.103-1.351 1.109-3.398 1.369-5.123 2.022-.321-1.699-.966-3.408-.914-5.095.49-15.804.79-31.621 1.766-47.397.887-14.35 2.447-28.661 3.909-42.969.664-6.489-1.599-10.776-7.822-12.269-2.126-.511-5.596-.238-6.688 1.108-1.091 1.345-.16 4.511.218 6.824.547 3.339 2.244 6.702 1.974 9.932-1.516 18.123-3.886 36.18-5.183 54.314-1.725 24.114-2.213 48.328-7.452 72.081-.535 2.424-1.08 5.691.075 7.464 2.243 3.443 5.692 6.103 8.641 9.088 2.389-2.476 5.08-4.733 7.06-7.5 1.32-1.844 1.667-4.399 2.376-6.659 2.95-9.388 5.964-18.806 12.67-26.305 5.312-5.94 10.795-11.788 16.727-17.089 4.378-3.913 9.243-7.661 14.535-10.072 7.377-3.363 12.271.109 11.667 8.285-.404 5.456-2.104 11.104-4.48 16.064-4.802 10.018-9.263 20.02-10.315 31.232-.443 4.7 1.95 8.393 5.896 9.33 3.395.806 7.688-.184 10.999-1.676 2.376-1.069 3.834-4.243 5.62-6.542 1.802-2.32 2.062-4.544-.451-6.694-2.872-2.457-2.774-5.063-1.482-8.734 3.479-9.892 6.153-20.067 9.147-30.129zm1400.458-74.531c-11.803 2.15-23.553 4.604-35.283 7.129-13.127 2.828-26.206 5.873-39.314 8.793-4.791 1.067-9.571 2.299-14.427 2.883-1.198.145-3.893-2.054-3.812-2.999.528-6.293 1.127-12.663 2.647-18.773 2.523-10.131 1.392-13.56-8.428-19.192-.893 3.96-1.668 7.753-2.626 11.5-.615 2.412-1.852 4.705-2.195 7.137-.958 6.759-1.497 13.576-2.395 20.345-.523 3.951-2.939 6.009-7.021 6.327-11.779.917-23.566 1.803-35.303 3.126-1.79.202-4.311 2.389-4.781 4.124-1.13 4.156 2.995 7.728 8.983 7.76 8.115.042 16.243-.195 24.347-.654 9.561-.542 10.287.14 8.914 9.47-2.245 15.249-4.49 30.496-6.522 45.773-.765 5.753-1.53 11.62-1.212 17.375.325 5.896.362 11.27-4.173 14.87.582 3.112.449 6.065 1.711 8.191 1.485 2.502 4.179 4.285 6.348 6.379 2.068-2.419 5.616-4.644 5.968-7.29 2.546-19.199 4.447-38.484 6.554-57.741 1.122-10.252 2.268-20.502 3.363-30.758.572-5.351 2.714-9.096 8.433-10.665 18.303-5.02 36.562-10.203 54.754-15.61 11.286-3.355 22.411-7.252 33.624-10.856 3.884-1.25 7.815-2.346 12.098-3.625-2.742-5.938-6.969-3.619-10.252-3.019zm-192.832 45.312c-6.277 5.198-11.64 11.487-17.646 17.032-1.694 1.564-4.271 3.25-6.333 3.12-4.96-.31-6.349 2.333-6.844 6.302-.201 1.612.117 3.311-.221 4.879-3.739 17.338-7.631 34.645-11.31 51.996-.868 4.1-.471 8.536-1.733 12.473-4.619 14.394-4.246 29.305-4.709 44.069-.089 2.782 3.724 5.687 5.735 8.533 2.196-1.879 4.69-3.518 6.483-5.724 1.176-1.445 1.614-3.674 1.903-5.622 1.604-10.777 3.238-21.554 4.514-32.373 1.121-9.51 1.638-19.091 2.695-28.611.933-8.387 2.476-9.515 10.539-8.257 23.309 3.634 37.676-6.843 48.534-27.605 3.341-6.391 3.991-14.19 5.589-20.265-.689-4.278-.609-7.344-1.696-9.915-5.926-14.009-23.281-20.149-35.5-10.032zm18.988 35.909c-6.363 6.592-13.751 12.228-20.947 17.968-2.192 1.749-5.055 2.796-7.759 3.739-8.717 3.044-12.798-.248-11.886-9.479 1.168-11.83 5.941-22.006 14.344-30.419 3.637-3.642 6.231-8.036 11.987-9.759 10.244-3.068 20.37-.715 20.543 15.028-2.028 4.372-3.12 9.647-6.282 12.922zm-1028.692-15.653c-4.269 3.66-8.008 7.932-12.019 11.894-1.195 1.182-2.501 2.25-4.785 4.288-1.306-7.734-2.445-13.775-3.325-19.855-1.576-10.879-11.464-16.536-21.13-11.42-4.182 2.213-7.844 5.67-11.209 9.086-2.737 2.777-5.122 4.435-8.935 2.303-3.847-2.151-5.872-.235-6.62 3.475-.646 3.206-.854 6.498-1.465 9.712-1.631 8.575-3.43 17.118-5.053 25.694-1.062 5.611 2.202 11.12 7.284 12.252 6.248 1.39 6.938-3.704 8.489-7.63.529-1.337.669-2.823 1.033-4.23 3.36-12.97 8.863-24.96 16.932-35.661 1.28-1.697 3.791-3.062 5.869-3.276.884-.092 2.482 3.055 3.092 4.944.712 2.202 1.382 4.797.882 6.947-2.458 10.569-4.898 21.178-8.179 31.508-1.969 6.201-2.278 7.034 3.984 10.73 5.366 3.166 6.969 2.585 10.839-2.406 8.359-10.773 16.897-21.412 25.551-31.95 1.06-1.292 3.275-1.635 4.955-2.417.442 1.665 1.446 3.408 1.227 4.981-.814 5.829-1.785 11.663-3.171 17.379-1.192 4.92.728 10.362 4.643 11.437 5.047 1.386 8.43-1.298 9.527-7.579.314-1.792.583-3.591.862-5.39 1.532-9.896 3.458-19.717-.5-29.615-3.514-8.777-11.613-11.345-18.778-5.201zm127.187 53.681c-.546-.47-1.747-.105-2.616-.282-6.75-1.366-10.209-6.162-9.353-13.012.202-1.623.521-3.253.982-4.822 1.688-5.726 3.572-11.396 5.163-17.148 1.151-4.163-.919-7.52-4.396-9.049-3.669-1.612-6.588.607-8.43 4.063-.595 1.116-1.271 2.231-2.113 3.163-7.518 8.323-14.492 17.267-22.827 24.682-6.228 5.538-14.015 9.494-21.506 13.388-5.499 2.856-8.522.461-7.885-5.647.254-2.438 1.415-4.86 2.521-7.113 6.689-13.614 16.85-24.415 28.238-34.135 1.933-1.649 4.609-2.43 7.124-3.703l2.848 5.432c1.613.249 3.184.438 4.733.74 5.01.978 6.418-.12 6.455-5.097.053-7.087-5.103-13.625-12.984-16.466-5.945-2.143-12.666.476-17.885 6.27-12.365 13.729-21.777 29.396-30.598 45.486-5.486 10.006-3.972 13.712 2.366 23.508 2.71 4.189 6.782 5.172 11.514 4.089 9.728-2.225 18.447-5.884 25.384-13.702 4.716-5.316 10.76-9.453 16.95-14.75.873 2.309 1.612 3.761 1.973 5.302 2.599 11.094 11.906 17.637 23.435 16.097 1.868-.25 3.569-1.738 5.347-2.655-1.462-1.568-2.826-3.25-4.44-4.639zm238.839-48.43c1.524 2.405 4.413 4.867 4.315 7.204.098-2.337-1.926-7.204-4.315-7.204zm4.316 7.204c.097-2.337-2.792-4.799-4.315-7.204-2.071 1.318-5.244 2.186-6.007 4.042-2.194 5.341-4.655 11.05-4.798 16.671-.545 21.463-.219 42.948-.219 62.587-1.123 7.124-2.25 12.291-2.701 17.518-1.272 14.763-6.703 27.856-15.563 39.548-1.46 1.929-4.155 2.92-6.281 4.346-1.037-2.601-2.501-5.123-3.004-7.822-.623-3.342-.087-6.905-.774-10.225-.335-1.618-2.133-3.771-3.595-4.065-1.258-.252-3.982 1.542-4.305 2.861-.99 4.041-1.729 8.321-1.493 12.449.568 9.979 4.353 18.484 12.406 25.021 2.738 2.222 4.642 1.845 6.536-.17 3.225-3.427 6.365-6.979 9.153-10.766 8.819-11.979 15.888-25.074 18.774-39.63 3.792-19.111 4.008-38.628 3.54-58.108-.208-8.656-.47-17.342.021-25.972.398-7.056 2.331-14.03 2.625-21.081zm-475.317-29.664c-4.003-1.487-7.886-1.892-10.458 2.696-4.054 7.234-7.438 14.999-12.442 21.51-7.399 9.625-15.834 18.476-24.12 27.385-2.714 2.917-7.055 1.671-7.338-2.192-.568-7.716-1.146-15.681.152-23.221 1.434-8.33 1.593-10.482-6.733-17.123-1.617 4.568-3.719 8.572-4.397 12.803-1.746 10.891-3.505 21.606-1.322 32.984 1.868 9.73 12.915 17.559 20.98 11.762 5.425-3.901 9.37-9.844 14.057-14.798 1.917-2.023 4.045-3.849 6.81-6.455 1.875 7.915 3.047 13.736 4.657 19.437 2.257 7.99 7.61 13.018 15.83 14.363 1.854.304 4.008-1.234 6.025-1.924-1.134-1.839-1.999-3.938-3.469-5.449-1.832-1.881-5.682-3.015-6.012-4.928-1.271-7.377-3.314-15.361-1.692-22.333 2.903-12.479 8.237-24.396 12.583-36.537 1.287-3.602.735-6.553-3.111-7.98zm747.254 51.162c1.665-3.404 3.283-6.866 4.49-10.446 1.248-3.701 2.12-7.663-2.523-9.957-4.847-2.395-8.945.519-10.698 3.874-6.758 12.931-18.928 19.372-30.462 26.429-4.104 2.511-9.551 3.059-14.49 3.804-1.22.185-4.294-2.786-4.06-3.586 1.501-5.123 2.453-11.272 5.924-14.759 5.933-5.963 13.18-11.002 20.684-14.854 3.708-1.903 9.222-.389 13.911-.231 2.408.083 4.804.583 7.204.895-.274-2.714.39-6.099-.989-8.021-5.399-7.526-18.675-10.272-26.157-4.624-12.583 9.5-25.238 19.323-31.225 34.804-1.363 3.528-2.905 7.72-2.21 11.172 2.004 9.951 12.019 14.344 22.781 11.661 9.128-2.277 16.448-7.387 23.656-12.92 6.119-4.696 7.045-4.594 11.747 1.523 5.104 6.643 14.648 7.177 21.667.475-1.793-1.25-3.306-2.658-5.089-3.479-5.976-2.753-7.068-5.818-4.161-11.76zm-187.73 10.766c2.035-5.576 3.91-11.211 5.384-15.459-.032-5.294-.83-7.375-3.531-8.514-.665-.279-4.406-1.279-4.569-1.297-2.997-.343-6.97 6.334-10.062 11.901-5.112 9.201-12.87 15.757-22.71 19.495-5.686 2.159-10.918-1.93-10.555-9.908.033-6.97 6.283-13.134 10.531-20.254.92-1.542 1.839-3.103 2.569-4.739 2.366-5.304 7.47-8.496 13.141-7.843 1.069.125 2.475.958 2.961 1.872.198.371.375.753.544 1.139l.103.234c.156.371.304.744.444 1.122l.095.26.371 1.042.43 1.223.093.256c.144.398.293.795.454 1.188l.051.118c.148.357.307.708.477 1.058l.099.203c.183.363.383.718.602 1.067l.146.223c2.068 3.114 3.672 1.637 3.864.817.243-1.04.206-2.874-1.051-5.683-.49-1.513-1.922-7.83-1.946-8.663-.252-8.753-6.877-12.765-14.391-8.313-4.019 2.382-7.711 5.479-11.102 8.722-10.518 10.057-19.227 20.929-20.696 36.501-1.171 12.416 12.218 26.578 25.421 20.924 3.317-1.42 6.545-3.162 9.557-5.147 4.001-2.638 7.034-2.998 9.818 1.762 3.211 5.487 8.542 7.887 14.745 7.808 1.667-.021 4.562-1.516 4.698-2.608.247-1.976-.53-4.915-1.984-6.12-5.921-4.909-6.687-7.025-4.001-14.387zm283.863-19.465c-8.454-7.538-19.221-5.484-29.055-7.058-4.979-.783-9.994-1.399-14.915-2.451-1.409-.302-3.534-1.831-3.573-2.863-.056-1.454 1.167-3.7 2.468-4.341 8.295-4.09 16.632-8.176 25.267-11.436 2.041-.77 5.938.944 7.792 2.742 2.23 2.163 4.273 3.511 6.314 1.244 1.305-1.45 2.043-4.831 1.233-6.441-1.314-2.618-4.048-4.556-6.283-6.673-5.497-5.205-16.689-5.986-22.592-1.455-7.923 6.083-15.626 12.453-23.631 18.423-3.74 2.789-5.798 6.134-5.022 10.673.875 5.118 3.36 9.714 8.842 10.607 8.736 1.424 17.668 1.661 26.393 3.136 3.581.605 6.84 3.125 10.245 4.774-2.998 1.933-5.911 5.341-9.009 5.518-9.12.521-13.375 6.604-17.261 13.228-.948 1.613-.968 5.122.133 6.261 1.57 1.624 5.012 3.14 6.891 2.491 15.026-5.187 27.972-13.55 37.524-26.583 2.876-3.922 1.682-6.727-1.761-9.796zm-518.925-14.39c-1.294-2.019-3.215-4.734-5.176-5.043-10.206-1.606-20.743-4.813-29.847 3.744-2.189 2.06-5.095 3.584-7.936 4.643-1.928.719-4.816 1.031-6.413.078-5.622-3.359-7.998-2.318-9.322 4.16-1.815 8.879-4.091 17.663-6.166 26.489-.498 2.117-1.186 4.216-1.422 6.362-.489 4.435 4.098 9.851 8.489 10.271 4.507.434 7.268-2.55 8.411-8.093.944-4.579 2.431-9.063 3.935-13.504 3.359-9.909 11.733-15.503 19.628-21.045 3.094-2.172 8.833-3.026 12.133-1.608 2.271.975 3.773 7.106 3.226 10.554-1.035 6.534-3.544 12.888-5.905 19.144-1.983 5.253-.739 13.994 3.756 17.085 4.508 3.099 9.275 2.172 14.475-1.786-5.392-7.328-2.576-14.377-.584-21.929 2.566-9.74 4.817-20.007-1.282-29.522zm343.731-13.941c-2.563-.667-6.379-.081-8.423 1.529-4.817 3.793-8.906 8.513-13.285 12.863-6.549 6.503-13.093 13.009-19.64 19.516l-1.866-.655c-.288-2.036-.764-4.068-.836-6.112-.275-7.793-.071-15.626-.877-23.358-.189-1.807-3.709-4.626-5.572-4.532-2.023.102-5.333 2.865-5.597 4.806-1.07 7.903-1.489 15.932-1.569 23.921-.066 6.697.468 13.422 1.125 20.097.421 4.274 1.169 8.598 2.452 12.684 1.615 5.142 9.046 5.973 12.072 1.046 5.786-9.422 12.096-18.551 18.63-27.479 6.125-8.369 12.684-16.323 22.51-21.01 2.574-1.229 4.776-4.812 5.489-7.72.366-1.504-2.601-5.072-4.613-5.596zm327.623-21.828c-7.943 5.312-15.18 11.728-22.44 17.998-3.405 2.94-6.293 5.778-10.507 1.484-1.838-1.875-3.943-4.71-6.601-2.42-2.039 1.758-3.694 4.793-4.1 7.476-1.976 13.068-3.847 26.181-4.869 39.346-.243 3.126 2.47 6.894 4.732 9.607.973 1.168 5.362 1.38 6.287.334 2.595-2.93 5.549-6.601 5.928-10.232 1.097-10.497 5.224-20.022 10.676-28.295 8.582-13.02 19.294-24.556 33.006-32.79 1.641-.985 2.547-3.195 3.874-4.944-6.831-3.858-11.875-.313-15.986 2.436zm-72.984 53.895c-10.075 2.104-20.076 4.9-30.262 6.026-7.056.78-11.959-6.525-9.944-13.476 1.121-3.869 3.484-7.362 4.842-11.182 3.367-9.477 13.69-14.897 23.432-12.286 1.643.44 3.569-.187 5.364-.319l-.823-1.593c-.949-1.998-1.589-4.241-2.935-5.919-1.304-1.626-3.34-3.749-5.042-3.736-3.154.022-6.408 1.164-9.433 2.326-12.016 4.622-20.265 13.345-25.471 24.86-2.03 4.49-4.403 9.626-4.008 14.246.816 9.57 11.24 17.381 20.953 18.213 16.409 1.406 29.435-6.343 42.264-14.808 1.087-.717 1.6-2.305 2.379-3.488-4.367-.382-7.836.409-11.316 1.136zm111.63-23.299c-1.275-1.386-3.005-2.792-4.152-4.172-1.005 1.111-2.424 2.136-3.397 3.256-.139.16-.269.322-.387.486-.315.438-.548.894-.649 1.376-2.563 12.194-4.664 24.486-6.919 36.746-.327 1.779-.658 3.559-1.108 5.991.218.64.49 1.828 1.011 2.897 1.6 3.291 4.747 5.814 7.783 4.188 2.701-1.447 5.43-5.15 5.84-8.172 1.777-13.073 3.036-26.246 3.64-39.422.025-.589-.195-1.189-.576-1.797-.289-.455-.663-.915-1.086-1.377zm-570.191-51.397c-3.302-2.267-8.343-4.554-11.755.076 3.411-4.629 7.505-1.153 11.755-.076zm-4.392 14.041c5.297-3.195 3.997-8.679 4.392-14.041-4.25-1.077-8.343-4.554-11.755.076-3.815 5.175 1.639 8.17 3.697 11.822.627 1.116 3.053 2.513 3.666 2.143zm589.338-4.319l-6.335 3.26c.919 1.584 1.722 3.255 2.792 4.729 1.052 1.449 2.287 2.796 3.6 4.019 2.751 2.56 6.257 2.226 8.28-.069 1.117-1.265.657-5.379-.629-6.953-1.857-2.273-5.11-3.404-7.708-4.986zm-505.888 47.328c.156.371.304.744.444 1.122"/><path d="M727.566 133.817l.051.118"/><path d="M725.032 127.352c.198.371.375.753.544 1.139"/><path d="M728.794 136.263l.146.223"/><path d="M728.193 135.196l-.099-.203"/><path d="M726.218 130.107l.371 1.042"/><path d="M727.02 132.373l.093.256"/><path d="M729.722 137.551l-.027-.033.012.016.015.017z"/></g></svg>