<svg xmlns="http://www.w3.org/2000/svg" width="670.667" height="72.758"><path d="M647.711 3.191c-.904-.274-1.741.032-2.226.779-1.005 1.558-2.036 3.127-2.794 4.81-3.332 7.398-6.586 14.83-9.83 22.267-1.305 2.994-3.06 4.473-6.777 4.68-10.26.571-17.988 7.811-18.292 16.25-.149 4.125 2.232 6.312 6.334 5.582 1.457-.258 9.472-2.333 9.472-2.333s.896 2.07 1.013 4.314c.034.675-.032 1.358.029 2.029.197 2.174.021 4.722 3.236 4.73 3.495.011 2.934-2.641 2.748-4.757-.614-6.988 1.267-13.26 4.417-19.482 5.271-10.41 9.322-21.367 13.157-32.385.486-1.397.529-2.966.651-4.466.068-.842-.15-1.72-1.138-2.018zm-30.768 47.294c-.928.325-1.987-.394-2.184-1.604-.228-1.411 4.729-5.962 6.36-5.935 1.297.022 1.782.741 1.835 2.127-.852 2.9-3.248 4.445-6.011 5.412zm-587.82-4.414c-4.415 4.917-9.286 8.498-14.381 11.797-1.289.835-2.673 1.855-4.145.656-1.17-.954-1.016-2.417-.623-3.781 4.637-16.093 9.249-32.193 13.944-48.268.576-1.969 1.548-4.033 4.252-3.238 3.084.907 2.334 3.243 1.688 5.396-3.104 10.374-6.24 20.737-9.344 31.109-.425 1.419-1.625 3.321-.267 4.251 1.954 1.339 2.686-1.267 3.893-2.19 2.819-2.155 5.543-4.436 8.283-6.693 1.854-1.526 3.875-2.354 5.98-.744 1.931 1.478.921 3.43.207 5.096-2.728 6.356-4.02 12.897-2.869 19.796.332 2.007-.489 3.424-2.313 3.945-2.067.593-3.254-.881-3.681-2.599-.775-3.11-1.48-6.286-.563-9.518.404-1.424 1.212-2.811-.061-5.015zm248.292-40.657c-1.749 6.419-3.775 13.917-5.845 21.402-.585 2.116-1.279 4.204-1.947 6.297-.943 2.96-.048 4.671 3.227 4.565 5.292-.169 6.495 2.757 6.345 7.447-.264 8.238-4.268 15.618-5.06 23.71-.147 1.498-1.11 2.521-2.756 2.341-1.512-.164-2.396-1.18-2.71-2.636-.68-3.147.214-6.057 1.612-8.801 1.662-3.259 2.356-6.68 2.154-10.293-.085-1.504-.082-3.243-1.95-3.726-1.882-.488-3.432.511-4.26 2.046-1.438 2.666-2.72 5.444-3.777 8.282-.897 2.403-2.205 4.887-4.818 4.138-2.925-.84-2.094-3.861-1.443-6.093 1.795-6.16 3.376-12.424 5.749-18.365 4.094-10.246 7.09-20.764 9.283-31.541.428-2.105 1.146-4.297 3.543-4.183 2.217.107 2.636 2.264 2.653 5.41zm-60.372 45.531c3.837-1.086 5.649-3.5 8.066-4.979 5.833-3.57 6.639-3.432 9.506 2.559.495 1.036.943 2.092 1.603 3.561 6.358-5.633 10.067-12.891 14.933-19.227.617-.805 1.171-1.66 1.755-2.489 1.025-1.453 2.165-2.896 4.105-1.505 1.909 1.368 1.637 3.185.463 4.915-2.373 3.49-4.721 7-7.215 10.4-3.493 4.76-6.933 9.577-10.726 14.093-3.898 4.64-7.868 4.005-10.284-1.703-1.843-4.359-3.827-4.173-6.893-1.329-2.972 2.758-6.139 5.331-9.751 7.246-1.117.592-2.234 1.802-3.652.58-1.143-.985-1.32-2.3-1.113-3.708.47-3.202 1.525-6.217 2.734-9.213 1.693-4.205 3.935-8.23 3.888-13.017-.019-2.1.897-4.302 3.527-4.014 2.431.267 3.122 2.363 3.036 4.57-.173 4.436-2.577 8.285-3.982 13.26zm367.052-44.686c-1.987.26-2.619 1.946-3.342 3.428-3.335 6.827-6.565 13.704-9.916 20.522-1.865 3.795-3.879 6.819-8.844 7.982-6.397 1.499-12.118 5.383-15.731 11.096-3.161 4.999-.83 8.583 4.831 9.05 1.325.11 5.959-.317 5.959-.317s-.896 1.572-.782 2.484c.197 1.547 1.137 2.557 2.614 2.629 1.659.079 2.09-1.547 2.697-2.676 5.05-9.362 10.17-18.691 15.01-28.162 3.528-6.903 6.694-13.994 9.961-21.028 1.182-2.548 1.121-4.657-2.457-5.008zm-21.687 40.616c-.424 2.488-5.334 6.653-7.914 6.517-.912-.153-1.934-.377-1.972-1.708-.059-2.113 5.854-6.745 8.292-6.626 1.279.061 1.827.452 1.594 1.817zm-215.998-32.114c-1.225 5.511-2.31 10.967-3.681 16.348-.676 2.649-1.352 4.824 2.688 4.461 1.042-.095 2.062.117 2.438 1.307.408 1.289-.145 2.293-1.081 3.141-.125.113-.242.288-.388.32-9.544 2.08-9.624 10.969-12.727 17.68-.354.767-.618 1.583-1.053 2.299-.803 1.326-1.053 3.754-3.37 2.805-2.106-.864-2.777-2.876-2.062-5.111.926-2.889 1.936-5.752 2.929-8.62 1.086-3.136.006-4.944-3.302-5.243-1.957-.177-4.02-.346-3.812-2.915.197-2.458 2.386-2.822 4.228-2.509 6 1.017 8.035-2.493 9.229-7.419 1.389-5.724 3.033-11.385 4.486-17.095.452-1.778 1.063-3.408 3.187-3.207 2.257.216 2.294 2.094 2.291 3.758zm-228.657 45.3c-3.337.741-6.726.272-9.982-.805-1.257-.415-1.921-1.364-1.828-2.704.101-1.406.956-2.15 2.338-2.111 5.396.154 8.042-3.799 10.774-7.394 1.882-2.473 4.473-5.345 1.207-8.449-2.839-2.699-6.205-2.148-9.368-.27-6.625 3.937-10.536 9.862-12.245 17.258-1.152 4.999 1.66 9.042 6.803 9.86 2.66.424 5.374.506 7.795.719 1.797 0 3.316.025 4.834-.005 2.428-.051 4.586-.761 4.428-3.641-.174-3.139-2.236-3.018-4.756-2.458zm-8.712-12.293c.583-2.422 1.786-4.39 4.528-4.751 1.068-.142 2.172.105 1.811 1.581-.619 2.517-2.416 3.896-4.565 4.597-1.163-.063-2.049-.287-1.774-1.427zm200.072 2.299c.068 2.877.058 5.481 2.656 7.422 1.734 1.296 2.633 3.57.607 5.221-2.018 1.646-3.575-.202-5.198-1.511-2.513-2.026-1.636-7.259-5.143-7.194-2.515.045-4.841 3.393-7.493 4.819-2.75 1.479-5.641 1.058-7.874-1.277-2.296-2.4-.808-4.762.569-6.896 2.104-3.26 4.354-6.427 6.601-9.593 2.249-3.169 12.802-6.171 16.61-4.816 1.405.501 2.457 1.188 2.072 2.913-.45 2.021-1.996 1.967-3.575 1.878-5.945-.334-10.562 1.659-13.158 7.369-.502 1.103-1.416 2.217-.138 3.104.97.676 1.863-.339 2.593-1.02 1.235-1.152 2.371-2.42 3.662-3.506 1.684-1.418 3.651-3.039 5.863-2.136 2.347.957 1.642 3.385 1.346 5.223zm-241.593 5.262c-1.142-1.818-2.777-.668-4.023.023-1.864 1.033-3.816 1.374-5.866 1.282-2.516-.112-5.437.165-6.198-3.099-.667-2.854.317-5.087 2.967-6.895 3.193-2.179 6.044-4.877 8.947-7.461 2.479-2.206 5.005-4.605 1.891-8.08-2.524-2.817-7.335-2.934-10.068-.185-4.092 4.115-7.462 8.787-9.309 14.354-3.439 10.365 1.229 17.13 12.326 17.084 2.437.047 5.518-.103 8.048-2.116 1.556-1.237 2.472-3.021 1.285-4.907zm-10.961-19.68c.682-.784 1.717-1.308 2.619-.627 1.119.845.314 1.856-.369 2.504-1.849 1.75-3.271 4.065-6.181 4.921.265-3.053 2.244-4.854 3.931-6.798zm545.305 5.789c-1.078-2.89-3.86-2.138-6.125-2.387-5.708-.062-9.976 1.997-15.474 7.469-4.405 4.385-4.856 11.061-1.008 14.955 4.515 4.572 12.733 5.004 17.064.919 1.268-1.195 2.722-2.454 1.432-4.279-1.072-1.516-2.722-1.064-4.099-.228-2.148 1.304-4.427 1.815-6.778.92-1.778-.677-3.453-1.86-3.165-4.071.34-2.625 2.478-1.608 4.02-1.594 4.646.046 8.392-2.174 11.761-4.963 1.976-1.634 3.398-3.991 2.372-6.741zm-14.55 6.854c2.744-2.416 4.381-4.655 7.781-3.95-1.172 3.836-4 3.838-7.781 3.95zm-123.154 1.671c.353 5.084-3.715 10.387-1.252 16.293.465 1.111-.814 2.158-2.145 2.298-1.931.205-3.266-.774-3.939-2.51-1.305-3.348-.24-6.664.327-9.971.338-1.971 1.523-4.485-.174-5.738-1.999-1.474-4.096.745-5.89 1.736-2.632 1.457-4.926 3.519-7.473 5.15-1.42.909-3.053 1.633-4.533-.121-1.261-1.497-1.458-3.199-.268-4.636 3.563-4.307 7.023-8.588 7.756-14.443.156-1.252 1.501-1.822 2.816-1.484 1.8.463 2.469 2.029 2.163 3.54-.848 4.167.772 4.274 3.97 2.9 6.954-2.986 9.185-1.292 8.642 6.986zm39.356 15.313c-2.91-1.237-3.833-3.855-2.582-6.218 7.648-14.435 11.363-30.357 17.507-45.35.321-.781.608-1.582.995-2.329.679-1.301 1.746-2.262 3.253-1.831 1.907.546 1.309 2.19.902 3.377-5.677 16.635-11.408 33.25-17.142 49.865-.467 1.356-1.307 2.341-2.933 2.486zm-431.279-3.674c.609-4.406 3.521-8.485 3.443-13.386-.038-2.503.46-5.042.951-7.517.621-3.128 2.636-4.242 4.959-1.856 2.05 2.105 2.817 1.186 4.138-.5 2.415-3.083 4.998-6.014 9.411-6.104 1.284-.027 2.382.215 2.978 1.433.549 1.118.055 2.015-.947 2.533-10.965 5.661-14.313 16.505-18.213 26.918-.723 1.929-1.363 3.675-3.628 3.379-2.51-.331-2.849-2.523-3.092-4.9zm415.382 2.103c-5.625.072-10.687-1.626-13.042-6.899-2.377-5.322-.151-10.132 3.759-14.25 3.834-4.038 7.764-7.568 13.979-6.244 1.515.321 3.218.286 3.256 2.365.037 2.05-1.4 2.46-3.113 2.323-6.531-.523-8.975 4.485-11.66 8.891-1.303 2.14-.121 4.186 1.632 5.844 2.285 2.158 4.914 3.112 7.863 1.888 1.763-.732 3.167-2.934 5.306-.934 1.066.998 1.284 2.43.863 3.767-.807 2.571-3.078 2.838-5.308 3.041-1.175.106-2.357.14-3.535.208zm-346.321-4.354c-2.979.084-5.145-.193-7.012-1.545-1.251-.905-2.636-2.03-1.806-3.722.693-1.415 2.143-2.016 3.88-1.634 1.745.382 3.988 1.507 5.114-.328 1.086-1.769-.862-3.452-1.809-4.946-6.087-9.615 3.077-18.497 9.992-18.138 1.9.098 4.081.257 4.374 2.548.337 2.644-1.646 3.111-3.918 3.44-6.487.941-7.956 4.346-4.435 9.795.55.851 1.136 1.678 1.717 2.509 1.93 2.76 2.148 5.674.516 8.593-1.589 2.846-4.264 3.654-6.613 3.428zm385.311.513c-4.676.987-6.129-1.831-6.392-5.012-.395-4.76 1.094-9.33 2.675-13.8.538-1.521 1.742-2.087 3.205-1.81 1.914.362 1.502 1.88 1.36 3.224-.301 2.846-.581 5.696-.86 8.545-.148 1.507-.564 3.285 1.465 3.76 1.894.442 3.274-.854 4.14-2.319 2.003-3.393 2.204-7.38 3.308-11.076.607-2.033.395-5.106 3.522-4.316 3.175.802 2.202 3.564 1.467 5.894-1.062 3.369-1.684 6.925-3.129 10.114-2.108 4.653-5.76 7.445-10.761 6.796zm-163.008-18.209c-1.945 1.041-1.434 2.768-.479 4.427 1.887 3.279 3.279 6.638 2.784 10.541-.466 3.663-2.784 5.791-6.08 6.618-2.88.722-5.749.268-7.629-2.53-1.048-1.557-2.225-3.299-1.018-5.106 1.491-2.23 3.266-.809 4.797.197 1.041.682 1.998 1.415 3.09.215 1.045-1.152.771-2.505.43-3.833-.912-3.561-3.191-6.78-2.763-10.67.244-2.223.729-4.384 3.151-5.346 2.492-.989 4.599-.227 6.523 1.437 1.195 1.035 2.363 2.11 1.408 3.839-.753 1.368-1.895 1.875-4.214.211zm69.655-6.912c-.448 9.818-4.323 18.403-9.276 26.598-.864 1.43-1.705 3.292-3.866 2.131-2.45-1.316-1.818-3.454-.783-5.285 4.045-7.14 6.48-14.87 8.586-22.731.174-.653.34-1.311.565-1.947.495-1.397-.373-4.112 2.304-3.548 2.154.453 2.96 2.587 2.47 4.782zm-301.957-7.576c.03-4.13 1.946-6.895 4.004-9.541.855-1.104 2.168-1.721 3.536-.769 1.202.838 1.757 2.177 1.228 3.532-1.207 3.092-2.544 6.138-3.981 9.129-.424.881-1.445 1.542-2.532 1.155-1.871-.67-2.202-2.32-2.255-3.506zm523.035 15.379c.524-3.933 4.071-6.434 7.786-5.817 2.19.365 3.312 1.529 2.952 3.813-.26 1.663-7.183 5.802-9.109 5.343-2.009-.476-1.626-2.186-1.629-3.339zm7.225 25.209c.308 2.642.516 5.17-3.482 4.994-3.358-.147-3.6-2.211-3.572-4.833.03-2.991.965-5.011 4.32-4.825 3.072.17 3.492 2.095 2.734 4.664zm-296.992-51.367c2.62-.003 5.588.578 5.301 3.396-.284 2.804-3.782 3.339-6.174 3.808-2.146.42-3.181-1.544-3.269-3.618-.124-2.939 1.655-3.773 4.142-3.586zm72.75-1.635c-.679-.398-1.542-.428-2.271-.139-.301-.13-.647-.208-1.045-.208-1.432 0-2.239.972-2.42 2.066-.487.465-.799 1.115-.799 1.829 0 1.384 1.155 2.542 2.541 2.541.771 0 1.607.01 2.332-.279 1.156-.463 1.994-1.221 2.572-2.334.641-1.229.329-2.75-.91-3.476z" fill-rule="evenodd" clip-rule="evenodd" fill="#126D8F"/></svg>