<svg xmlns="http://www.w3.org/2000/svg" width="725.157" height="107.255"><path d="M18.777 39.103c4.87-2.738 7.634-6.556 12.147-8.045 6.816-2.249 11.307.596 11.487 7.913.102 4.07-.424 8.083-1.154 12.08-.442 2.426-1.605 4.812.246 7.278 1.354 1.804 1.098 3.626-1.368 4.298-2.209.602-3.811-.514-3.973-2.699-.211-2.846-.087-5.743.183-8.591.369-3.893.515-7.75-.135-11.622-.586-3.501-1.953-4.385-5.032-1.988-6.864 5.34-13.271 10.989-16.475 19.438-.542 1.426-.871 3.735-3.234 3.044-1.782-.521-2.47-2.23-2.341-4.085.149-2.182-.042-4.513.671-6.51 4.942-13.863 6-28.365 7.365-42.826.046-.504.006-1.017.065-1.52.284-2.4.865-5.468 3.522-5.256 2.651.212 2.132 3.328 2.013 5.503-.593 10.941-2.197 21.774-3.987 33.588zm80.557-5.699c-.909-2.148-3.052-2.019-4.817-1.26-1.511.648-2.869 1.743-4.15 2.814-2.752 2.302-3.713 7.272-9.08 5.735-.672-.193-1.958 1.64-2.91 2.584-2.034 2.02-3.778 4.457-6.11 6.021-3.556 2.385-6.62 5.884-11.374 6.056-1.484.053-3.314.563-4.048-1.182-.801-1.911 1.004-2.668 2.269-3.369 3.675-2.034 6.176-5.208 8.464-8.557 1.369-2.004 3.575-4.117 1.223-6.742-2.177-2.428-4.997-3.445-8.237-2.544-5.225 1.45-12.159 10.788-12.118 16.188.068 8.866 4.672 12.376 13.223 11.219 4.961-.672 7.925-4.265 11.93-6.255 2.527-1.254 3.566-1.738 4.491 1.444.509 1.755.533 4.72 3.021 4.747 2.673.029 3.495-2.814 4.491-4.872.648-1.343.636-3.004 1.275-4.355 2.493-5.271 4.151-11.176 9.839-14.208 1.49-.795 3.565-1.232 2.618-3.464zm-36.993 4.803c-.382 4.669-2.835 7.065-6.92 9.991 1.132-4.986 2.242-8.321 6.92-9.991zm176.622 5.127c3.776-1.382 6.353-3.771 8.995-6.112 1.818-1.611 3.85-2.775 6.449-1.479 2.661 1.327 2.832 3.646 2.422 6.07-.68 3.991-1.351 8.004-2.396 11.906-.961 3.583-2.47 7.002-2.176 10.854.133 1.754-.226 3.644-2.574 3.52-2.159-.112-2.658-1.859-2.586-3.679.123-3.042.287-6.091 1.321-9.007.397-1.116.801-2.232 1.128-3.369.768-2.665 1.383-6.162-.83-7.486-1.78-1.064-3.601 2.214-5.266 3.774-5.498 5.156-9.674 11.224-12.692 18.112-.792 1.808-1.902 3.528-4.173 2.616-2.195-.882-2.015-3.06-1.45-4.83 1.489-4.664 3.03-9.327 4.876-13.856 4.738-11.625 6.989-23.985 10.875-35.855.602-1.836.513-5.399 3.568-4.357 3.066 1.044 1.236 3.983.657 6.166-1.947 7.354-3.907 14.706-5.868 22.057-.39 1.464-.864 2.915-.28 4.955zm384.339 18.225c-2.62 1.474-5.395 1.858-8.326 1.701-1.851-.109-3.766.042-5.534-.397-1.894-.468-4.607-.979-4.761-3.107-.172-2.359 2.721-1.853 4.303-2.538 6.509-2.819 13.246-5.397 17.198-11.816 2.02-3.281 2.849-7.17.628-10.553-2.067-3.149-5.514-1.402-8.438-1.106-.504.051-1.021.063-1.506.194-8.076 2.187-15.44 5.866-18.859 13.825-1.705 3.969-2.512 7.878-7.141 9.358-.993.318-1.865 1.107-1.648 2.258.281 1.494 1.611 1.486 2.814 1.511 1.638.034 3.21-.306 4.642 1.219 5.076 5.407 11.644 6.357 18.624 5.715 3.5-.322 7.171-.204 9.753-3.311.603-.727 1.946-1.105 1.315-2.38-.699-1.409-2.027-1.157-3.064-.573zm-19.026-12.041c.768-4.443 8.009-10.576 12.433-10.45 1.257-.035 2.333.247 2.796 1.602.54 1.584.268 3.105-.952 4.163-3.576 3.102-7.848 5.069-12.177 6.833-1.712.697-2.418-.319-2.1-2.148zm-399.617-.267c.678 2.26-2.378 5.942.774 7.085 2.292.832 3.312-3.256 4.86-5.128 4.512-5.466 9.217-10.873 10.742-18.151.327-1.555 1.159-3.033 3.108-2.559 2.146.521 2.364 2.344 1.868 4.07-3.656 12.721-10.262 23.484-21.297 31.139-2.575 1.786-4.347 1.113-4.865-2.317-.438-2.896.857-7.346-2.025-8.285-3.289-1.072-4.631 3.676-7.106 5.541l-.371.346c-2.589 1.633-4.661 5.714-8.13 3.751-3.429-1.939-1.306-5.797-.915-8.823.648-5.028 1.519-10.027 2.255-15.044.224-1.531.229-3.344 2.414-3.058 2.107.276 1.859 2.148 1.733 3.622-.199 2.347-.679 4.67-.882 7.018-.133 1.527-.042 3.18 1.661 3.905 1.687.719 2.981-.4 4.053-1.43 1.703-1.639 3.174-3.518 4.825-5.212 1.448-1.487 2.371-4.352 5.077-3.311 2.984 1.146 2.518 4.033 2.221 6.841zm167.154-3.297c-.314 6.391.885 11.716 4.248 16.491 1.954 2.771 3.591 3.319 5.469-.071 2.127-3.842 4.501-7.541 6.021-11.702.52-1.416 1.258-2.791 2.119-4.029.823-1.184 1.742-2.942 3.563-1.905 1.567.89 1.266 2.501.71 4.063-2.621 7.369-6.204 14.247-10.961 20.423-6.982 9.067-11.41 19.406-15.544 29.925-.738 1.879-1.391 3.803-2.282 5.609-.575 1.164-1.344 2.581-3.061 1.935-1.647-.62-1.602-2.262-1.207-3.474 1.034-3.19 2.197-6.364 3.617-9.401 3.073-6.572 6.063-13.212 9.643-19.509 1.867-3.286 1.531-6.009-.711-8.239-6.716-6.68-7.134-14.972-6.703-23.572.102-2.022.11-4.507 2.992-4.324 2.751.175 1.896 2.69 2.06 4.384.13 1.339.027 2.701.027 3.396zm-51.575-11.581c-1.451 2.465-3.604 3.593-6.138 3.981-5.447.833-8.014 3.832-8.804 9.392-.62 4.357-.974 8.72-1.45 13.081-.172 1.556-.5 3.299-2.503 3.184-2.03-.118-2.106-2.004-2.071-3.476.104-4.225.46-8.442.562-12.666.055-2.229.144-4.631-3.528-3.292-2.102.767-3.765-.515-4.159-2.596-.452-2.397 1.742-2.749 3.295-2.905 5.875-.589 7.889-4.306 9.412-9.525 1.786-6.115 4.713-11.906 7.312-17.764.529-1.192 1.199-3.301 3.211-2.272 1.634.834 1.293 2.629.767 4.1-1.646 4.616-3.348 9.213-5.076 13.8-.82 2.179-2.481 4.431-.718 6.643 1.589 1.991 3.786.22 5.715.159 1.283-.041 2.584-.781 4.173.156zm129.018 20.863c-1.111.632-2.304 1.273-3.458 1.974-3.023 1.835-5.93 3.816-9.398 4.891-3.159.979-4.984-.467-6.943-2.562-2.062-2.202-.788-4.031.22-5.928 2.219-4.173 4.49-8.319 6.791-12.446.733-1.314 1.58-3.03 3.431-2.111 1.643.816 1.401 2.65.796 4.051-1.136 2.633-2.548 5.146-3.794 7.734-.735 1.527-1.677 3.254-.121 4.673 1.536 1.4 2.719-.262 4-.939 5.463-2.886 10.017-6.824 13.99-11.545 1.272-1.516 2.626-4.34 5.229-2.568 2.593 1.766.532 3.767-.476 5.697-2.498 4.784-3.989 9.731-1.172 14.959.731 1.354 1.823 2.925.019 3.951-1.431.814-2.935-.163-4.043-1.342-1.681-1.788-2.099-4.211-3.147-6.318-.434-.869-.539-2.022-1.924-2.171zm118.046 15.258c.854-8.726 3.434-16.791 5.441-24.972 2.658-10.822 5.766-21.522 10.246-31.763.838-1.917 1.377-4.832 4.384-3.659 3.116 1.215 1.249 3.806.64 5.676-4.345 13.334-8.815 26.626-13.255 39.928-1.563 4.686-2.133 9.527-2.05 14.424.043 2.395-.717 4.334-3.104 4.331-2.551-.004-2.3-2.384-2.302-3.965zm140.866-12.321c.378-2.172 1-5.487 1.512-8.819.234-1.534.209-3.31-1.248-4.122-1.328-.739-2.449.572-3.563 1.319-5.383 3.619-8.515 9.016-11.677 14.438-.712 1.223-1.159 3.846-3.466 2.524-2.105-1.207-1.017-3.014-.237-4.845 2.301-5.407 5.262-10.532 6.115-16.563.394-2.785 2.377-5.483 5.412-1.712 1.705 2.118 3.175 1.275 4.768.133 2.559-1.835 5.429-2.44 8.053-.731 2.658 1.73 2.045 4.833 1.786 7.483-.408 4.181-2.213 8.139-1.876 12.48.184 2.341.14 5.521-3.073 5.312-3.241-.21-2.417-3.418-2.506-6.897zm-601.878 7.658c-7.942-.039-12.576-6.304-10.069-13.979 1.915-5.866 5.55-10.817 10.519-14.614 2.164-1.656 4.671-2.399 6.929-.319 2.435 2.244 1.916 4.766.111 7.267-2.868 3.972-5.365 8.278-10.951 9.027-2.403.323-2.337 2.372-1.65 3.94 1.233 2.818 3.322 4.897 6.723 3.869 1.552-.47 2.886-1.707 4.272-2.664 1.119-.772 2.293-1.917 3.552-.622 1.453 1.498.211 2.995-.812 3.96-2.466 2.325-5.108 4.515-8.624 4.135zm401.479-9.171c-1.908-14.482 5.502-26.454 10.573-39.032.702-1.741 2.165-3.437 4.315-2.616 2.616.999.973 3.058.666 4.746-1.464 8.042-6.671 14.665-8.344 22.709-1.588 7.643-3.062 15.179-2.244 23.027.191 1.833 1.078 4.648-1.95 4.796-2.631.13-2.791-2.642-2.949-4.545-.252-3.008-.067-6.055-.067-9.085zm-225.772-11.903c-.135 1.602-1.229 1.875-2.809 1.696-5.167-.584-9.958 2.381-11.651 7.025-.446 1.228-.654 2.348.562 3.149 1.282.845 2.191.039 3.046-.892 1.145-1.247 2.287-2.504 3.523-3.659 3.187-2.975 6.275-2.582 8.04 1.432 1.055 2.395 1.263 5.192 1.648 7.838.196 1.349-.886 2.14-2.041 2.594-1.723.675-2.738-.577-3.113-1.791-1.583-5.146-4.226-3.05-6.48-.88-3.029 2.916-6.082 3.709-9.395.858-3.496-3.007-3.135-6.553-.605-9.939 2.914-3.901 5.275-8.397 9.955-10.616 4.063-1.928 9.215-.214 9.32 3.185zm-144.252 11.194c-.366 7.35-3.978 11.657-10.179 12.435-1.976.248-3.724-.051-5.164-1.437-1.041-1.002-2.906-1.837-2.088-3.621.918-1.999 2.696-1.379 4.392-.807 5.315 1.793 8.6-.993 7.337-6.576-.85-3.753-2.798-7.252-3.735-10.994-.641-2.553-2.683-6.029.807-7.739 3.588-1.757 7.605-1.094 11.18.875.938.516 1.26 1.591.86 2.667-.565 1.525-1.761 1.303-2.946.925-5.207-1.653-4.53 1.085-3.239 4.313 1.303 3.263 3.398 6.312 2.775 9.959zm348.113 4.462c.56-3.035.475-6.517 1.842-9.281 4.778-9.656 7.798-20.228 14.672-28.809.97-1.211 1.546-3.809 3.549-2.643 2.146 1.252 1.317 3.658.153 5.403-4.603 6.895-7.613 14.599-11.397 21.909-2.247 4.341-3.419 8.737-3.034 13.645.151 1.938 1.108 5.083-2.124 5.2-3.049.11-3.188-2.921-3.661-5.424zm205.444-24.88c.009 1.417-.549 2.049-1.338 2.413-8.731 4.011-11.174 12.495-14.524 20.34-.521 1.22-.957 2.542-1.761 3.557-.863 1.09-2.188 1.622-3.596.766-1.144-.694-1.609-1.732-1.098-3.016 3.228-8.076 5.658-16.598 12.078-22.956 2.238-2.215 5.106-3.21 8.344-2.681 1.153.189 1.629 1.018 1.895 1.577zm-217.98-1.47c.486-6.606 4.553-11.185 7.187-16.401.408-.807 1.34-1.047 2.202-.713 1.088.419 1.563 1.492 1.372 2.462-.356 1.792-.908 3.578-1.623 5.262-1.435 3.376-3.916 6.266-4.342 10.135-.162 1.475-1.196 3.193-3.008 2.667-1.565-.454-1.736-2.285-1.788-3.412zm-354.002-9.554c-.28-1.983-.504-3.978-.861-5.947-.212-1.163-.746-2.391.613-3.117 1.619-.863 2.464.529 3.317 1.476 1.941 2.149 2.201 10.195.418 12.425-.383.478-1.048 1.053-1.563 1.034-1.068-.041-1.93-.895-2.11-1.868-.238-1.288-.059-2.651-.059-3.984l.245-.019zm542.239 34.264c-3.199-.733-3.181-3.247-2.577-5.572.583-2.261 1.796-4.356 2.701-6.537 1.66-3.997 2.275-7.93-1.728-10.941-3.591-2.702-7.13-1.275-10.306.892-3.753 2.562-7.117 5.729-10.988 8.079-3.92 2.38-6.029 5.971-7.479 9.886-2.513 6.778 2.134 12.547 8.665 11.213 3.091-.632 5.49-2.533 7.91-4.375 2.18-1.66 4.089-2.763 6.279.273 1.357 1.883 3.891 1.766 6.473 1.87 1.479-.47 4.262.5 4.821-2.038.613-2.769-2.062-2.358-3.771-2.75zm-5.628-12.278c-3.7 5.981-9.081 10.291-15.085 13.823-1.253.737-2.696.635-3.683-.542-1.145-1.366-1.419-3.043-.896-4.759.757-2.48 14.447-12.81 17.386-12.897 2.451.291 3.844 1.845 2.278 4.375zm-240.569-5.711c-6.954.647-14.07 10.585-12.105 17.273.802 2.729 2.34 5.452 5.604 5.92 7.341 1.05 15.542-6.415 15.629-14.051.074-6.547-3.079-9.705-9.128-9.142zm-3.584 17.347c-2.331.101-3.489-1.086-3.658-3.182-.234-2.911 4.755-9.206 7.291-9.332 4.491-.222 2.572 3.818 3.779 5.399.048 3.724-3.592 6.951-7.412 7.115z" fill-rule="evenodd" clip-rule="evenodd" fill="#126D8F"/></svg>