<svg xmlns="http://www.w3.org/2000/svg" width="1488.059" height="394.083"><path fill-rule="evenodd" clip-rule="evenodd" fill="#126D8F" d="M759.979 74.456c-2.885-7.58-8.671-11.297-16.645-10.746-13.656.943-27.282 2.319-43.883 3.773 4.522-15.584 8.711-30.013 13.011-44.817-7.594-4.001-9.469 2.685-10.998 7.336-3.765 11.456-6.418 23.274-10.043 34.78-.799 2.533-3.381 5.22-5.832 6.386-8.797 4.188-17.938 7.649-26.834 11.633-1.595.713-2.939 1.977-4.311 3.185.159.588.402 1.1.791 1.433.631.541 1.631.763 2.699.852 9.77-2.939 19.59-5.894 29.896-8.996-.447 6.488-.372 10.998-1.171 15.349-.743 4.017-2.422 7.859-3.755 11.987 6.115 3.921 10.706 2.056 11.752-5.648.767-5.647.98-11.368 1.728-17.02.821-6.182 7.415-10.331 14.826-9.372 6.996.905 3.402 6.486 4.15 10.081.371 1.784-.006 3.709.122 5.56.604 8.871 7.337 14.542 15.657 12.065 7.76-2.31 15.467-5.378 22.519-9.327 8.842-4.956 9.857-9.198 6.321-18.494zm-9.65 9.843c-5.719 4.303-12.375 7.363-18.688 10.882-6.01-.745-8.831-3.411-8.013-8.185.915-5.353 1.795-11.826 5.224-15.345 3.977-4.083 17.156-1.404 20.821 3.419 1.642 2.164 2.074 8.161.656 9.229z"/><path fill-rule="evenodd" clip-rule="evenodd" fill="#126D8F" d="M1488.962 125.96c-4.18-.801-8.332-2.13-12.536-2.313-26.866-1.177-53.782-3.461-80.607-2.724-25.532.704-51.101 3.786-76.43 7.384-31.788 4.517-63.339 10.682-95.026 15.941-2.656.44-5.556-.592-8.342-.938-.063-1.33-.13-2.661-.197-3.99 21.23-4.657 42.317-10.173 63.727-13.752 26.51-4.43 53.214-8.079 79.973-10.575 40.316-3.762 80.721-4.974 120.666 4.069 3.36.762 6.468 2.647 9.692 4.013l-.92 2.885z"/><path fill-rule="evenodd" clip-rule="evenodd" fill="#126D8F" d="M446.993 1.731c.264 3.235 1.337 6.65.664 9.674-4.51 20.211-9.419 40.331-14.105 60.502-.44 1.892-.251 3.926-.434 7.437 7.733-6.943 14.223-12.929 20.9-18.694 3.196-2.758 6.451-5.81 10.234-7.422 3.59-1.528 9.015-3.075 11.585-1.425 2.47 1.583 3.806 7.597 3.022 11.074-2.244 9.939-5.543 19.674-8.949 29.308-2.89 8.172-3.211 8.059 3.997 14.649-3.879 2.047-7.495 5.636-10.381 5.12-5.712-1.022-5.379-6.621-4.081-11.048 2.889-9.842 6.412-19.497 9.379-29.317 1.075-3.566 1.297-7.39 2.168-12.656-13.303 5.322-21.781 13.622-28.842 23.068-5.806 7.765-9.766 16.887-15.279 24.901-2.168 3.151-6.34 4.926-9.602 7.329-1.583-2.235-3.298-4.394-4.676-6.749-.455-.774-.486-2.467.045-3.046 10.914-11.897 9.866-27.93 14.27-42.003 4.784-15.287 7.473-31.22 11.414-46.786 1.203-4.757 3.521-9.23 5.331-13.833l3.34-.083z"/><path fill-rule="evenodd" clip-rule="evenodd" fill="#126D8F" d="M44.658 45.955c-10.177 3.818-18.646 7.258-27.302 10.145-5.132 1.712-10.688 6.383-17.356-1.238 7.28-3.454 13.4-6.785 19.839-9.3 7.365-2.876 14.949-5.245 22.558-7.424 6.095-1.747 8.157-5.588 8.591-11.658.58-8.096 1.907-16.167 3.433-24.148.34-1.785 2.845-3.156 4.351-4.719 1.135 1.803 3.286 3.644 3.217 5.397-.244 6.325-1.128 12.634-1.982 18.92-1.122 8.248-.348 9.055 7.752 6.105 12.648-4.607 25.189-9.516 37.783-14.275 1.708-.646 3.622-1.911 5.163-1.584 2.699.569 5.188 2.151 7.763 3.309-2.062 2.031-3.771 5.026-6.246 5.933-13.512 4.959-26.941 10.633-40.918 13.712-17.384 3.829-17.287 17.686-20.056 30.145-3.082 13.874-5.478 27.901-8.392 41.815-.461 2.21-1.664 4.632-3.289 6.122-1.467 1.341-3.984 1.537-6.038 2.239-.155-1.871-.749-3.829-.399-5.602 3.543-18.048 7.281-36.057 10.851-54.101.497-2.513.376-5.149.677-9.793z"/><path fill-rule="evenodd" clip-rule="evenodd" fill="#126D8F" d="M152.029 56.603c-3.942 3.961-8.474 7.499-11.702 11.975-5.871 8.129-10.649 17.049-16.525 25.173-2.888 3.991-7.211 6.941-10.887 10.362l-3.045-1.429c.636-7.282-.195-15.086 2.17-21.756 8.091-22.806 10.914-46.61 15.16-70.171 1.038-5.778 3.637-10.672 11.352-11.884l-12.975 73.159c8.457-7.997 15.571-14.789 22.769-21.496 3.224-3.007 7.032-7.975 11.266-4.081 2.829 2.601 4.333 8.638 3.665 12.678-1.893 11.401-5.224 22.564-7.947 33.829-.363 1.505-.204 3.203-.824 4.566-.923 2.029-2.325 3.84-3.522 5.743-1.774-2.392-5.366-5.092-5.021-7.125 1.977-11.637 4.903-23.113 7.459-34.654.262-1.166.199-2.402.285-3.607l-1.678-1.282z"/><path fill-rule="evenodd" clip-rule="evenodd" fill="#126D8F" d="M222.216 101.924c-2.328-3.414-3.77-5.527-5.147-7.545-7.796 2.628-15.119 5.673-22.733 7.54-12.889 3.157-20.97-5.579-17.906-18.503 3.581-15.111 13.854-25.933 23.789-36.837 1.216-1.336 6.781-.751 8.565.878 4.157 3.796 4.458 9.437.737 13.624-6.293 7.079-12.845 14.168-20.374 19.804-3.775 2.826-6.814 5.378-4.204 8.929 1.979 2.684 7.662 5.341 10.309 4.34 8.514-3.22 16.476-7.978 24.484-12.44 16.815-9.372 28.144-24.481 40.255-38.778.723-.855 2.572-.758 3.896-1.104-.126 1.353.207 3.008-.45 4.016-10.519 16.078-21.021 32.165-31.895 48.002-2.098 3.056-5.747 5.048-9.326 8.074z"/><path fill-rule="evenodd" clip-rule="evenodd" fill="#126D8F" d="M808.534 252.271c-.605.193-1.061.514-1.412.9-.867.222-1.806.573-2.842 1.053-.625.291-1.266.549-1.905.81-.522-.143-1.13-.12-1.81.159-5.894 2.418-12.06 3.644-18.275 4.67 3.881-12.438 7.262-23.351 10.699-34.23 1.733-5.489 3.088-11.18 5.532-16.342 2.34-4.941.464-6.671-5.001-8.123-1.854 4.147-4.099 8.272-5.58 12.652-2.831 8.375-7.465 23.541-12.415 38.168-1.271 3.751-2.634 7.525-5.368 9.905-3.779.725-7.519 1.625-11.174 2.909-.796-.368-1.756-.372-2.742.274-1.124.736-1.772 1.324-2.471 2.473-1.098 1.806-.027 4.087 1.904 4.683 4.057 1.251 7.793.46 11.486-.721l.233.067c-4.154 9.296-8.408 18.001-11.823 27.026l-.052.23c-1.359 1.781-1.677 4.157-.522 6.32.805 1.512 2.316 2.239 3.945 2.413 1.838.198 3.307-1.219 4.317-2.533.738-.962.542-2.303-.096-3.302 3.88-8.455 7.163-17.181 10.735-25.778 3.066-7.379 7.645-9.229 16.792-6.433-1.448 3.371-4.162 6.767-3.997 10.017.215 4.26 1.553 9.953 4.535 12.167 3.023 2.248 9.039 2.204 12.968.874 2.528-.854 5.88-4.881 5.415-7.38-.469-2.5-1.608-2.553-2.411-3.032-.942.735-1.786 1.83-2.85 2.129-2.003.559-5.226 2.086-7.255.51-2.031-1.577-1.606-5.148-.742-6.906.522-1.06 1.104-2.102 1.729-3.123 4.814.077 9.299-.809 13.738-2.881 3.482-1.627 8.908-5.211 10.418-8.907 3.522-8.621-6.897-12.896-13.703-10.718zm4.172 11.444c-2.908 2.357-6.086 3.695-9.489 4.299.455-.503.899-1.019 1.37-1.501 3.057-3.125 6.871-5.512 10.441-8.188 3.709 1.045-.976 4.3-2.322 5.39z"/><path fill-rule="evenodd" clip-rule="evenodd" fill="#126D8F" d="M242.054 285.577c9.894-5.873 19.77-11.767 29.677-17.611 4.97-2.93 9.916-5.919 15.048-8.539 1.261-.643 3.206.056 4.838.137-.586 1.601-.699 3.851-1.846 4.691-4.179 3.06-8.922 5.357-13.052 8.474-11.913 8.989-23.551 18.343-35.48 27.312-2.964 2.227-6.617 3.539-9.953 5.272l-2.24-1.474c.694-7.558 1.384-15.115 2.183-23.829-2.429 1.411-4.355 2.109-5.73 3.399-9.154 8.606-18.072 17.472-27.385 25.904-1.57 1.419-6.299 2.188-6.78 1.449-1.543-2.377-2.829-5.798-2.332-8.464 2.09-11.22 4.784-22.333 7.456-33.437.617-2.556 1.493-5.506 3.287-7.124.881-.789 5.415.486 6.041 1.856 1.123 2.451 1.088 5.788.557 8.564-1.299 6.772-3.163 13.437-4.8 20.143l2.463 1.367c6.55-5.456 13.158-10.841 19.624-16.393 3.804-3.264 7.119-7.153 11.163-10.056 2.186-1.571 5.439-1.658 8.21-2.415.122 2.592.677 5.255.264 7.757-.663 4.012-1.964 7.918-2.999 11.871.594.385 1.19.765 1.786 1.146z"/><path fill-rule="evenodd" clip-rule="evenodd" fill="#126D8F" d="M694.29 252.482c-8.168 6.201-15.969 12.883-23.982 19.294-3.934 3.15-8.045 6.084-12.072 9.115-2.096 1.807-2.893.478-2.139-1.43 1.514-4.277 3.369-8.473 4.406-12.862.584-2.486 2.543-6.746-.336-7.953-2.701-.69-5.896 1.292-7.9 3.028-7.729 6.692-15.064 13.839-23.035 21.27-1.779 1.082-1.057-1.657-1.016-2.562.436-9.457 1.277-18.906 1.344-28.36.016-2.545-.515-7.658-3.426-7.658-3.197.886-3.869 3.565-4.133 5.565-1.67 12.857-3.25 25.757-3.953 38.69-.044.797-.06 4.999.424 6.298.676 1.816 2.037 3.05 3.81 3.712l.19.382.406-.173c3.375.927 9.311-4.359 9.568-4.593 4.377-3.959 7.883-8.884 12.583-14.371 1.131 4.394 1.914 7.125 2.53 9.894 1.799 8.044 4.952 9.227 11.392 3.677 5.767-4.973 10.94-10.634 16.704-15.611 7.797-6.732 16.052-12.938 23.752-19.771 1.422-1.264 3.748-5.118 1.67-6.718-1.906-1.166-5.169-.091-6.787 1.137z"/><path fill-rule="evenodd" clip-rule="evenodd" fill="#126D8F" d="M1478.87 54.663c-2.736.03-5.445.167-8.101.484l.237-.279-.438.021c-1.074.384-2.227.667-3.451.854-.525.215-1.037.417-1.511.572-1.395.459-2.751.717-4.123.792l-.292.233c-2.72.989-5.342 2.316-7.834 4.105-3.301 2.371-7.354 4.688-10.365 7.746 1.4-2.287 2.953-4.509 4.693-6.665 3.197-3.958-2.406-9.634-5.634-5.634-3.905 4.838-7.225 9.888-9.691 15.377-.37-.1-.735-.185-1.103-.274-.578-1.139-1.699-1.974-3.389-1.927-3.952.108-7.58 1.556-11.09 3.377l-.36.1c-7.812 3.902-16.254 8.076-25.207 7.267-1.05-.093-1.878-.705-2.261-1.526l-.189.02.086-.247c-.209-.613-.184-1.32.195-2.023.383-.706.799-1.26 1.277-1.872l-.013-.091c5.634-8.759 19.019-11.108 27.759-15.03 7.053-3.167 15.387-10.541 8.988-18.362-6.123-7.483-25.057 2.654-30.074 6.743-5.974 4.875-13.44 13.996-14.633 22.664l-.025.047c-.648 1.663-1.125 3.461-1.383 5.261-.16.522-.209 1.009-.162 1.456-.449 5.96 1.79 11.553 9.152 11.938 6.05.318 11.906-.427 17.58-2.563 3.525-1.326 7.307-3.958 11.148-6.067.812-.199 1.622-.397 2.432-.599 5.432-1.344 7.621-.722 5.898 5.477-.539 1.943-.106 5.261 1.191 6.287 1.225.967 4.422.256 6.311-.643 1.191-.567 2.34-1.281 3.436-2.077.49-.999 1.106-1.962 1.838-2.858l.451-.559.746-1.007c.53-.727 1.056-1.46 1.6-2.176 1.579-2.073 3.132-4.342 5.059-6.128.492-.456.994-.896 1.506-1.318.773-1.188 1.789-2.22 3.046-2.993l.362-.431c2.951-3.184 6.404-5.474 10.248-6.869.845-.333 1.719-.626 2.664-.834 4.213-1.329 8.624-1.744 13.424-1.798 5.14-.06 5.145-8.028.002-7.971zm-72.96-2.614c3.533-2.104 7.601-3.407 11.604-4.237 7.629-1.581.704 3.171-2.016 4.639-6.19 3.339-13.353 5.384-19.685 8.49 3.327-3.918 7.37-7.27 10.097-8.892z"/><path fill-rule="evenodd" clip-rule="evenodd" fill="#126D8F" d="M1222.063 264.18l-1.717-2.288c-4.273 2.014-10.22 2.286-14.4 4.478-7.143 3.743-11.787 6.825-19.896 7.802-2.497.302-1.046-5.124-3.979-6.057-.949-.302-6.502 6.177-7.723 6.658-5.398 2.12-12.469 6.596-19.43 9.336-10.656 4.197-17.89 3.742-29.311 4.399-5.904.339-7.323-3.01-2.806-8.026 4.729-5.245 10.058-9.473 16.087-12.936 5.467-3.14 11.508-5.652 18.204-7.723 2.144-2.684-4.759-2.437-6.257-2.201-15.278 2.399-28.092 9.68-37.287 21.947-5.73 7.646-1.846 15.792 7.978 16.481 8.794.618 17.854-.779 26.636-2.254 7.665-1.288 13.508-7.119 20.12-8.91l.251.468-.176.433c-2.13 3.264-.668 8.859 4.435 8.859 1.692 0 2.972-.625 3.862-1.572 2.85-3.02 15.223-14.442 20.279-16.291 5.059-1.849 8.236-2.895 8.248-1.849.654.343 1.113 1.072 1.454 1.965l-.157.211c-.695 1.503-10.8 15.823-11.324 17.394-.294.873.331 1.676 1.111 1.959 3.643 1.326 7.097.872 9.216-2.593 1.873-3.06 11.306-20.002 13.594-22.799.345-.42.433-.889.359-1.319.883-1.752 1.737-3.6 2.629-5.572z"/><path fill-rule="evenodd" clip-rule="evenodd" fill="#126D8F" d="M396.298 280.965c-1.07.178-2.055.577-2.923 1.124-2.422.817-4.755 2.588-6.25 4.613-1.007.651-2.017 1.291-3.039 1.918-3.538 1.436-7.055 2.956-10.7 4.035-5.817 1.725-11.785 2.634-13.851-5.271.29-.464.46-1.042.421-1.752-.141-2.625.517-4.532 2.254-6.512 2.701-3.075-1.792-7.603-4.508-4.507-1.746 1.988-2.998 4.091-3.646 6.43-2.347 3.816-3.169 10.17-.6 14 .141.435.313.845.561 1.21 5.529 8.191 14.525 4.408 23.307 3.646-1.06 3.896-1.763 6.915-2.7 9.858-7.644 24.003-15.47 47.949-22.853 72.031-1.09 3.556-.151 7.733-.151 11.623l2.473.673c1.548-1.864 3.882-3.493 4.517-5.631 4.553-15.293 7.745-31.073 13.347-45.956 6.493-17.26 9.186-36.598 24.18-49.896.094-.083.163-.195.237-.297 2.229-1.51 3.536-3.824 3.663-6.684.07-.236.136-.477.183-.734.452-2.525-1.424-4.339-3.922-3.921z"/><path fill-rule="evenodd" clip-rule="evenodd" fill="#126D8F" d="M264.58 85.396c.897 6.803 4.729 9.616 13.482 7.731 9.514-2.048 18.798-5.18 28.166-7.895 2.377-.689 4.692-1.589 8.062-2.746-.604 2.318-.558 3.774-1.121 4.07-13.208 6.95-25.721 15.798-41.783 14.89-12.604-.714-19.97-12.185-14.681-23.644 6.211-13.464 16.542-23.244 29.378-30.159 2.514-1.356 8.038-.854 9.768 1.016 2.103 2.277 3.396 7.865 2.023 10.36-7.17 13.032-19.958 19.371-33.294 26.377zm7.148-16.581c.709.907 1.417 1.812 2.128 2.717 4.425-3.369 8.853-6.74 13.28-10.109l-2.42-3.072-12.988 10.464z"/><path fill-rule="evenodd" clip-rule="evenodd" fill="#126D8F" d="M1275.31 237.407c4.524-2.957 11.131-1.56 16.094-3.085 5.619-1.726 8.848-4.137 10.777-9.781 4.217-12.327 9.155-24.407 13.875-36.787 5.897 5.067 6.217 6.027 3.465 13.641-3.533 9.776-7.27 19.478-11.397 30.497 4.554-.228 13.653-4.442 14.858-2.052 1.203 2.39-2.492 7.811-5.043 7.956-2.549.145-14.203 1.881-14.203 1.881s-4.261 12.225-6.162 19.468c-3.066 11.68-5.944 23.426-9.623 34.917-.92 2.879-5.464 7.3-6.814 6.809-3.361-1.222-2.764-3.166-5.377-6.038-.472-.518.518-3.338.686-3.324 2.232.183 1.247-.911 4.954-.204l13.463-51.219c-6.095 1.847-15.136 2.957-17.079 2.466-1.941-.491-2.076-4.473-2.474-5.145z"/><path fill-rule="evenodd" clip-rule="evenodd" fill="#126D8F" d="M1103.866 61.362c-9.945-1.627-16.712 4.463-23.238 10.231-4.902 4.328-8.934 9.665-13.139 14.731-.797.96-.588 2.756-.844 4.166 1.381.008 3.082.551 4.089-.058 9.2-5.556 18.218-11.414 27.444-16.917 1.659-.988 4.627-1.651 5.944-.816 1.316.833 2.104 3.872 1.786 5.711-3.562 20.669-4.953 19.659 15.158 23.856l.404 2.125c-3.91.6-8.008 2.212-11.681 1.527-4.038-.753-8.743-2.759-11.202-5.8-2.554-3.158-2.767-8.208-4.113-12.803-9.246 4.364-18.026 8.862-27.121 12.588-2.712 1.11-7.967 1.275-9.123-.291-1.811-2.455-2.59-7.474-1.265-10.147 8.251-16.639 21.198-28.918 38.034-36.655 6.139-2.818 10.102 1.457 8.867 8.552z"/><path fill-rule="evenodd" clip-rule="evenodd" fill="#126D8F" d="M1229.642 286.926c-1.896 8.728-8.562 17.458-10.484 26.179-.864 3.924 1.476 10.781-5.2 10.127-6.261-.613-5.487-6.726-3.888-11.329 3.32-9.549 11.879-18.94 15.319-28.448.696-1.926 1.173-4.11 1.042-6.13 4.85-13.456 4.85-13.456 12.1-14.75 7.314-.908 14.611-2 21.947-2.701 6.284-.6 11.142 2.32 13.068 8.165 1.86 5.65-.076 12.461-5.935 14.933-8.641 3.643-17.044 8.564-26.239 8.492-2.662-.022-6.133-1.726-9.244-2.726l-2.486-1.812zm37.317-15.104c-10.953-10.462-28.786-4.61-32.798 8.422 13.397 7.449 33.332.818 32.798-8.422z"/><path fill-rule="evenodd" clip-rule="evenodd" fill="#126D8F" d="M301.817 288.807c8.812-5.878 17.623-11.758 26.434-17.637l2.111 1.617c-.521 2.87-.819 5.803-1.613 8.593-1.008 3.532-2.646 6.888-3.613 10.428-2.523 9.241-.053 12.011 9.358 10.885 1.208-.143 2.447-.019 4.053-.019-5.467 7.208-12.757 9.263-17.103 3.671-3.65-4.7-4.529-11.553-6.707-17.655-6.513 3.553-13.104 7.243-19.794 10.749-2.544 1.332-5.245 2.847-7.997 3.142-2.267.245-6.166-.596-6.746-2.014-.878-2.154-.475-6.253 1.083-7.726 6.324-5.975 13.181-11.415 20.063-16.764 7.062-5.492 14.217-10.904 21.699-15.793 2.262-1.479 5.802-1.589 8.629-1.25.777.093 2.158 4.654 1.354 6.123-1.072 1.965-3.945 3.016-6.149 4.284-9.107 5.244-18.251 10.42-27.381 15.623l2.319 3.743z"/><path fill-rule="evenodd" clip-rule="evenodd" fill="#126D8F" d="M1312.37 49.121c-15.883 5.38-29.168 14.708-38.992 28.378-.361.503-.59 1.101-.777 1.729-.512.484-.882 1.104-1.061 1.834-.982 1.547-1.344 3.352-1.045 5.473.22 1.578 2.268 3.118 3.84 2.925l1.275-.154c.951.127 2.025.125 3.255-.072 9.023-1.449 16.167-8.134 25.222-9.071.265-.028.507-.085.744-.152-.766 2.63-1.383 4.714-1.938 6.809-.873 3.287-3.056 7.06-2.148 9.784.148.443.339.879.545 1.312 2.768.025 5.564-.256 7.162-2.317l-.115-.028c-.588-.021-.637-.169-.771-.601-.079-.252-.097-.554-.103-.862.355-1.088.873-2.33 1.537-3.792 2.057-4.536 4.11-9.238 4.991-14.078.474-2.604-1.007-6.06-2.698-8.308-.646-.859-4.549.128-6.618 1.053-6.521 2.917-12.877 6.203-21.273 10.312 7.826-13.964 27.306-24.331 35.165-20.4 2.073-7.561-.408-11.736-6.197-9.774z"/><path fill-rule="evenodd" clip-rule="evenodd" fill="#126D8F" d="M1370.833 53.757c-2.506.634-4.957 1.801-7.198 3.126-6.134 3.634-12.169 7.455-18.327 11.275.43-1.168.693-2.392.748-3.667.193-4.389-5.574-5.001-7.409-1.904-.934.494-1.731.965-2.063 1.656-4.242 8.822-8.384 17.703-12.105 26.75-.508 1.239 1.104 4.552 2.404 5.012 1.451.514 4.267-.599 5.445-1.928 5.779-6.513 11.633-13.032 16.645-20.126 5.186-7.342 12.549-9.517 23.059-12.105-2.277 6.197-3.917 10.255-5.258 14.407-1.611 4.98-3.326 9.982-4.225 15.108-.088.493.119 1.034.461 1.6.229 1.222.961 2.324 2.197 2.835.209.265.406.527.575.784.198-.175.413-.347.632-.515l.361.036c2.736 0 4-2.257 3.822-4.369 2.422-6.061 4.479-12.275 6.438-18.506 1.24-3.956 2.586-8.019 2.873-12.104.413-5.916-3.374-8.807-9.075-7.365z"/><path fill-rule="evenodd" clip-rule="evenodd" fill="#126D8F" d="M1225.095 77.765c-2.693-3.162-6.477-8.787-5.323-11.062 1.89-3.733 7.067-7.031 11.429-8.038 7.033-1.622 14.245-2.463 21.367-3.3.133-.216.261-.435.373-.659.75-1.53.627-3.1.142-4.623-10.271-3.555-20.837.028-31.134 4.193-12.072 4.882-14.096 13.612-6.146 23.773 5.116 6.539 10.704 12.708 16.376 19.39-1.901 2.113-4.41 2.935-7.215 3.258-6.5-.981-12.873-2.115-18.742-5.379-4.496-2.499-8.516 4.385-4.021 6.88 1.108.618 2.238 1.156 3.369 1.654l-.178.147c3.832.54 7.527 1.634 11.426 2.321 2.591.456 5.154.756 7.718.96.288-.117.599-.175.925-.143 2.014.196 3.912-.203 5.854-.68.071-.146.154-.289.21-.44 1.78-.374 3.55-.785 5.292-1.301 7.439-2.205 7.727-7.847 1.98-13.87-4.357-4.564-9.632-8.298-13.702-13.081z"/><path fill-rule="evenodd" clip-rule="evenodd" fill="#126D8F" d="M858.643 344.125c.657.4 1.699.654 1.905 1.216 1.75 4.743 2.921 10.258 9.957 8.553 7.226-1.752 16.064-1.87 16.119-12.687.079-15.25-.355-30.508.091-45.745.202-7.011 1.759-14.021 3.209-20.926.281-1.332 1.827-3.231 4.483-3.231 3.004 0 2.955 3.396 2.589 4.465.047 21.133 1.392 38.404-1.034 57.513-.533 4.202-.947 8.45-1.918 12.559-3.079 13.052-18.396 20.239-30.361 14.411-5.848-2.846-8.282-10.472-5.04-16.128z"/><path fill-rule="evenodd" clip-rule="evenodd" fill="#126D8F" d="M531.089 77.41c-.091-2.707-1.626-4.914-4.534-5.151-1.589-.13-3.266.774-4.521 1.862-1.139.395-2.354.949-3.651 1.712-2.687 1.577-4.959 3.268-7.77 5.218-2.811 1.95-3.945.176-1.486-2.369 2.461-2.544 13.479-15.253 25.078-16.459-4.345-4.807-15.189-4.702-19.835-.654-9.291 8.092-16.733 16.923-21.323 25.258-1.072 1.945-1.991 6.093-.824 7.717 1.195 1.662 5.357 2.531 7.597 1.811 4.42-1.425 8.479-4.071 12.563-6.428 3.579-2.068 6.985-4.436 11.336-7.224.765 2.973 1.468 5.694 2.139 8.293-.054.176-.089.365-.066.59.25 2.57.386 5.3 2.096 7.282l.056.222.155-.014c.174.185.346.373.552.543.729.596 2.026.683 2.502-.323.087-.177.139-.352.181-.524l.653-.061c.071-5.141.32-10.287.187-15.423-.067-2.386-.438-4.348-1.085-5.878z"/><path fill-rule="evenodd" clip-rule="evenodd" fill="#126D8F" d="M955.036 266.851c-1.922 1.768-6.745.189-9.678 1.067-8.974 2.686-15.572 9.57-23.321 14.233-1.858 1.343-1.594 2.938 1.083 2.13 6.771-3.651 13.43-7.551 20.384-10.809 2.149-1.007 6.139-1.315 7.431-.048 1.385 1.353 1.508 5.366.549 7.475-2.734 6.038-6.602 16.004-9.778 17.929-2.78-.521-2.78-.521.317-15.905-4.38 2.168-7.978 4.033-11.646 5.748-4.305 2.009-8.522 4.711-13.062 5.51-2.605.46-6.277-1.722-8.455-3.787-.963-.912-.255-5.615 1.145-6.665 9.375-12.011 21.724-17.896 32.953-23.06 5.377-1.197 10.075-.514 12.078 6.182z"/><path fill-rule="evenodd" clip-rule="evenodd" fill="#126D8F" d="M1056.618 263.786c-6.816-2.073-19.863 8.687-24.554 12.641-4.306 3.635-3.775 4.941 1.702 3.297 5.105-1.531 10.061-5.955 15.359-8.332 2.748-1.233 7.301-3.386 9.17-1.618 1.868 1.766-.047 7.315-1.036 10.689-1.034 3.536-2.735 11.203-5.76 11.633-3.023.429-3.315-5.731-5.345-9.241-3.947 1.603-8.64 3.732-13.488 5.401-3.172 1.091-6.574 2.107-9.871 2.103-5.221-.009-7.377-4.504-4.507-8.802 7.238-10.835 17.503-18.27 28.714-24.347 5.761-3.12 9.425.342 9.616 6.576z"/><path fill-rule="evenodd" clip-rule="evenodd" fill="#126D8F" d="M1071.742 290.185c5.217-1.417 12.174-1.328 14.123-4.408 1.815-2.874-2.06-9.059-2.78-13.882-1.81-12.04 3.081-22.682 18.461-19.083 2.719.636 6.705-.469 8.293 1.295 1.59 1.764 1.322 4.681-1.332 5.746-2.657 1.064-4.363-1.793-7.411-1.7-8.953.275-11.625 4.384-9.119 15.671.614 2.778 2.34 5.292 3.344 8.005 2.7 7.279.433 11.295-8.112 14.644-7.528 2.951-12.632.849-15.467-6.288z"/><path fill-rule="evenodd" clip-rule="evenodd" fill="#126D8F" d="M983.884 287.357c6.792-6.112 13.514-12.311 20.437-18.272 1.716-1.48 3.515-3.251 6.173-3.251 2.92 1.272.606 5.409-.524 7.21-6.324 10.065-14.937 17.689-25.819 22.738-6.502 3.017-9.811-.438-11.253-5.837-1.552-5.822-2.101-11.936-2.755-17.957-.129-1.199.983-3.292 1.995-3.651 1.116-.399 3.503.307 4.05 1.265 1.258 2.201 1.836 4.821 2.504 7.322.838 3.128 1.488 6.307 2.221 9.463.834.631 1.42 2.154 2.971.97z"/><path fill-rule="evenodd" clip-rule="evenodd" fill="#126D8F" d="M588.992 49.86c-.987-.832-1.965-1.6-2.97-2.284-1.049-.022-2.095-.046-3.138-.059l-.247-.027c-2.231-.021-4.46-.046-6.674-.058-7.143-.04-11.654 3.247-19.603 11.64-2.758 3.528-2.374 11.756-2.391 11.955 2.252 5.471 6.038 10.79 3.591 16.12-2.097 4.562-9.007 2.496-12.988.863-.973.612-1.652 1.659-1.621 2.744-.413 1.287-.186 2.831 1.153 3.849 6.901 5.25 16.746 4.557 21.817-2.903 1.861-2.742 2.227-9.898 2.294-9.971-.091-.239-.154-.489-.191-.744-.421-1.164-.959-2.359-1.558-3.587-.227-.394-.459-.785-.738-1.145-1.271-2.48-2.036-4.47-2.27-6.222-.557-2.433-.438-4.867 1.144-7.215 3.594-5.34 9.974-8.825 16.439-8.839.374-.001.704.064 1.013.154h4.034c2.534 0 3.492-2.412 2.904-4.271z"/><path fill-rule="evenodd" clip-rule="evenodd" fill="#126D8F" d="M724.049 254.98c-6.27 4.284-12.464 8.684-18.841 12.808-.482.312-.984.605-1.496.886.438-1.82-.549-4.033-2.971-4.033-1.355 0-2.26.691-2.721 1.616-.36.324-.672.731-.886 1.256-3.562 8.757-8.949 14.703-8.879 24.754.016 1.92 1.393 2.93 2.86 3.056.923.394 2.034.372 2.934-.068l.151.159.304-.436c.486-.354.863-.859 1.051-1.515 7.762-11.163 16.295-21.541 26.567-30.355 6.003-5.153 13.708-5.153 12.542-8.28-3.899-5.645-7.249-2.143-10.615.152z"/><path fill-rule="evenodd" clip-rule="evenodd" fill="#126D8F" d="M753.353 244.462c-5.105 1.942-13.988.574-10.683-7.338 4.63-2.745 8.036-3.413 10.787-2.01 1.841.939 2.661 8.298-.104 9.348z"/><path d="M740.698 268.165c-.959-.354-2.993-6.452-4.866-4.858-4.772 5.872-7.792 15.374-12.13 21.551-.239.341-3.281 7.261.285 7.274 2.139.007 6-1.251 6.128-1.496 1.862-3.582.854-1.242.563-.58.379-.846 2.489-5.529 10.02-21.891zm-10.019 21.89z" fill-rule="evenodd" clip-rule="evenodd" fill="#126D8F"/><path fill-rule="evenodd" clip-rule="evenodd" fill="#126D8F" d="M903.174 256.045c-6.196 2.23-10.894 1.174-11.423-4.263-.229-2.375.699-9.828 3.805-9.378 3.103.45 11.164 10.059 7.618 13.641z"/><path fill-rule="evenodd" clip-rule="evenodd" fill="#126D8F" d="M1219.926 235.239c-.695-7.376 14.753-10.71 18.547-5.127-1.668 5.126-16.41 10.355-18.547 5.127z"/><path fill-rule="evenodd" clip-rule="evenodd" fill="#126D8F" d="M558.651 250.971c-1.326-2.272-6.225-3.709-9.394-3.435-13.043 1.127-26.036 2.909-39.008 4.731-5.014.705-6.845.235-5.23-5.683 3.518-12.879 6.409-25.945 9.027-39.04.468-2.336-1.608-5.179-3.094-9.472-2.116 3.144-2.966 3.916-3.216 4.846-3.58 13.482-7.339 26.925-10.5 40.506-1.92 8.255-6.268 11.488-14.886 11.913-11.976.591-24.299 1.129-35.007 7.811-1.771 1.105-2.975 3.125-4.169 4.429 15.866-2.048 30.644-3.957 45.417-5.865.484.921.965 1.843 1.446 2.765-1.979 5.194-4.178 10.317-5.837 15.611-.273.867-.487 1.815-.613 2.775-.101.178-.191.367-.26.583-1.656 5.15-4.872 16.026 2.038 18.557 3.455 1.266 5.546-2.689 6.175-5.355.358-1.528.509-3.081.624-4.637.73-1.965 1.139-4.158 1.313-5.888.148-.311.277-.626.379-.945 1.583-4.968 1.999-10.296 3.331-15.36 2.358-8.959 9.875-11.907 18.976-7.608-.949 2.969-2.896 6.055-2.596 8.906.332 3.15 2.877 8.05 4.203 8.682 9.273 4.414 16.034-.896 23.797-2.67 5.639-1.289 10.808-4.262 10.567-11.826-.05-1.582 2.845-3.064 3.676-4.91 1.4-3.096 3.984-7.47 2.841-9.421zm-23.309 22.666c-7.192 1.429-13.768-1.139-14.683-5.739-.915-4.598 4.179-9.488 11.37-10.918 1.799-.357 3.558 1.131 5.202 1.242 4.926.335 8.795 1.047 9.482 4.495.917 4.598-4.177 9.488-11.371 10.92z"/><path fill-rule="evenodd" clip-rule="evenodd" fill="#126D8F" d="M969.608 95.835c.098-.365.154-.554.154-.841-3.35.327-6.699.683-10.053.962-9.438.781-18.875 1.921-28.32 2.006-.171.001-.355-.02-.547-.056-2.869.394-5.908-.803-6.372-4.06-.099-.711.005-1.408.323-1.977.95-3 2.961-6.133 5.426-7.886 7.672-5.455 16.113-9.832 23.774-15.301 1.731-1.238 2.716-5.547 2.015-7.811-2.6-8.371-9.094-10.8-15.797-4.478-8.329 7.858-16.483 16.778-21.744 26.799-7.404 14.108-.891 23.76 15.109 22.664 11.512-.79 22.828-4.352 34.207-7.024.793-.756 1.54-1.937 1.825-2.997zm-22.793-36.921c4.252 1.328 3.452 4.512 3.188 6.107-.266 1.595-19.657 12.485-19.657 12.485s12.22-19.92 16.469-18.592z"/><path fill="#126D8F" d="M900.399 53.438c-6.969 1.663-13.768 4.042-21.333 6.31 0-1.987-.204-3.026.031-3.954 3.593-14.353 7.362-28.665 10.761-43.063 1.201-1.919 2.199-4.106 1.972-6.413-.171-1.728-1.319-3.187-3.187-3.187-.463 0-.934.131-1.371.345l-.48.04c-.617.852-1.532 1.617-1.804 2.568-3.069 10.807-5.594 21.792-9.138 32.44-6.358 19.115-12.795 38.241-20.256 56.94-.338.843-.533 1.594-.664 2.298-.474.375-.84.932-.972 1.743-1.042 6.422 3.648 9.296 9.179 10.155 1.115.753 4.412.836 6.559.178l.076-.004c.174.035.35.071.541.08 11.524.564 19.701-8.549 27.406-15.85 6.291-5.965 11.68-13.889 13.928-22.494.637-1.336 1.255-2.677 1.835-4.002 3.681-8.418-3.932-16.316-13.083-14.13zm-32.02 31.643c-.04-.45.047-.928.3-1.403.291-.55.654-1.01 1.049-1.439 3.352-13.414 14.968-17.068 26.678-20.376 2.408-.68 6.097.016 7.908 1.575 1.086.933.607 5.589-.776 7.161-.628.713-1.271 1.413-1.903 2.122-2.98 6.635-9.373 13.147-14.117 17.921-3.885 3.91-9.894 9.765-15.668 10.788l-.149.033c-.53.085-1.007.125-1.464.143v.001c-2.283.095-3.691-.618-4.47-1.833-2.086-3.259.345-10.105 2.612-14.693z"/></svg>