<svg xmlns="http://www.w3.org/2000/svg" width="1144.605" height="629.2"><g fill="#126D8F"><path fill-rule="evenodd" clip-rule="evenodd" d="M898.28 106.417c-3.394-8.917-10.201-13.289-19.584-12.642-16.065 1.108-32.095 2.729-51.627 4.439 5.323-18.335 10.249-35.309 15.308-52.726-8.934-4.708-11.141 3.158-12.938 8.63-4.431 13.477-7.551 27.382-11.817 40.92-.938 2.979-3.977 6.139-6.86 7.51-10.35 4.927-21.103 9-31.57 13.687-1.873.839-3.456 2.326-5.069 3.747.188.692.472 1.295.93 1.686.741.636 1.917.897 3.175 1.002 11.494-3.458 23.047-6.934 35.172-10.583-.525 7.632-.438 12.939-1.379 18.056-.872 4.727-2.848 9.248-4.417 14.103 7.196 4.613 12.596 2.419 13.827-6.645.9-6.643 1.153-13.374 2.034-20.022.965-7.273 8.722-12.154 17.44-11.027 8.233 1.066 4.002 7.63 4.883 11.86.436 2.098-.007 4.364.144 6.541.713 10.435 8.632 17.107 18.421 14.194 9.129-2.717 18.198-6.327 26.491-10.974 10.402-5.829 11.594-10.818 7.436-21.756zm-11.355 11.581c-6.727 5.063-14.558 8.663-21.981 12.803-7.074-.877-10.392-4.014-9.428-9.63 1.075-6.297 2.111-13.912 6.145-18.052 4.679-4.805 20.184-1.651 24.494 4.023 1.933 2.545 2.441 9.6.77 10.856z"/><path fill-rule="evenodd" clip-rule="evenodd" d="M647.58 352.343c-4.915-.941-9.802-2.504-14.748-2.721-31.608-1.387-63.272-4.072-94.831-3.204-30.04.827-60.118 4.453-89.918 8.687-37.397 5.313-74.517 12.566-111.796 18.754-3.124.518-6.536-.696-9.813-1.104-.077-1.563-.154-3.129-.229-4.693 24.975-5.479 49.782-11.969 74.969-16.179 31.189-5.211 62.603-9.505 94.086-12.442 47.432-4.426 94.964-5.851 141.959 4.788 3.956.896 7.609 3.115 11.404 4.721l-1.083 3.393z"/><path fill-rule="evenodd" clip-rule="evenodd" d="M530.061 20.861c.311 3.805 1.572 7.822.779 11.38-5.303 23.779-11.078 47.449-16.593 71.179-.517 2.225-.294 4.621-.512 8.75 9.101-8.169 16.735-15.211 24.591-21.993 3.76-3.245 7.589-6.835 12.04-8.73 4.225-1.799 10.606-3.618 13.632-1.677 2.903 1.861 4.477 8.937 3.554 13.027-2.639 11.693-6.522 23.146-10.529 34.479-3.398 9.615-3.775 9.481 4.702 17.234-4.561 2.408-8.818 6.632-12.211 6.024-6.721-1.204-6.33-7.79-4.801-12.998 3.398-11.579 7.543-22.938 11.032-34.492 1.265-4.195 1.527-8.694 2.551-14.888-15.649 6.261-25.624 16.025-33.933 27.138-6.83 9.135-11.486 19.868-17.975 29.295-2.551 3.708-7.459 5.796-11.295 8.623-1.864-2.629-3.88-5.168-5.502-7.939-.533-.91-.57-2.902.055-3.583 12.838-13.996 11.605-32.858 16.785-49.415 5.629-17.985 8.793-36.73 13.43-55.042 1.416-5.596 4.144-10.858 6.273-16.275l3.927-.097z"/><path fill-rule="evenodd" clip-rule="evenodd" d="M56.726 72.888c-11.973 4.492-21.938 8.538-32.119 11.935-6.038 2.014-12.577 7.508-20.419-1.457 8.563-4.063 15.764-7.982 23.34-10.94 8.663-3.384 17.586-6.171 26.537-8.735 7.171-2.055 9.599-6.574 10.109-13.715.682-9.525 2.241-19.019 4.035-28.409.401-2.1 3.349-3.713 5.121-5.552 1.334 2.121 3.865 4.287 3.784 6.35-.289 7.439-1.327 14.863-2.333 22.259-1.32 9.703-.41 10.653 9.117 7.183 14.881-5.419 29.636-11.195 44.453-16.795 2.011-.759 4.262-2.249 6.076-1.864 3.175.671 6.101 2.531 9.131 3.893-2.427 2.39-4.438 5.913-7.349 6.98-15.896 5.834-31.695 12.51-48.139 16.132-20.45 4.505-20.337 20.807-23.592 35.466-3.625 16.322-6.443 32.824-9.872 49.193-.544 2.6-1.96 5.451-3.873 7.202-1.726 1.579-4.687 1.809-7.102 2.635-.183-2.201-.881-4.505-.47-6.59 4.168-21.233 8.567-42.42 12.766-63.648.586-2.958.447-6.06.799-11.523z"/><path fill-rule="evenodd" clip-rule="evenodd" d="M183.044 85.414c-4.639 4.66-9.967 8.822-13.768 14.089-6.905 9.563-12.528 20.057-19.441 29.615-3.396 4.695-8.483 8.167-12.807 12.192l-3.583-1.681c.748-8.567-.229-17.749 2.553-25.595 9.519-26.831 12.841-54.835 17.835-82.554 1.224-6.797 4.279-12.556 13.358-13.981-5.089 28.687-9.975 56.228-15.268 86.069 9.951-9.408 18.321-17.399 26.786-25.289 3.794-3.538 8.274-9.382 13.255-4.801 3.33 3.062 5.099 10.162 4.311 14.916-2.225 13.413-6.143 26.545-9.35 39.799-.429 1.771-.24 3.768-.969 5.372-1.086 2.386-2.735 4.517-4.144 6.757-2.088-2.814-6.313-5.992-5.907-8.383 2.325-13.691 5.769-27.192 8.776-40.769.305-1.371.231-2.828.334-4.245l-1.971-1.511z"/><path fill-rule="evenodd" clip-rule="evenodd" d="M265.619 138.733c-2.742-4.016-4.438-6.502-6.059-8.877-9.171 3.093-17.788 6.674-26.744 8.87-15.163 3.715-24.67-6.563-21.066-21.769 4.213-17.778 16.298-30.508 27.986-43.338 1.433-1.571 7.978-.882 10.078 1.034 4.891 4.467 5.244 11.102.867 16.027-7.404 8.328-15.113 16.668-23.97 23.299-4.44 3.325-8.017 6.328-4.943 10.504 2.325 3.159 9.012 6.285 12.126 5.107 10.016-3.789 19.383-9.386 28.805-14.636 19.782-11.025 33.11-28.801 47.357-45.622.853-1.005 3.028-.892 4.586-1.298-.15 1.591.243 3.54-.532 4.724-12.372 18.914-24.729 37.841-37.521 56.473-2.468 3.599-6.763 5.942-10.97 9.502z"/><path fill-rule="evenodd" clip-rule="evenodd" d="M470.688 496.37c-.715.227-1.251.605-1.662 1.059-1.021.262-2.127.675-3.345 1.239-.735.341-1.488.646-2.241.953-.614-.17-1.329-.142-2.127.186-6.935 2.846-14.189 4.287-21.503 5.494 4.568-14.632 8.543-27.472 12.586-40.271 2.043-6.458 3.633-13.153 6.511-19.226 2.751-5.814.545-7.849-5.884-9.557-2.181 4.88-4.821 9.732-6.563 14.885-3.331 9.853-8.782 27.694-14.606 44.904-1.494 4.414-3.099 8.853-6.315 11.652-4.447.854-8.848 1.912-13.146 3.422-.936-.432-2.065-.438-3.228.323-1.321.866-2.085 1.558-2.906 2.909-1.291 2.126-.032 4.809 2.242 5.51 4.771 1.473 9.166.542 13.511-.848l.275.079c-4.887 10.938-9.892 21.179-13.907 31.795l-.062.271c-1.599 2.096-1.975 4.892-.617 7.437.947 1.778 2.725 2.633 4.642 2.838 2.162.233 3.891-1.434 5.079-2.981.867-1.131.639-2.708-.111-3.884 4.564-9.946 8.429-20.213 12.629-30.328 3.606-8.681 8.992-10.859 19.756-7.568-1.705 3.966-4.896 7.961-4.702 11.785.253 5.012 1.827 11.71 5.335 14.315 3.557 2.644 10.634 2.591 15.258 1.027 2.973-1.005 6.914-5.742 6.367-8.684-.547-2.94-1.889-3.002-2.834-3.566-1.11.865-2.102 2.153-3.354 2.505-2.353.657-6.146 2.455-8.535.601-2.388-1.855-1.888-6.057-.872-8.125.613-1.247 1.297-2.472 2.034-3.674 5.666.089 10.94-.951 16.163-3.39 4.095-1.914 10.479-6.131 12.256-10.479 4.138-10.142-8.121-15.171-16.124-12.608zm4.908 13.463c-3.425 2.774-7.162 4.347-11.164 5.058.534-.591 1.059-1.2 1.611-1.766 3.596-3.676 8.082-6.485 12.286-9.633 4.362 1.23-1.15 5.059-2.733 6.341z"/><path fill-rule="evenodd" clip-rule="evenodd" d="M809.497 306.852c11.637-6.909 23.257-13.843 34.913-20.719 5.847-3.446 11.667-6.963 17.703-10.045 1.482-.756 3.774.066 5.693.161-.69 1.884-.825 4.53-2.172 5.519-4.917 3.6-10.498 6.303-15.355 9.97-14.016 10.577-27.709 21.58-41.742 32.133-3.486 2.619-7.784 4.163-11.707 6.203l-2.638-1.734c.815-8.892 1.629-17.783 2.567-28.034-2.856 1.659-5.124 2.481-6.74 3.999-10.772 10.126-21.263 20.556-32.22 30.475-1.846 1.67-7.411 2.574-7.976 1.705-1.815-2.796-3.329-6.82-2.745-9.958 2.462-13.2 5.629-26.274 8.772-39.337.727-3.007 1.759-6.479 3.87-8.381 1.032-.929 6.368.571 7.105 2.185 1.32 2.882 1.28 6.808.653 10.074-1.527 7.967-3.72 15.808-5.645 23.698l2.897 1.608c7.704-6.418 15.479-12.753 23.088-19.285 4.474-3.839 8.375-8.415 13.131-11.83 2.572-1.848 6.398-1.951 9.66-2.84.143 3.048.795 6.181.31 9.126-.78 4.72-2.312 9.316-3.528 13.966l2.106 1.341z"/><path fill-rule="evenodd" clip-rule="evenodd" d="M336.283 496.618c-9.609 7.296-18.789 15.156-28.215 22.7-4.629 3.706-9.466 7.158-14.205 10.723-2.463 2.125-3.401.562-2.517-1.683 1.781-5.031 3.966-9.966 5.186-15.13.688-2.926 2.992-7.938-.396-9.357-3.175-.812-6.936 1.52-9.294 3.562-9.092 7.874-17.722 16.28-27.099 25.024-2.094 1.273-1.247-1.95-1.197-3.014.516-11.126 1.505-22.242 1.582-33.366.021-2.993-.604-9.008-4.03-9.008-3.761 1.042-4.552 4.195-4.859 6.548-1.967 15.126-3.827 30.302-4.654 45.519-.051.938-.068 5.881.499 7.408.798 2.137 2.397 3.589 4.482 4.368l.224.45.479-.203c3.97 1.091 10.953-5.129 11.258-5.404 5.148-4.658 9.271-10.451 14.803-16.906 1.331 5.169 2.251 8.383 2.978 11.64 2.115 9.464 5.825 10.855 13.399 4.325 6.785-5.85 12.872-12.51 19.655-18.366 9.171-7.919 18.881-15.222 27.941-23.26 1.674-1.487 4.411-6.021 1.967-7.903-2.245-1.375-6.084-.112-7.987 1.333z"/><path fill-rule="evenodd" clip-rule="evenodd" d="M635.709 268.465c-3.221.036-6.406.196-9.53.569l.278-.328-.513.024c-1.266.452-2.622.786-4.062 1.005-.619.253-1.223.491-1.777.674-1.643.539-3.238.843-4.852.931l-.342.275c-3.202 1.164-6.287 2.725-9.217 4.831-3.883 2.79-8.653 5.514-12.195 9.112 1.646-2.691 3.475-5.305 5.521-7.841 3.761-4.657-2.83-11.334-6.629-6.628-4.594 5.691-8.5 11.633-11.401 18.091-.435-.117-.864-.218-1.297-.322-.681-1.34-1.999-2.322-3.985-2.267-4.65.126-8.918 1.83-13.048 3.973l-.425.118c-9.189 4.59-19.119 9.501-29.654 8.549-1.233-.11-2.21-.83-2.66-1.796l-.223.024.102-.291c-.248-.722-.216-1.553.231-2.38.448-.83.938-1.482 1.501-2.201l-.015-.108c6.629-10.306 22.374-13.068 32.657-17.683 8.299-3.726 18.103-12.401 10.573-21.603-7.204-8.805-29.479 3.121-35.378 7.933-7.03 5.735-15.816 16.466-17.219 26.663l-.027.055c-.765 1.957-1.322 4.072-1.629 6.189-.189.615-.242 1.187-.191 1.712-.526 7.013 2.106 13.592 10.77 14.046 7.117.374 14.008-.503 20.684-3.016 4.146-1.56 8.595-4.656 13.114-7.138l2.86-.704c6.391-1.583 8.967-.85 6.94 6.443-.635 2.285-.128 6.189 1.401 7.396 1.441 1.137 5.201.302 7.424-.757 1.4-.666 2.752-1.506 4.042-2.442.575-1.176 1.301-2.309 2.161-3.363l.531-.658.878-1.185c.623-.854 1.243-1.717 1.884-2.56 1.855-2.439 3.682-5.108 5.949-7.21.578-.537 1.17-1.053 1.771-1.551.91-1.397 2.103-2.611 3.584-3.522l.424-.507c3.474-3.745 7.535-6.44 12.059-8.081.994-.392 2.023-.738 3.135-.982 4.955-1.563 10.145-2.052 15.793-2.114 6.044-.068 6.051-9.442.002-9.375zm-85.838-3.076c4.158-2.473 8.941-4.007 13.654-4.983 8.975-1.86.828 3.73-2.373 5.457-7.279 3.928-15.708 6.334-23.156 9.989 3.912-4.61 8.668-8.554 11.875-10.463z"/><path fill-rule="evenodd" clip-rule="evenodd" d="M957.191 510.381l-2.02-2.692c-5.027 2.37-12.024 2.69-16.942 5.268-8.401 4.404-13.866 8.029-23.404 9.179-2.939.355-1.231-6.027-4.683-7.126-1.117-.354-7.648 7.268-9.086 7.833-6.351 2.495-14.671 7.76-22.859 10.985-12.535 4.937-21.046 4.402-34.481 5.174-6.946.399-8.617-3.541-3.3-9.443 5.562-6.17 11.832-11.144 18.925-15.218 6.432-3.693 13.539-6.648 21.415-9.085 2.522-3.156-5.598-2.866-7.359-2.589-17.975 2.823-33.049 11.387-43.867 25.82-6.742 8.996-2.172 18.578 9.387 19.39 10.346.727 21.004-.916 31.332-2.652 9.021-1.516 15.895-8.375 23.671-10.483l.298.552c-.078.165-.143.336-.206.508-2.509 3.84-.786 10.422 5.214 10.422 1.991 0 3.497-.736 4.549-1.849 3.35-3.554 17.907-16.99 23.855-19.166 5.949-2.176 9.691-3.407 9.704-2.176.769.403 1.309 1.262 1.71 2.313l-.184.247c-.818 1.769-12.707 18.617-13.324 20.464-.345 1.027.39 1.972 1.309 2.305 4.282 1.561 8.348 1.025 10.842-3.051 2.203-3.6 13.3-23.531 15.992-26.821.406-.495.508-1.046.422-1.553 1.038-2.062 2.043-4.237 3.09-6.556z"/><path fill-rule="evenodd" clip-rule="evenodd" d="M990.96 301.426c-1.261.211-2.416.679-3.437 1.322-2.852.961-5.597 3.045-7.354 5.428-1.184.765-2.373 1.518-3.574 2.255-4.166 1.688-8.301 3.477-12.591 4.749-6.842 2.029-13.864 3.098-16.293-6.202.341-.546.54-1.226.494-2.06-.166-3.089.607-5.332 2.652-7.661 3.176-3.618-2.108-8.945-5.304-5.303-2.052 2.339-3.526 4.812-4.287 7.564-2.764 4.49-3.731 11.964-.71 16.471.167.51.369.994.66 1.423 6.506 9.637 17.09 5.186 27.421 4.29-1.245 4.583-2.074 8.136-3.178 11.598-8.991 28.24-18.197 56.411-26.884 84.743-1.284 4.182-.178 9.097-.178 13.672.969.266 1.938.53 2.91.793 1.819-2.193 4.564-4.11 5.311-6.625 5.358-17.992 9.114-36.557 15.702-54.067 7.64-20.305 10.807-43.055 28.447-58.7.11-.097.191-.229.28-.35 2.622-1.776 4.16-4.499 4.309-7.863.082-.278.159-.562.214-.864.536-2.97-1.672-5.103-4.61-4.613z"/><path fill-rule="evenodd" clip-rule="evenodd" d="M315.457 119.289c1.057 8.004 5.562 11.312 15.863 9.095 11.193-2.41 22.113-6.094 33.135-9.288 2.796-.811 5.52-1.869 9.485-3.23-.711 2.727-.656 4.441-1.32 4.789-15.539 8.176-30.257 18.586-49.157 17.517-14.827-.838-23.491-14.333-17.271-27.816 7.309-15.839 19.463-27.346 34.564-35.481 2.957-1.595 9.457-1.005 11.49 1.195 2.473 2.679 3.997 9.252 2.382 12.188-8.436 15.331-23.481 22.787-39.171 31.031zm8.408-19.507l2.503 3.197c5.208-3.965 10.416-7.929 15.625-11.893-.948-1.205-1.896-2.41-2.846-3.614-5.093 4.104-10.188 8.207-15.282 12.31z"/><path fill-rule="evenodd" clip-rule="evenodd" d="M1019.833 478.882c5.323-3.479 13.097-1.835 18.937-3.629 6.609-2.03 10.408-4.867 12.678-11.506 4.961-14.502 10.771-28.715 16.322-43.279 6.938 5.962 7.315 7.091 4.078 16.048-4.159 11.501-8.551 22.915-13.408 35.879 5.359-.269 16.062-5.227 17.479-2.414 1.417 2.812-2.931 9.189-5.932 9.359-2.998.17-16.709 2.213-16.709 2.213s-5.014 14.383-7.25 22.904c-3.605 13.74-6.995 27.56-11.319 41.077-1.085 3.387-6.432 8.589-8.019 8.011-3.953-1.437-3.252-3.724-6.326-7.103-.555-.61.607-3.928.808-3.911 2.626.216 1.466-1.071 5.827-.24 4.95-18.827 9.999-38.035 15.84-60.258-7.173 2.174-17.807 3.479-20.092 2.902-2.288-.578-2.443-5.262-2.914-6.053z"/><path fill-rule="evenodd" clip-rule="evenodd" d="M194.528 276.346c-11.703-1.916-19.663 5.252-27.342 12.036-5.768 5.092-10.509 11.371-15.455 17.332-.939 1.129-.694 3.242-.995 4.901 1.625.009 3.628.648 4.813-.067 10.821-6.537 21.429-13.43 32.285-19.902 1.952-1.163 5.442-1.942 6.993-.959 1.549.98 2.476 4.554 2.103 6.718-4.192 24.317-5.829 23.129 17.833 28.066.157.833.316 1.668.476 2.501-4.6.706-9.423 2.602-13.742 1.797-4.751-.886-10.285-3.247-13.178-6.825-3.006-3.715-3.257-9.655-4.842-15.062-10.876 5.134-21.206 10.426-31.907 14.81-3.189 1.305-9.371 1.5-10.731-.343-2.131-2.887-3.047-8.792-1.486-11.937 9.706-19.576 24.938-34.022 44.744-43.124 7.219-3.318 11.882 1.711 10.431 10.058z"/><path fill-rule="evenodd" clip-rule="evenodd" d="M966.108 537.14c-2.232 10.269-10.073 20.539-12.335 30.8-1.018 4.616 1.736 12.682-6.119 11.913-7.367-.721-6.455-7.912-4.572-13.328 3.906-11.234 13.973-22.283 18.021-33.469.82-2.265 1.381-4.836 1.225-7.211 5.709-15.832 5.709-15.832 14.235-17.353 8.608-1.067 17.192-2.354 25.821-3.177 7.393-.705 13.109 2.73 15.374 9.605 2.19 6.647-.089 14.66-6.981 17.567-10.166 4.287-20.055 10.077-30.87 9.991-3.13-.026-7.214-2.032-10.873-3.209l-2.926-2.129zm43.902-17.769c-12.885-12.309-33.866-5.424-38.586 9.908 15.76 8.763 39.215.964 38.586-9.908z"/><path fill-rule="evenodd" clip-rule="evenodd" d="M879.807 310.653l31.098-20.75c.83.633 1.657 1.269 2.484 1.903-.611 3.376-.962 6.828-1.898 10.111-1.186 4.155-3.113 8.103-4.249 12.267-2.97 10.873-.063 14.13 11.009 12.806 1.421-.168 2.879-.021 4.77-.021-6.434 8.48-15.01 10.897-20.121 4.318-4.295-5.53-5.33-13.592-7.892-20.77-7.663 4.18-15.417 8.521-23.288 12.645-2.992 1.568-6.17 3.349-9.408 3.698-2.668.287-7.255-.702-7.936-2.37-1.033-2.534-.559-7.357 1.274-9.089 7.439-7.03 15.506-13.43 23.603-19.724 8.311-6.459 16.728-12.828 25.529-18.579 2.662-1.74 6.826-1.87 10.151-1.471.916.11 2.538 5.477 1.594 7.204-1.265 2.312-4.644 3.548-7.235 5.041-10.713 6.169-21.473 12.259-32.214 18.378.909 1.468 1.818 2.935 2.729 4.403z"/><path fill-rule="evenodd" clip-rule="evenodd" d="M439.826 261.945c-18.686 6.33-34.314 17.301-45.876 33.386-.423.592-.692 1.295-.911 2.035-.606.569-1.04 1.299-1.251 2.158-1.155 1.818-1.577 3.942-1.229 6.438.263 1.857 2.671 3.668 4.521 3.441l1.495-.182c1.121.15 2.387.148 3.833-.084 10.614-1.705 19.021-9.569 29.671-10.671.312-.033.598-.101.875-.179-.9 3.094-1.625 5.545-2.28 8.01-1.024 3.868-3.592 8.306-2.525 11.511.173.521.399 1.034.641 1.543 3.254.03 6.548-.302 8.425-2.726l-.136-.033c-.69-.024-.749-.2-.904-.707-.092-.297-.114-.652-.119-1.015.416-1.28 1.024-2.741 1.806-4.46 2.42-5.336 4.838-10.868 5.871-16.562.558-3.063-1.183-7.131-3.175-9.774-.76-1.011-5.351.15-7.783 1.238-7.672 3.432-15.15 7.297-25.027 12.133 9.206-16.428 32.124-28.625 41.37-24 2.436-8.897-.483-13.807-7.292-11.5z"/><path fill-rule="evenodd" clip-rule="evenodd" d="M508.605 267.399c-2.949.746-5.832 2.119-8.468 3.679-7.216 4.275-14.315 8.771-21.562 13.264.506-1.375.814-2.814.881-4.313.227-5.164-6.559-5.883-8.717-2.24-1.102.581-2.037 1.136-2.43 1.949-4.99 10.378-9.863 20.827-14.242 31.471-.598 1.458 1.299 5.354 2.829 5.896 1.706.604 5.021-.705 6.408-2.269 6.796-7.661 13.685-15.332 19.581-23.678 6.102-8.637 14.762-11.197 27.125-14.242-2.678 7.292-4.604 12.065-6.184 16.951-1.896 5.859-3.913 11.743-4.971 17.774-.101.579.143 1.216.54 1.882.271 1.438 1.134 2.734 2.586 3.334.245.312.479.621.68.923.235-.208.485-.409.745-.607l.425.043c3.217 0 4.703-2.656 4.497-5.14 2.846-7.13 5.267-14.442 7.57-21.771 1.461-4.655 3.044-9.434 3.381-14.24.491-6.961-3.967-10.361-10.674-8.666z"/><path fill-rule="evenodd" clip-rule="evenodd" d="M337.149 295.644c-3.168-3.719-7.619-10.338-6.264-13.014 2.222-4.393 8.313-8.273 13.447-9.456 8.271-1.907 16.756-2.898 25.139-3.884.157-.253.308-.51.436-.775.882-1.8.739-3.646.165-5.438-12.082-4.183-24.511.031-36.626 4.932-14.202 5.744-16.584 16.015-7.229 27.97 6.018 7.692 12.593 14.951 19.266 22.812-2.236 2.486-5.188 3.454-8.491 3.833-7.643-1.154-15.139-2.489-22.048-6.328-5.289-2.941-10.017 5.158-4.731 8.093 1.308.727 2.632 1.361 3.965 1.946l-.209.174c4.507.634 8.856 1.923 13.443 2.731 3.047.536 6.062.887 9.078 1.129.339-.138.705-.207 1.088-.169 2.37.231 4.602-.238 6.888-.8.082-.172.181-.339.244-.519 2.098-.437 4.181-.923 6.227-1.528 8.753-2.595 9.092-9.232 2.332-16.317-5.125-5.372-11.332-9.765-16.12-15.392z"/><path fill-rule="evenodd" clip-rule="evenodd" d="M529.639 604.434c.772.471 1.998.77 2.24 1.43 2.059 5.579 3.437 12.069 11.714 10.062 8.5-2.06 18.902-2.199 18.967-14.925.091-17.941-.417-35.894.104-53.818.239-8.249 2.069-16.496 3.776-24.619.331-1.567 2.15-3.801 5.274-3.801 3.532 0 3.475 3.996 3.045 5.254.057 24.862 1.637 45.182-1.216 67.662-.628 4.942-1.116 9.94-2.257 14.774-3.623 15.355-21.645 23.812-35.722 16.954-6.876-3.348-9.74-12.319-5.925-18.973z"/><path fill-rule="evenodd" clip-rule="evenodd" d="M628.998 109.894c-.109-3.185-1.914-5.781-5.334-6.061-1.871-.152-3.842.912-5.318 2.191-1.342.463-2.769 1.118-4.299 2.015-3.16 1.855-5.833 3.843-9.139 6.137-3.308 2.295-4.643.207-1.749-2.786 2.893-2.995 15.856-17.945 29.503-19.364-5.111-5.654-17.869-5.531-23.334-.77-10.93 9.52-19.688 19.91-25.088 29.715-1.261 2.289-2.342 7.169-.967 9.081 1.403 1.954 6.301 2.977 8.934 2.129 5.201-1.675 9.979-4.788 14.781-7.562 4.211-2.434 8.221-5.218 13.337-8.5l2.514 9.758c-.059.207-.098.431-.073.694.289 3.023.452 6.235 2.462 8.566l.067.262.181-.017c.209.218.406.44.652.639.856.702 2.38.804 2.944-.379.099-.208.162-.414.21-.617l.768-.071c.086-6.048.378-12.102.218-18.145-.075-2.807-.508-5.116-1.27-6.915z"/><path fill-rule="evenodd" clip-rule="evenodd" d="M643.043 513.522c-2.263 2.081-7.937.222-11.386 1.254-10.559 3.16-18.322 11.26-27.438 16.745-2.188 1.581-1.874 3.456 1.274 2.507 7.968-4.297 15.799-8.884 23.982-12.717 2.528-1.185 7.22-1.547 8.741-.057 1.628 1.592 1.774 6.312.646 8.795-3.218 7.103-7.769 18.827-11.504 21.092-3.272-.614-3.272-.614.373-18.712-5.152 2.55-9.386 4.745-13.702 6.762-5.062 2.364-10.026 5.541-15.366 6.482-3.065.54-7.384-2.027-9.946-4.455-1.132-1.073-.301-6.607 1.347-7.841 11.03-14.131 25.556-21.054 38.768-27.129 6.326-1.407 11.854-.602 14.211 7.274z"/><path fill-rule="evenodd" clip-rule="evenodd" d="M762.55 509.917c-8.019-2.439-23.368 10.219-28.885 14.872-5.068 4.276-4.442 5.812 2.003 3.878 6.006-1.802 11.834-7.006 18.069-9.802 3.229-1.45 8.588-3.982 10.786-1.904 2.199 2.078-.055 8.605-1.218 12.575-1.217 4.16-3.218 13.181-6.776 13.686-3.557.505-3.899-6.742-6.289-10.872-4.642 1.886-10.164 4.391-15.868 6.354-3.73 1.283-7.733 2.479-11.612 2.473-6.143-.011-8.681-5.299-5.302-10.354 8.517-12.748 20.593-21.495 33.779-28.644 6.777-3.67 11.088.403 11.313 7.738z"/><path fill-rule="evenodd" clip-rule="evenodd" d="M780.343 540.974c6.138-1.666 14.323-1.562 16.616-5.186 2.136-3.38-2.422-10.657-3.273-16.331-2.127-14.164 3.627-26.685 21.723-22.452 3.196.749 7.887-.551 9.756 1.524 1.869 2.076 1.555 5.508-1.57 6.76-3.123 1.253-5.132-2.109-8.718-1.999-10.532.324-13.676 5.158-10.729 18.438.726 3.268 2.755 6.226 3.938 9.417 3.176 8.564.509 13.288-9.547 17.229-8.856 3.471-14.86.998-18.196-7.4z"/><path fill-rule="evenodd" clip-rule="evenodd" d="M676.98 537.649c7.992-7.19 15.896-14.484 24.042-21.497 2.02-1.741 4.136-3.825 7.262-3.825 3.437 1.496.716 6.363-.616 8.483-7.44 11.842-17.572 20.811-30.377 26.751-7.646 3.548-11.541-.517-13.236-6.867-1.827-6.85-2.471-14.043-3.239-21.127-.154-1.41 1.157-3.873 2.345-4.295 1.315-.469 4.121.361 4.766 1.488 1.479 2.589 2.158 5.673 2.946 8.615.984 3.681 1.75 7.419 2.612 11.133.983.741 1.669 2.533 3.495 1.141z"/><path fill-rule="evenodd" clip-rule="evenodd" d="M697.118 77.481c-1.161-.978-2.31-1.881-3.495-2.686-1.23-.025-2.46-.055-3.689-.068l-.293-.033c-2.626-.026-5.245-.055-7.852-.069-8.397-.046-13.712 3.82-23.061 13.694-3.244 4.152-2.792 13.83-2.81 14.065 2.648 6.436 7.104 12.695 4.223 18.964-2.468 5.368-10.598 2.936-15.281 1.015-1.143.722-1.941 1.952-1.905 3.229-.487 1.514-.219 3.331 1.354 4.528 8.119 6.176 19.704 5.361 25.666-3.415 2.193-3.227 2.625-11.646 2.7-11.73-.104-.282-.18-.575-.222-.875-.498-1.369-1.131-2.775-1.834-4.22-.269-.463-.542-.923-.868-1.346-1.494-2.918-2.397-5.259-2.673-7.32-.655-2.862-.512-5.726 1.347-8.489 4.226-6.282 11.734-10.381 19.34-10.399.44 0 .827.075 1.191.183h4.747c2.981-.002 4.106-2.841 3.415-5.028z"/><path fill-rule="evenodd" clip-rule="evenodd" d="M371.294 499.557c-7.378 5.039-14.665 10.216-22.166 15.068-.569.368-1.158.711-1.761 1.042.512-2.141-.645-4.745-3.496-4.745-1.593 0-2.658.813-3.201 1.903-.425.381-.788.861-1.039 1.478-4.189 10.301-10.531 17.296-10.447 29.121.018 2.259 1.637 3.448 3.366 3.596 1.086.463 2.39.438 3.449-.081l.18.187.355-.513c.572-.417 1.016-1.01 1.235-1.782 9.132-13.132 19.174-25.342 31.257-35.711 7.065-6.062 16.127-6.062 14.757-9.741-4.588-6.643-8.531-2.523-12.489.178z"/><path fill-rule="evenodd" clip-rule="evenodd" d="M405.768 487.184c-6.008 2.285-16.456.676-12.568-8.634 5.447-3.229 9.455-4.015 12.692-2.363 2.164 1.103 3.129 9.761-.124 10.997z"/><path d="M390.88 515.068c-1.128-.415-3.522-7.59-5.726-5.715-5.614 6.907-9.166 18.086-14.27 25.354-.282.4-3.86 8.542.336 8.556 2.516.009 7.058-1.472 7.208-1.759 2.19-4.213 1.008-1.461.665-.683.444-.993 2.926-6.503 11.787-25.753zm-11.786 25.752z" fill-rule="evenodd" clip-rule="evenodd"/><path fill-rule="evenodd" clip-rule="evenodd" d="M582.029 500.809c-7.289 2.625-12.817 1.381-13.438-5.015-.271-2.794.821-11.562 4.474-11.032 3.653.529 13.134 11.834 8.964 16.047z"/><path fill-rule="evenodd" clip-rule="evenodd" d="M954.678 476.333c-.819-8.677 17.355-12.601 21.82-6.031-1.963 6.029-19.307 12.18-21.82 6.031z"/><path fill-rule="evenodd" clip-rule="evenodd" d="M176.708 494.84c-1.562-2.673-7.325-4.363-11.054-4.041-15.344 1.326-30.629 3.422-45.889 5.567-5.901.829-8.054.276-6.153-6.686 4.136-15.152 7.538-30.524 10.618-45.929.549-2.749-1.893-6.093-3.641-11.144-2.49 3.699-3.49 4.607-3.783 5.702-4.21 15.861-8.633 31.676-12.352 47.654-2.26 9.712-7.374 13.515-17.513 14.015-14.088.696-28.587 1.327-41.185 9.188-2.084 1.3-3.497 3.677-4.904 5.211 18.666-2.409 36.05-4.654 53.433-6.899.569 1.084 1.136 2.168 1.702 3.252-2.329 6.11-4.916 12.138-6.868 18.366-.321 1.02-.573 2.135-.722 3.265-.119.209-.226.432-.306.685-1.95 6.059-5.731 18.854 2.396 21.832 4.066 1.489 6.526-3.164 7.264-6.301.424-1.798.602-3.624.736-5.454.858-2.313 1.341-4.891 1.544-6.928.174-.364.328-.736.447-1.111 1.863-5.844 2.353-12.112 3.92-18.071 2.772-10.54 11.615-14.008 22.323-8.95-1.118 3.492-3.407 7.123-3.056 10.477.392 3.706 3.387 9.471 4.948 10.214 10.907 5.193 18.862-1.054 27.994-3.142 6.634-1.517 12.716-5.014 12.433-13.913-.059-1.86 3.345-3.604 4.324-5.775 1.647-3.642 4.686-8.788 3.344-11.084zm-27.425 26.666c-8.462 1.681-16.195-1.341-17.272-6.753-1.077-5.409 4.915-11.162 13.377-12.844 2.116-.421 4.187 1.33 6.12 1.461 5.797.395 10.348 1.231 11.156 5.289 1.075 5.411-4.915 11.162-13.381 12.847z"/><path fill-rule="evenodd" clip-rule="evenodd" d="M1144.902 131.569c.115-.43.184-.651.183-.988-3.942.384-7.882.804-11.83 1.131-11.101.919-22.203 2.26-33.315 2.36-.201.002-.418-.023-.641-.066-3.378.463-6.954-.945-7.498-4.775-.117-.837.005-1.657.378-2.326 1.117-3.528 3.486-7.216 6.383-9.277 9.027-6.419 18.957-11.568 27.972-18.002 2.039-1.456 3.195-6.526 2.37-9.188-3.061-9.847-10.7-12.706-18.585-5.268-9.799 9.243-19.393 19.739-25.582 31.527-8.711 16.599-1.048 27.954 17.775 26.665 13.54-.928 26.855-5.12 40.245-8.264.93-.892 1.809-2.282 2.145-3.529zm-26.813-43.437c4.999 1.562 4.062 5.309 3.749 7.186-.312 1.877-23.126 14.689-23.126 14.689s14.376-23.436 19.377-21.875z"/><path d="M1063.48 81.691c-8.197 1.958-16.196 4.755-25.099 7.423 0-2.338-.238-3.56.036-4.651 4.23-16.886 8.663-33.723 12.66-50.662 1.416-2.257 2.589-4.832 2.322-7.545-.201-2.032-1.555-3.75-3.75-3.75-.546 0-1.099.155-1.615.407l-.564.046c-.725 1.001-1.803 1.903-2.121 3.021-3.612 12.715-6.582 25.64-10.75 38.166-7.48 22.489-15.052 44.989-23.832 66.988-.396.992-.628 1.875-.781 2.705-.557.441-.986 1.095-1.143 2.048-1.226 7.556 4.291 10.938 10.802 11.948 1.308.886 5.189.984 7.717.209l.085-.006c.206.042.413.084.641.095 13.553.665 23.175-10.058 32.238-18.648 7.403-7.017 13.74-16.339 16.385-26.463.754-1.573 1.478-3.149 2.162-4.709 4.329-9.902-4.625-19.192-15.393-16.622zm-37.675 37.226c-.043-.529.06-1.091.355-1.65.346-.646.771-1.188 1.238-1.694 3.941-15.782 17.608-20.08 31.384-23.972 2.833-.801 7.173.02 9.304 1.853 1.275 1.099.712 6.577-.914 8.425-.737.838-1.493 1.663-2.235 2.496-3.513 7.806-11.03 15.467-16.612 21.085-4.57 4.6-11.641 11.488-18.432 12.691h-.001l-.178.038c-.62.101-1.184.146-1.718.169l-.004.001c-2.686.112-4.342-.727-5.255-2.157-2.456-3.832.407-11.887 3.068-17.285z"/></g></svg>