<svg xmlns="http://www.w3.org/2000/svg" width="622.185" height="65.857"><path d="M389.403 35.042c-4.804-2.163-8.189-1.226-11.855 3.017-2.057 2.38-3.146 5.627-6.005 7.235-1.944 1.095-4.075 3.736-6.067 2.38-1.47-1-.377-3.912.271-6.059.827-2.745-.022-5.354-2.702-6.858-2.439-1.369-4.39-.026-6.309 1.447-2.343 1.799-3.829 4.577-7.25 6.136-.66-2.132-.32-4.083-1.848-5.477-1.951-1.779-3.322-1.722-3.755.987-.836 5.236-1.547 10.5-2.075 15.776-.204 2.04-.631 4.562 2.263 5.396 2.883.83 4.314-1.353 5.596-3.199 1.864-2.688 3.26-5.701 5.104-8.406 1.043-1.529 1.466-4.465 3.864-3.922 2.645.6 1.15 3.345 1.246 5.073.441 7.96 1.414 8.501 8.363 4.236.988-.606 2.08-1.044 3.074-1.643 1.611-.97 2.953-.935 3.366 1.138.963 4.834 4.577 5.133 8.41 5.091 5.37-.06 14.286-6.06 14.836-9.941.607-4.293-3.374-10.087-8.527-12.407zm-7.036 17.647c-3.268-.848-3.75-4-3.857-6.717-.119-3.008 4.579-7.018 7.858-6.69 2.45.929 5.628 1.883 5.487 5.91-.092 2.688-6.885 8.172-9.488 7.497zm-68.372-19.203c5.204-4.775 10.481-9.474 15.571-14.366 1.893-1.819 3.515-2.456 5.473-.409 2.438 2.549-.577 3.372-1.657 4.593-3.612 4.082-8.573 6.75-11.63 11.497-2.909 4.518-2.89 6.053 2.034 8.947 4.025 2.366 8.057 4.587 11.189 8.191 1.079 1.24 2.276 2.198.788 3.688-1.422 1.425-2.521-.08-3.363-.888-4.039-3.869-9.33-5.724-13.856-8.805-4.034-2.746-6.176-2.193-8.387 2.107-.974 1.893-1.563 3.997-2.191 6.046-.363 1.184-.72 2.369-2.147 2.297-1.368-.068-1.783-1.427-2.22-2.439-1.352-3.138-.261-6.324.437-9.317 2.793-11.981 4.661-24.125 6.884-36.208.503-2.731.438-7.554 3.829-6.999 3.913.641 2.173 5.16 1.762 8.111-1.086 7.814-2.351 15.604-3.545 23.402l1.029.552zm214.226.241c2.602-2.042 4.564-3.785 6.723-5.238 4.244-2.855 9.225-1.109 10.834 3.728 1.338 4.024 1.49 8.179.736 12.312-.547 2.993-.352 5.97-.361 8.959-.006 1.366 2.078 3.567-1.025 3.735-1.979.106-3.732-.902-4.307-3.354-.943-4.023-.379-7.971.34-11.879.594-3.234 1.225-7.425-1.449-8.716-2.92-1.409-5.494 2.321-7.314 4.692-2.51 3.269-4.271 7.099-6.604 10.516-1.361 1.992-3.07 4.813-5.879 3.425-2.459-1.216-2.348-4.352-1.611-6.736 3.865-12.516 5.016-25.711 9.609-38.034.289-.772.432-1.606.777-2.35.695-1.501 1.27-3.217 3.586-2.464 2.254.732 1.955 2.381 1.525 4.058-1.809 7.043-3.584 14.095-5.508 21.105-.502 1.831-.598 3.567-.072 6.241zm-501.807 16.395c5.037-5.965 6.181-12.582 8.484-18.657.767-2.023.754-5.635 3.607-4.662 2.237.764 2.873 3.857 1.749 6.939-2.377 6.521-4.263 13.223-6.218 19.89-.438 1.492-1.137 2.736-2.025 3.945-3.771 5.127-6.99 5.047-9.271-.831-1.714-4.418-3.223-3.491-5.647-.942-1.483 1.56-3.05 3.079-4.765 4.369-2.859 2.151-6.025 1.241-6.226-2.217-.467-8.09-2.282-16.257.114-24.314.548-1.843.741-4.981 3.775-4.071 2.543.764 2.38 3.421 1.639 5.566-1.612 4.668.995 9.214-.392 14.377 4.001-1.082 4.914-5.381 8.406-5.723 3.962-.388 6.185 1.628 6.77 6.331zm487.43-17.943c-1.004 7.74-5.127 13.811-10.344 19.283-1.332 1.399-2.336.509-3.266-.613-1.916-2.316-3.625-4.722-4.297-7.753-.682-3.067-2.244-3.55-4.346-1.12-3.07 3.552-6.809 6.345-10.492 9.165-3.701 2.834-6.086 2.328-7.459-1.915-3.002-9.273-.127-18.258 2.152-27.194.268-1.048 1.352-2.116 2.719-1.474 1.809.851 2.789 2.313 2.336 4.442-.822 3.875-1.588 7.764-2.484 11.622-.641 2.765-1.672 6.558.451 7.866 2.336 1.439 4.053-2.388 6.029-3.913.906-.697 1.578-1.7 2.34-2.579 5.859-6.757 8.521-6.68 12.908.866 1.689 2.905 2.484 2.191 3.938.012 1.865-2.797 2.953-5.879 3.748-9.076.48-1.937.65-4.56 3.123-4.236 2.359.31 2.932 2.828 2.943 5.121l.001 1.496zm-302.93-14.628c.31 3.37-1.673 8.286 1.188 9.744 2.788 1.421 6.38-2.321 9.264-4.273 2.116-1.434 4.188-2.173 6.464-1.7 1.735.359 4.298.778 3.454 3.686-.654 2.256-1.508 4.271-4.747 3.813-8.246-1.161-16.203 5.735-16.692 14.049-.233 3.966-1.147 7.886-.836 11.895.234 3.012-1.202 4.479-4.159 3.979-3.261-.552-3.29-3.301-2.532-5.449 1.243-3.52 1.752-6.983 1.74-10.702-.012-3.87-1.477-3.855-4.122-2.191-.141.088-.279.183-.428.256-2.073 1.018-4.777 3.915-6.299 1.312-1.386-2.371 2.272-4.088 4.277-5.148 6.331-3.348 8.061-8.759 7.932-15.355-.068-3.484.24-6.975.326-10.464.061-2.465 1.016-4.565 3.635-4.345 2.302.194 2.242 2.575 2.153 4.409-.103 2.153-.401 4.301-.618 6.484zm200.084 29.587c2.498-1.543 3.578-3.601 5.014-5.334 3.486-4.206 6.557-3.731 8.893 1.375.742 1.62.965 4.002 3.176 3.835 1.871-.142 2.729-2.206 3.508-3.866 2.111-4.506 3.865-9.137 4.832-14.039.26-1.319.494-2.865 2.256-2.75 1.627.107 1.869 1.717 2.199 2.935 2 7.354-2.254 19.098-8.611 23.12-2.355 1.49-4.645-.135-6.762-1.371-6.639-3.878-6.643-3.87-12.357 1.58-.604.574-1.23 1.122-1.818 1.71-1.453 1.457-3.059 2.948-5.215 1.881-1.994-.986-2.361-3.093-2.23-5.16.334-5.294.616-10.597 1.18-15.868.203-1.911.799-4.685 3.029-4.55 1.816.11 2.621 2.816 2.779 4.704.234 2.801-.092 5.646-.127 8.474-.014.935.135 1.871.254 3.324zm-300.738-12.558c-1.444-.421-3.537.86-4.209-1.468-.417-1.444.346-2.898 1.723-3.216 9.45-2.175 7.995-10.15 9.01-16.765.452-2.951.484-5.964.841-8.932.237-1.969.653-4.663 3.133-4.132 2.355.504 3.404 2.862 2.588 5.576-1.555 5.166-1.161 10.521-1.549 15.809-.264 3.592 1.138 3.991 3.93 3.278 2.414-.617 4.807-1.321 7.225-1.923 1.664-.413 3.638-.707 4.374 1.183.922 2.366-1.535 2.529-2.867 3.2-3.549 1.786-7.672 1.821-11.218 3.918-2.543 1.504-3.444 3.22-3.396 6.009.081 4.659-.01 9.328-.222 13.983-.071 1.569-.155 3.742-2.292 3.889-1.906.131-2.729-1.766-3.312-3.285-.991-2.581-.748-5.34.085-7.858.655-1.979.53-3.911.731-5.876.391-3.816-1.576-4.243-4.575-3.39zm-11.198 9.597c-.108 2.642-.608 5.26 2.867 6.579 1.602.608 1.259 2.443.283 3.849-1.101 1.586-2.362 2.264-4.18 1.063-3.15-2.081-3.851-5.16-3.629-8.647.081-1.283.449-3.095-.706-3.589-1.686-.72-2.507 1.122-3.335 2.3-2.471 3.513-4.811 7.12-7.359 10.574-.908 1.23-2.121 3.142-3.98 1.483-1.441-1.285-4.133-2.264-2.716-5.112 2.092-4.206 2.862-8.746 3.79-13.291.896-4.386 2.962-4.964 6.294-1.721 1.339 1.305 1.827 1.467 3.541.582 6.346-3.277 9.158-1.346 9.13 5.93zm514.649 10.635c-1.717-3.437-2.793-7.057-4.006-10.67-.729-2.173-1.477-4.561-3.777-6.197-4.586-3.263-7.258.198-10.578 2.185-.896.536-2.107 3.525-3.264 1.069-1.881-4-3.449-1.474-4.398.043-5.322 8.52-14.344 10.124-22.898 12.644-2.668.785-4.775-.181-6.795-2-2.213-1.99-2.129-3.51.303-5.099 3.053-1.993 6.014-4.135 9.125-6.029 4.699-2.86 4.996-4.669-.361-8.889-1.723-1.357-3.705-1.178-5.678-.434-5.35 2.016-11.277 10.776-11.197 16.583.082 5.909 7.656 11.294 14.615 10.381 4.834-.635 9.225-2.714 13.75-4.336 1.256-.451 2.172-1.414 3.326.312 2.785 4.163 5.674 2.678 8.568-.035 3.039-2.849 4.982-6.695 8.439-9.155 2.402-1.709 4.123-2.293 5.369 1.465 1.191 3.594 3.16 6.947 4.939 10.325.949 1.805 2.754 2.792 4.609 1.799 1.907-1.023.481-2.819-.091-3.962zm-53.313-18.453c.682-1.051 1.883-1.618 2.936-.825 1.273.959.945 2.433.035 3.464-1.318 1.493-3.211 2.014-6.123 2.916 1.408-2.507 2.199-4.084 3.152-5.555zm-485.782 18.763c-.683-1.462-2.023-.444-3.095-.308-4.993.299-7.318-2.334-5.961-7.527 1.391-5.318 3.988-10.589-2.882-14.118-.249-.128-.334-.561-.515-.838-2.844-4.378-5.319-4.512-8.989-.547-3.52 3.804-5.9 8.317-7.927 12.999-1.331 3.075-2.173 6.253.529 9.298 2.871 3.236 7.121 3.559 10.01 2.225 3.876-1.789 5.996-.585 8.682 1.529 2.626 2.067 5.608 3.17 8.496.519.826-.759 2.344-1.751 1.652-3.232zm-21.191-3.341c-2.075 1.021-3.58 1.122-3.472-1.844.132-3.598 4.021-10.33 7.373-12.816 2.526 7.447 1.266 12.12-3.901 14.66zm188.779-19.878c-3.739.575-7.467 1.368-11.112 2.38-4.349 1.207-8.301 6.674-7.706 10.212.708 4.219 4.43 7.064 9.372 7.167 5.105.595 17.058-6.54 19.167-9.88.33-.521.784-1.169.72-1.702-.453-3.705-6.738-8.746-10.441-8.177zm2.572 8.766c-3.591 4.095-8.384 5.358-13.78 5.688 1.588-5.554 7.207-9.36 12.359-9.058 3.207.188 2.894 1.691 1.421 3.37z" fill-rule="evenodd" clip-rule="evenodd" fill="#126D8F"/></svg>