<svg xmlns="http://www.w3.org/2000/svg" width="192.913" height="372.382"><path d="M92.989 104.741c-.094.382-.091.722-.059 1.076.016.176.042.35.078.519l.12.389c.087.235.199.492.307.683l.3.45c.225.318.372.439.567.653.344.333.652.574.935.778.562.399 1.048.676 1.5.92.248.13.392.205.701.353.355.17.701.32 1.035.46.338.121.705.041 1.035.07l.675.004.858-.002 1.348-.006c3.983-.02 7.203-.229 10.216-.619 1.507-.195 2.962-.436 4.435-.72l4.868-.981c.392-.932.733-1.807 1.01-2.604-.672.624-1.245 1.12-1.657 1.395-.772-.185-1.126-.359-1.988-.523l-2.233-.458c-1.473-.284-2.928-.524-4.435-.719-3.013-.39-6.232-.6-10.216-.619l-2.497-.01h.002l-.39-.201c-.188-.102-.373-.212-.549-.322l.035-.308.053-.588.019-.416.032-.819c.027-.571.027-1.138.042-1.752l.024-3.881c-.003-2.713-.035-5.616-.078-8.285l-.13-6.87-.039-1.696c1.226.001 11.85.012 18.056.019l2.174-.001.84-.001.003 1.912.008 2.545c.045 8.99 1.056 14.089 2.925 21.6 1.869-7.511 2.88-12.609 2.926-21.6l.014-10.34-8.89-.006c-7.447.007-20.196.018-21.665.019-1.274.102-2.85-.396-2.362.883l.044 1.813.023.945.193 10.862.064 8.205-.022 3.783c-.013.576-.012 1.148-.035 1.649l-.041 1.179c-.013.142.09.121-.014.505l-.011.056.03.012-.023.058c-.066.179-.12.366-.161.552zm26.993-24.652v.015l-.003-.001.003-.014zm-23.374 25.419zm1.828-1.182l-.001.002-.001-.001.002-.001zm77.98-57.321c-.699-3.164-1.735-6.229-3.066-9.116l-1.051-2.131-.674-1.202-.28-.497c-3.059-5.24-6.503-8.83-8.267-10.566-3.389-3.317-6.532-5.347-9.664-6.864-3.147-1.485-6.331-2.507-10.162-3.131 3.074 2.335 5.358 4.521 7.78 6.703 2.396 2.207 4.917 4.438 7.924 7.443 1.57 1.574 4.628 4.793 7.297 9.38l.245.435.59 1.049.916 1.857c1.158 2.513 2.054 5.168 2.661 7.918.597 2.751.955 5.592.961 8.482-.019 2.931-.116 5.926-.559 8.862-.415 2.944-1.04 5.869-1.937 8.724-.914 2.848-2.094 5.62-3.538 8.272-2.885 5.312-6.849 10.091-11.531 14.28-2.334 2.107-4.821 4.092-7.422 6.035-2.593 1.971-5.293 3.825-8.01 6.13-.678.583-1.357 1.207-2.027 1.908-.619.678-1.135 1.342-1.708 2.015l-1.674 2.016c-.533.683-1.004 1.387-1.508 2.08l-1.49 2.089-.745 1.045-.682 1.075-2.726 4.304c-.88 1.449-1.687 2.938-2.533 4.406l-1.255 2.209c-.404.744-.774 1.508-1.162 2.26l-2.301 4.531-2.085 4.644-1.036 2.324c-.322.786-.607 1.592-.912 2.387l-1.792 4.784-2.824 9.764-5.384 18.829c-1.78 6.232-3.526 12.412-5.386 18.526-3.652 12.227-7.22 24.169-10.656 35.67-6.926 22.989-13.321 44.214-18.807 62.422-2.758 9.1-5.288 17.445-7.542 24.88l-1.64 5.402-.197.65-.139.456-.061.292-.04.222-.248 1.238c-.175.826-.359 1.639-.555 2.433-.771 3.18-1.682 6.061-2.652 8.581-1.902 5.062-4.333 8.597-6.282 9.979-.215.209-.494.36-.758.505l-.73.428-1.329.583c-.796.288-1.348.444-1.583.53-3.001.812-5.53.942-7.404 1.013-1.89.059-3.191-.028-4.067-.065-1.754-.116-1.839-.141-1.839-.14 0 0-.647-.052-1.872-.209l-.731-.104-.376-.224c-.73-.458-1.579-1.039-2.492-1.753-1.822-1.427-3.959-3.374-5.885-6.017-1.921-2.631-3.552-6.021-3.982-10.032-.197-2.004-.078-4.151.402-6.372.063-.279.111-.551.186-.843l.267-.903.541-1.838c.354-1.233.732-2.501 1.183-3.82 1.693-5.244 3.651-10.894 5.727-16.898 4.205-12.002 9.018-25.411 14.25-39.853 10.487-28.878 22.664-61.89 35.359-96.011l4.785-12.841c1.589-4.267 3.265-8.623 4.714-13.066.378-1.103.732-2.218 1.072-3.34.335-1.126.717-2.226 1.014-3.374l.939-3.417.794-3.513.196-.879.138-.929.261-1.864c.235-1.245.171-2.479.215-3.718.005-.614.036-1.247.018-1.847l-.087-1.778c-.067-1.183-.096-2.379-.197-3.548-.398-4.678-.886-9.309-1.6-13.906-.308-2.3-.747-4.601-1.148-6.896-.497-2.329-.885-4.555-1.816-7.188-.1-.339-.214-.586-.327-.847l-.336-.785-.671-1.566-1.341-3.129-2.672-6.235-5.129-11.968 5.449-.355c4.411-.288 8.785-.573 13.115-.855l25.385-1.656 12.185-.796 1.167-.076.375-.024c.128.002.251-.014.352-.099l.644-.387 1.498-.898 2.544-1.527 5.021-3.013s3.301-1.98 4.927-2.957l4.02-2.412.151-.091-.024-.175-.049-.35-.097-.697-.193-1.394-.277-1.999-.247-1.77-1.1-7.81c-1.28-8.897-2.981-13.81-5.864-20.993-.82 7.696-1.121 12.886.069 21.797l1.066 7.813.244 1.771.096.69.009.069-.225.135-.609.365-4.927 2.956c-1.659.995-3.333 1.999-5.021 3.013l-2.544 1.526-1.06.636-.329.021-1.262.082c-4.601-4.298-3.518-2.816-10.897-7.016l-.812-.461-.201-.115h.003l.003.002.001.002.001-.692.004-3.87.005-16.491-.001-4.805v-2.438l-.093-4.475-.105-4.734c.074-.32-.211-.076-.369-.033l-.532.232-1.057.462-2.108.938c-1.422.615-2.809 1.351-4.189 2.059l-.259.133-.14.077-.27.15-.537.299c-.356.202-.717.392-1.063.603-5.612 3.229-10.326 6.966-13.398 10.155-.792.766-1.444 1.541-2.02 2.219l-.804.942-.623.853-.859 1.184-.293.419-.864 1.446c-.601.934-1.243 2.298-2.032 4.011-1.517 3.436-3.105 8.334-4.247 13.897-.554 2.63-.999 5.41-1.357 8.25l-.311.021-7.817.51-3.351.219-1.678.109-.839.055c-.11-.02-.061.058-.03.124l.083.193.166.387 2.658 6.201 5.456 12.729 2.672 6.234 1.341 3.129.671 1.567.336.784c.113.262.236.532.284.745.581 1.671 1.047 3.94 1.488 6.082.384 2.207.806 4.405 1.106 6.651.695 4.464 1.169 8.983 1.553 13.479.098 1.125.121 2.232.186 3.35l.083 1.672c.017.552-.015 1.071-.019 1.608-.041 1.062.031 2.146-.18 3.173l-.22 1.56-.111.782-.182.807-.73 3.231-.893 3.248c-.279 1.084-.654 2.163-.975 3.244-.327 1.082-.67 2.161-1.038 3.235-1.405 4.312-3.031 8.538-4.641 12.862-1.601 4.296-3.196 8.58-4.785 12.847-12.697 34.135-24.872 67.157-35.362 96.061-5.235 14.457-10.052 27.883-14.267 39.923-2.084 6.034-4.049 11.703-5.771 17.042-.448 1.312-.852 2.655-1.234 3.989l-.576 1.967-.283.968c-.086.334-.155.696-.232 1.04-.601 2.78-.764 5.571-.5 8.194.558 5.279 2.715 9.657 5.066 12.872 2.37 3.246 4.889 5.521 7.034 7.203 1.079.842 2.076 1.526 2.983 2.096.249.153.372.236.833.498l.57.316c.187.097.416.091.586.132.859.145 1.061.163 1.451.22 1.381.178 2.095.233 2.095.233s.094.026 2.045.156c.979.042 2.417.138 4.567.073 2.148-.089 5.016-.202 8.845-1.233.316-.109 1.026-.309 2.096-.701.532-.231 1.157-.487 1.862-.82l1.102-.632c.389-.22.797-.454 1.201-.801 3.436-2.55 6.14-7.013 8.282-12.583 1.079-2.8 2.055-5.902 2.883-9.308.21-.852.408-1.723.598-2.617l.274-1.37.028-.145.008-.03.049-.161.197-.651 1.642-5.403c2.256-7.436 4.788-15.782 7.548-24.884 5.491-18.211 11.891-39.441 18.824-62.436 3.439-11.506 7.01-23.454 10.667-35.687 1.855-6.097 3.622-12.342 5.418-18.629l5.43-18.995 2.688-9.291 1.7-4.526c.289-.754.556-1.515.863-2.264l.994-2.225 1.996-4.45 2.218-4.361c.374-.725.729-1.46 1.118-2.176l1.21-2.127c.815-1.412 1.592-2.85 2.437-4.24l2.608-4.117.651-1.029.702-.982 1.401-1.963c.471-.647.922-1.325 1.41-1.948l1.504-1.806c.5-.589 1.001-1.234 1.496-1.778.474-.495 1.012-.994 1.587-1.488 2.324-1.979 5.062-3.882 7.708-5.887 2.668-1.994 5.318-4.102 7.835-6.374 5.051-4.519 9.512-9.854 12.755-15.835 1.625-2.983 2.954-6.11 3.978-9.304 1.006-3.199 1.703-6.457 2.159-9.709.485-3.258.597-6.493.613-9.721-.01-3.278-.413-6.539-1.102-9.704zm-31.679-1.356zm-14.387 8.62zm-43.591-3.759c1.067-5.227 2.528-9.711 3.859-12.737.688-1.493 1.255-2.709 1.727-3.421l.688-1.166.245-.344.715-.979.514-.709.689-.8c.491-.575 1.042-1.236 1.741-1.906 2.665-2.764 6.941-6.171 12.151-9.161l1.856-1.041.03-.015c0 2.525-.001 5.058-.002 7.499l.005 16.491.01 7.988 4.005 2.245c6.37 3.541 7.124 1.785 11.157 2.087l-8.315.542-25.385 1.654-6.817.445c.31-2.3.681-4.549 1.127-6.672zm-32.999 273.71c-.761-2.31-2.171-4.712-4.885-6.738-.329-.258-.741-.562-1.275-.868-.264-.157-.543-.34-.858-.512l-1.043-.506c-1.502-.67-3.523-1.354-6.105-1.512-2.53-.156-5.678.23-8.53 1.646-2.888 1.326-5.362 3.61-7.004 6.042-1.628 2.463-2.404 5.032-2.687 6.889-.171.931-.188 1.689-.212 2.212-.036.522-.014.81-.014.81l.046.961c.008.618.155 1.508.366 2.59.466 2.146 1.62 5.067 3.822 7.586 2.162 2.53 5.336 4.575 8.613 5.409 3.271.913 6.47.662 8.712.087 1.89-.444 3.178-1.114 4.15-1.602.938-.56 1.577-.955 2.019-1.319 2.714-2.026 4.124-4.428 4.885-6.737.736-2.336.802-4.712.207-7.219-.658 2.502-1.646 4.307-2.792 5.991-1.18 1.657-2.504 3.285-4.625 4.833-.715.488-1.876 1.486-4.785 2.245-1.729.439-4.227.636-6.749-.073-2.532-.639-4.991-2.224-6.673-4.183-1.711-1.952-2.604-4.21-2.971-5.868-.158-.839-.287-1.525-.287-2.008l-.04-.748s-.019-.223.015-.629c.021-.406.029-.998.168-1.718.222-1.438.827-3.42 2.087-5.329 1.281-1.879 3.199-3.656 5.435-4.675 2.202-1.099 4.636-1.387 6.604-1.272 2.003.119 3.56.647 4.726 1.16l.81.387c.245.132.46.275.666.396.417.232.738.468.994.666 2.121 1.548 3.445 3.177 4.625 4.834 1.146 1.686 2.134 3.489 2.792 5.991.595-2.508.529-4.884-.207-7.219z" fill="#D7D7D7"/></svg>